<?xml version="1.0" encoding="UTF-8" standalone="no"?>
<!DOCTYPE svg PUBLIC "-//W3C//DTD SVG 1.1//EN" "http://www.w3.org/Graphics/SVG/1.1/DTD/svg11.dtd">
<svg width="100%" viewBox="0 0 596 57" version="1.1" xmlns="http://www.w3.org/2000/svg" xmlns:xlink="http://www.w3.org/1999/xlink" xml:space="preserve" xmlns:serif="http://www.serif.com/" style="fill-rule:evenodd;clip-rule:evenodd;stroke-linejoin:round;stroke-miterlimit:2;"><g id="Start"><g><path d="M213.501,28.497c-45.923,0.173 -67.608,0.345 -113.53,-0c-1.753,-0.013 -3.771,-0.143 -5.149,-1.075c-0.755,-0.51 -1.708,-0.738 -2.618,-0.785c-1.476,-0.077 -2.108,1.233 -1.986,2.291c0.121,1.053 1.392,1.825 2.444,1.702c3.599,-0.421 2.358,-5.586 0.414,-6.743c-2.937,-1.749 -6.291,-2.473 -9.71,-2.487c-4.267,-0.019 -8.271,1.242 -12.576,2.39c-7.483,1.994 -15.168,3.886 -22.913,3.846c-3.037,-0.016 -7.049,-0.712 -8.183,-3.53c-0.758,-1.885 3.667,-3.236 5.646,-2.777c15.521,3.597 12.856,11.482 28.723,12.608c3.809,0.27 6.544,-1.057 6.301,-3.437c-0.286,-2.808 -4.297,-4.373 -7.119,-4.343c-13.486,0.146 -17.058,8.592 -28.968,7.289c-4.237,-0.464 -8.176,-2.046 -11.702,-4.916c-3.179,-2.587 -6.911,-6.164 -10.965,-5.564" style="fill:none;stroke:#1d1d1b;stroke-width:1px;stroke-linecap:round;stroke-miterlimit:1.5;"/><path d="M20.47,30.644c0.352,-0.353 0.779,-0.786 1.244,-1.076c0.293,-0.183 0.601,-0.308 0.915,-0.294c0.685,0.03 1.418,0.356 1.925,0.982c0.409,0.507 0.665,1.21 0.638,2.11c-0.031,1.023 -0.506,1.987 -1.358,2.622c-0.725,0.54 -1.72,0.836 -2.94,0.744c-1.447,-0.109 -2.834,-0.897 -3.799,-2.147c-0.848,-1.099 -1.368,-2.558 -1.321,-4.236c0.048,-1.737 0.758,-3.181 1.776,-4.204c1.155,-1.162 2.707,-1.783 4.125,-1.649c0.275,0.024 0.518,-0.18 0.542,-0.454c0.024,-0.275 -0.18,-0.518 -0.454,-0.542c-1.684,-0.135 -3.527,0.598 -4.876,1.995c-1.147,1.188 -1.942,2.848 -1.97,4.836c-0.025,1.888 0.586,3.518 1.558,4.74c1.121,1.41 2.718,2.278 4.37,2.378c1.417,0.087 2.562,-0.288 3.394,-0.926c1.003,-0.77 1.557,-1.924 1.576,-3.143c0.017,-1.072 -0.311,-1.901 -0.807,-2.497c-0.627,-0.753 -1.525,-1.137 -2.358,-1.162c-0.42,-0.012 -0.834,0.144 -1.223,0.394c-0.495,0.318 -0.95,0.786 -1.323,1.171c-0.099,0.101 -0.097,0.263 0.004,0.362c0.101,0.099 0.263,0.097 0.362,-0.004Z" style="fill:#1d1d1b;"/><path d="M89.181,25.719c-0.579,0.539 -1.249,1.023 -1.597,1.742c-0.214,0.442 -0.311,0.969 -0.203,1.645c0.172,1.063 0.909,2.082 1.878,2.815c0.964,0.729 2.157,1.166 3.228,1.111c1.208,-0.065 2.562,-0.394 3.595,-1.162c0.966,-0.718 1.66,-1.812 1.725,-3.425c0.1,-2.659 -1.973,-4.455 -4.76,-5.6c-3.819,-1.569 -8.954,-1.936 -10.947,-1.967c-1.044,-0.015 -2.084,0.082 -3.117,0.246c-1.517,0.241 -3.021,0.628 -4.504,1.009c-0.267,0.07 -0.428,0.343 -0.358,0.61c0.069,0.267 0.342,0.428 0.609,0.358c1.452,-0.38 2.923,-0.767 4.408,-1.01c0.978,-0.161 1.962,-0.258 2.95,-0.248c1.932,0.018 6.908,0.342 10.619,1.837c2.423,0.975 4.326,2.432 4.259,4.737c-0.036,1.318 -0.584,2.221 -1.362,2.82c-0.903,0.694 -2.097,0.996 -3.164,1.076c-0.923,0.072 -1.955,-0.297 -2.806,-0.903c-0.863,-0.616 -1.547,-1.474 -1.725,-2.397c-0.106,-0.548 -0.046,-0.981 0.116,-1.347c0.301,-0.678 0.918,-1.137 1.437,-1.656c0.08,-0.077 0.082,-0.206 0.005,-0.286c-0.078,-0.08 -0.206,-0.083 -0.286,-0.005Z" style="fill:#1d1d1b;"/><path d="M241.52,29.09c0.201,-0.143 0.433,-0.255 0.673,-0.311c0.229,-0.054 0.466,-0.054 0.687,0.028c0.973,0.359 1.558,1.075 2.327,1.554c0.358,0.224 0.752,0.398 1.227,0.482c0.515,0.091 1.114,-0.04 1.526,-0.336c0.337,-0.243 0.549,-0.594 0.543,-1.021c-0.006,-0.383 -0.23,-0.819 -0.559,-1.227c-0.406,-0.503 -0.968,-0.968 -1.356,-1.238c-1.981,-1.372 -3.598,-2.029 -5.335,-2.023c-1.587,0.005 -3.28,0.572 -5.455,1.696c-1.859,0.966 -3.814,2.204 -6.299,2.982c-1.324,0.414 -2.8,0.698 -4.498,0.732c-1.615,0.034 -3.152,-0.135 -4.638,-0.43c-3.161,-0.627 -6.089,-1.821 -9.019,-2.869c-3.065,-1.096 -6.132,-2.031 -9.449,-2.048c-1.387,-0.007 -2.735,0.171 -4.058,0.465c-5.11,1.133 -9.847,4.036 -15.201,4.191c-0.983,0.029 -2.27,-0.128 -3.536,-0.39c-1.268,-0.262 -2.515,-0.629 -3.415,-1.032c-2.495,-1.118 -5.561,-1.762 -8.645,-2.033c-3.127,-0.274 -6.272,-0.166 -8.847,0.208c-1.086,0.158 -2.152,0.331 -3.209,0.512c-2.473,0.423 -4.899,0.887 -7.436,1.287c-0.272,0.043 -0.459,0.299 -0.416,0.572c0.043,0.273 0.299,0.459 0.572,0.416c2.541,-0.399 4.972,-0.862 7.449,-1.284c1.05,-0.178 2.107,-0.35 3.185,-0.506c2.507,-0.363 5.569,-0.466 8.614,-0.197c2.966,0.261 5.918,0.874 8.318,1.951c0.955,0.428 2.277,0.823 3.624,1.102c1.35,0.279 2.723,0.441 3.772,0.41c5.418,-0.158 10.22,-3.068 15.391,-4.217c1.25,-0.278 2.523,-0.45 3.833,-0.444c3.201,0.013 6.158,0.927 9.118,1.98c2.976,1.06 5.954,2.262 9.165,2.89c1.554,0.304 3.162,0.474 4.85,0.432c1.799,-0.047 3.361,-0.353 4.76,-0.804c2.536,-0.816 4.526,-2.101 6.418,-3.109c2.015,-1.08 3.581,-1.65 5.061,-1.68c1.602,-0.033 3.095,0.57 4.945,1.801c0.355,0.235 0.87,0.64 1.246,1.083c0.238,0.281 0.43,0.569 0.44,0.837c0.011,0.285 -0.184,0.495 -0.436,0.63c-0.277,0.147 -0.625,0.21 -0.933,0.163c-0.402,-0.061 -0.737,-0.204 -1.044,-0.384c-0.806,-0.475 -1.436,-1.186 -2.45,-1.529c-0.305,-0.104 -0.629,-0.101 -0.941,-0.018c-0.29,0.076 -0.569,0.219 -0.808,0.4c-0.09,0.066 -0.11,0.192 -0.044,0.282c0.066,0.091 0.193,0.11 0.283,0.044Z" style="fill:#1d1d1b;"/><path d="M252.826,29.78c-0.316,0.38 -0.699,0.845 -1.13,1.139c-0.277,0.189 -0.573,0.306 -0.885,0.248c-0.582,-0.107 -1.28,-0.469 -1.736,-0.951c-0.305,-0.322 -0.505,-0.697 -0.441,-1.088c0.144,-0.882 0.318,-1.79 0.867,-2.46c0.445,-0.545 1.144,-0.919 2.274,-0.999c1.431,-0.101 2.541,0.465 3.338,1.255c1.04,1.03 1.557,2.438 1.544,3.249c-0.027,1.876 -0.891,3.252 -2.136,4.168c-1.308,0.961 -3.03,1.421 -4.653,1.433c-1.635,0.012 -3.3,-0.393 -4.803,-1.344c-1.284,-0.813 -2.449,-2.024 -3.379,-3.71c-0.858,-1.552 -2.083,-2.807 -3.326,-3.774c-1.774,-1.382 -3.585,-2.177 -4.399,-2.435c-1.972,-0.625 -5.151,-0.748 -8.586,-0.272c-2.747,0.38 -5.658,1.141 -8.241,2.319c-3.577,1.631 -6.549,2.613 -8.887,3.205c-3.705,0.938 -5.806,0.889 -6.178,0.899c-1.279,0.037 -2.536,-0.111 -3.779,-0.372c-5.05,-1.064 -9.888,-3.957 -15.069,-4.39c-1.526,-0.127 -3.053,0.019 -4.566,0.325c-2.195,0.445 -4.36,1.229 -6.447,1.987c-0.26,0.094 -0.394,0.381 -0.299,0.64c0.094,0.26 0.381,0.394 0.64,0.299c2.041,-0.744 4.157,-1.517 6.303,-1.955c1.421,-0.29 2.855,-0.433 4.288,-0.316c5.141,0.421 9.941,3.301 14.954,4.346c1.317,0.275 2.649,0.426 4.003,0.384c0.385,-0.012 2.555,0.035 6.38,-0.942c2.378,-0.608 5.401,-1.613 9.036,-3.281c2.502,-1.149 5.323,-1.893 7.985,-2.271c3.281,-0.466 6.32,-0.382 8.208,0.207c0.767,0.239 2.472,0.984 4.15,2.275c1.168,0.898 2.325,2.061 3.137,3.508c1.015,1.807 2.282,3.099 3.672,3.963c1.635,1.016 3.441,1.442 5.212,1.413c1.763,-0.029 3.627,-0.552 5.038,-1.609c1.387,-1.04 2.346,-2.59 2.358,-4.694c0.005,-0.917 -0.57,-2.514 -1.758,-3.666c-0.908,-0.881 -2.167,-1.507 -3.781,-1.377c-1.314,0.106 -2.114,0.573 -2.627,1.214c-0.594,0.742 -0.795,1.734 -0.943,2.703c-0.08,0.531 0.161,1.05 0.579,1.481c0.526,0.543 1.326,0.947 1.991,1.062c0.424,0.074 0.83,-0.069 1.202,-0.328c0.459,-0.32 0.868,-0.82 1.202,-1.231c0.071,-0.086 0.059,-0.214 -0.028,-0.284c-0.086,-0.071 -0.214,-0.059 -0.284,0.027Z" style="fill:#1d1d1b;"/></g><g><path d="M379.708,28.497c45.923,0.173 67.608,0.345 113.53,-0c1.753,-0.013 3.771,-0.143 5.149,-1.075c0.755,-0.51 1.708,-0.738 2.619,-0.785c1.475,-0.077 2.107,1.233 1.985,2.291c-0.12,1.053 -1.391,1.825 -2.444,1.702c-3.599,-0.421 -2.357,-5.586 -0.414,-6.743c2.937,-1.749 6.291,-2.473 9.71,-2.487c4.267,-0.019 8.271,1.242 12.576,2.39c7.483,1.994 15.169,3.886 22.913,3.846c3.037,-0.016 7.049,-0.712 8.183,-3.53c0.758,-1.885 -3.667,-3.236 -5.646,-2.777c-15.521,3.597 -12.856,11.482 -28.723,12.608c-3.809,0.27 -6.544,-1.057 -6.301,-3.437c0.286,-2.808 4.297,-4.373 7.119,-4.343c13.486,0.146 17.059,8.592 28.968,7.289c4.237,-0.464 8.176,-2.046 11.702,-4.916c3.179,-2.587 6.911,-6.164 10.966,-5.564" style="fill:none;stroke:#1d1d1b;stroke-width:1px;stroke-linecap:round;stroke-miterlimit:1.5;"/><path d="M573.105,30.286c-0.373,-0.385 -0.828,-0.853 -1.323,-1.171c-0.389,-0.25 -0.803,-0.406 -1.223,-0.394c-0.833,0.025 -1.731,0.409 -2.358,1.162c-0.496,0.596 -0.824,1.425 -0.807,2.497c0.019,1.219 0.573,2.373 1.576,3.143c0.832,0.638 1.977,1.013 3.394,0.926c1.652,-0.1 3.249,-0.968 4.37,-2.378c0.972,-1.222 1.583,-2.852 1.558,-4.74c-0.027,-1.988 -0.823,-3.648 -1.969,-4.836c-1.35,-1.397 -3.193,-2.13 -4.876,-1.995c-0.275,0.024 -0.479,0.267 -0.455,0.542c0.024,0.274 0.267,0.478 0.542,0.454c1.418,-0.134 2.971,0.487 4.125,1.649c1.018,1.023 1.728,2.467 1.776,4.204c0.047,1.678 -0.472,3.137 -1.321,4.236c-0.965,1.25 -2.352,2.038 -3.799,2.147c-1.22,0.092 -2.215,-0.204 -2.94,-0.744c-0.852,-0.635 -1.327,-1.599 -1.358,-2.622c-0.027,-0.9 0.229,-1.603 0.638,-2.11c0.507,-0.626 1.24,-0.952 1.925,-0.982c0.314,-0.014 0.622,0.111 0.915,0.294c0.466,0.29 0.893,0.723 1.245,1.076c0.098,0.101 0.261,0.103 0.361,0.004c0.101,-0.099 0.103,-0.261 0.004,-0.362Z" style="fill:#1d1d1b;"/><path d="M503.747,26.01c0.519,0.519 1.136,0.978 1.437,1.656c0.162,0.366 0.222,0.799 0.116,1.347c-0.177,0.923 -0.862,1.781 -1.725,2.397c-0.851,0.606 -1.883,0.975 -2.806,0.903c-1.067,-0.08 -2.261,-0.382 -3.164,-1.076c-0.778,-0.599 -1.326,-1.502 -1.362,-2.82c-0.067,-2.305 1.836,-3.762 4.259,-4.737c3.711,-1.495 8.687,-1.819 10.619,-1.837c0.988,-0.01 1.972,0.087 2.95,0.248c1.485,0.243 2.957,0.63 4.408,1.01c0.267,0.07 0.54,-0.091 0.609,-0.358c0.07,-0.267 -0.091,-0.54 -0.358,-0.61c-1.483,-0.381 -2.986,-0.768 -4.503,-1.009c-1.034,-0.164 -2.074,-0.261 -3.118,-0.246c-1.993,0.031 -7.128,0.398 -10.947,1.967c-2.787,1.145 -4.86,2.941 -4.76,5.6c0.065,1.613 0.759,2.707 1.725,3.425c1.034,0.768 2.387,1.097 3.595,1.162c1.072,0.055 2.264,-0.382 3.228,-1.111c0.969,-0.733 1.707,-1.752 1.878,-2.815c0.108,-0.676 0.011,-1.203 -0.203,-1.645c-0.348,-0.719 -1.018,-1.203 -1.597,-1.742c-0.08,-0.078 -0.208,-0.075 -0.286,0.005c-0.077,0.08 -0.075,0.209 0.005,0.286Z" style="fill:#1d1d1b;"/><path d="M351.928,28.764c-0.239,-0.181 -0.518,-0.324 -0.808,-0.4c-0.312,-0.083 -0.636,-0.086 -0.941,0.018c-1.014,0.343 -1.644,1.054 -2.45,1.529c-0.307,0.18 -0.642,0.323 -1.044,0.384c-0.308,0.047 -0.656,-0.016 -0.933,-0.163c-0.252,-0.135 -0.447,-0.345 -0.436,-0.63c0.011,-0.268 0.202,-0.556 0.44,-0.837c0.376,-0.443 0.891,-0.848 1.246,-1.083c1.85,-1.231 3.343,-1.834 4.945,-1.801c1.481,0.03 3.046,0.6 5.061,1.68c1.892,1.008 3.882,2.293 6.418,3.109c1.399,0.451 2.962,0.757 4.76,0.804c1.688,0.042 3.296,-0.128 4.85,-0.432c3.211,-0.628 6.189,-1.83 9.166,-2.89c2.959,-1.053 5.916,-1.967 9.117,-1.98c1.311,-0.006 2.583,0.166 3.833,0.444c5.171,1.149 9.973,4.059 15.391,4.217c1.049,0.031 2.422,-0.131 3.772,-0.41c1.347,-0.279 2.669,-0.674 3.624,-1.102c2.401,-1.077 5.352,-1.69 8.318,-1.951c3.045,-0.269 6.107,-0.166 8.614,0.197c1.078,0.156 2.135,0.328 3.185,0.506c2.477,0.422 4.908,0.885 7.449,1.284c0.273,0.043 0.529,-0.143 0.572,-0.416c0.043,-0.273 -0.143,-0.529 -0.416,-0.572c-2.536,-0.4 -4.963,-0.864 -7.436,-1.287c-1.057,-0.181 -2.123,-0.354 -3.209,-0.512c-2.575,-0.374 -5.72,-0.482 -8.847,-0.208c-3.084,0.271 -6.15,0.915 -8.645,2.033c-0.9,0.403 -2.147,0.77 -3.414,1.032c-1.266,0.262 -2.554,0.419 -3.537,0.39c-5.354,-0.155 -10.091,-3.058 -15.201,-4.191c-1.323,-0.294 -2.671,-0.472 -4.058,-0.465c-3.317,0.017 -6.384,0.952 -9.449,2.048c-2.93,1.048 -5.858,2.242 -9.018,2.869c-1.487,0.295 -3.024,0.464 -4.639,0.43c-1.698,-0.034 -3.174,-0.318 -4.498,-0.732c-2.484,-0.778 -4.44,-2.016 -6.299,-2.982c-2.175,-1.124 -3.868,-1.691 -5.455,-1.696c-1.737,-0.006 -3.354,0.651 -5.335,2.023c-0.388,0.27 -0.95,0.735 -1.356,1.238c-0.329,0.408 -0.553,0.844 -0.559,1.227c-0.006,0.427 0.206,0.778 0.543,1.021c0.412,0.296 1.012,0.427 1.526,0.336c0.475,-0.084 0.869,-0.258 1.227,-0.482c0.769,-0.479 1.354,-1.195 2.327,-1.554c0.221,-0.082 0.458,-0.082 0.687,-0.028c0.24,0.056 0.472,0.168 0.673,0.311c0.09,0.066 0.217,0.047 0.283,-0.044c0.066,-0.09 0.046,-0.216 -0.044,-0.282Z" style="fill:#1d1d1b;"/><path d="M340.071,30.037c0.334,0.411 0.743,0.911 1.202,1.231c0.373,0.259 0.778,0.402 1.202,0.328c0.665,-0.115 1.465,-0.519 1.991,-1.062c0.418,-0.431 0.659,-0.95 0.579,-1.481c-0.148,-0.969 -0.349,-1.961 -0.943,-2.703c-0.513,-0.641 -1.313,-1.108 -2.627,-1.214c-1.614,-0.13 -2.873,0.496 -3.781,1.377c-1.188,1.152 -1.762,2.749 -1.758,3.666c0.012,2.104 0.971,3.654 2.358,4.694c1.411,1.057 3.275,1.58 5.039,1.609c1.77,0.029 3.576,-0.397 5.212,-1.413c1.389,-0.864 2.656,-2.156 3.671,-3.963c0.812,-1.447 1.969,-2.61 3.137,-3.508c1.679,-1.291 3.383,-2.036 4.15,-2.275c1.888,-0.589 4.927,-0.673 8.208,-0.207c2.662,0.378 5.483,1.122 7.985,2.271c3.635,1.668 6.658,2.673 9.036,3.281c3.825,0.977 5.995,0.93 6.38,0.942c1.354,0.042 2.686,-0.109 4.003,-0.384c5.013,-1.045 9.813,-3.925 14.954,-4.346c1.433,-0.117 2.867,0.026 4.288,0.316c2.146,0.438 4.262,1.211 6.303,1.955c0.259,0.095 0.546,-0.039 0.64,-0.299c0.095,-0.259 -0.039,-0.546 -0.299,-0.64c-2.087,-0.758 -4.252,-1.542 -6.447,-1.987c-1.513,-0.306 -3.04,-0.452 -4.566,-0.325c-5.181,0.433 -10.018,3.326 -15.069,4.39c-1.243,0.261 -2.5,0.409 -3.779,0.372c-0.372,-0.01 -2.473,0.039 -6.178,-0.899c-2.338,-0.592 -5.31,-1.574 -8.886,-3.205c-2.584,-1.178 -5.495,-1.939 -8.241,-2.319c-3.436,-0.476 -6.615,-0.353 -8.587,0.272c-0.813,0.258 -2.624,1.053 -4.399,2.435c-1.243,0.967 -2.468,2.222 -3.326,3.774c-0.93,1.686 -2.095,2.897 -3.379,3.71c-1.503,0.951 -3.168,1.356 -4.803,1.344c-1.623,-0.012 -3.345,-0.472 -4.652,-1.433c-1.246,-0.916 -2.11,-2.292 -2.137,-4.168c-0.013,-0.811 0.504,-2.219 1.544,-3.249c0.797,-0.79 1.907,-1.356 3.338,-1.255c1.13,0.08 1.829,0.454 2.274,0.999c0.549,0.67 0.723,1.578 0.867,2.46c0.064,0.391 -0.136,0.766 -0.441,1.088c-0.456,0.482 -1.154,0.844 -1.736,0.951c-0.312,0.058 -0.608,-0.059 -0.885,-0.248c-0.431,-0.294 -0.814,-0.759 -1.129,-1.139c-0.071,-0.086 -0.199,-0.098 -0.285,-0.027c-0.087,0.07 -0.099,0.198 -0.028,0.284Z" style="fill:#1d1d1b;"/></g></g><g id="ICON_qed"><g><path d="M271.452,31.938l-0.438,1.995l-0.819,4.506c-0.026,0.167 -0.055,0.32 -0.088,0.46c-0.039,0.16 -0.082,0.3 -0.132,0.422c-0.037,0.089 -0.08,0.169 -0.133,0.238c-0.052,0.069 -0.112,0.127 -0.181,0.175c-0.081,0.057 -0.176,0.105 -0.283,0.146c-0.102,0.038 -0.215,0.07 -0.338,0.095c-0.161,0.034 -0.349,0.061 -0.563,0.082c-0.178,0.018 -0.374,0.031 -0.588,0.041c-0.168,0.007 -0.31,0.128 -0.343,0.293l-0.486,2.482c-0.022,0.111 0.01,0.225 0.085,0.309c0.076,0.083 0.187,0.126 0.299,0.115l2.219,-0.194c-0,0 2.795,-0.132 2.795,-0.132c0.6,-0.023 1.251,-0.041 1.953,-0.054c0.613,-0.01 1.265,-0.017 1.957,-0.019c0.151,-0 0.283,-0.106 0.315,-0.255l0.518,-2.457c0.019,-0.09 -0.001,-0.183 -0.057,-0.256l-0.093,-0.122c-0.062,-0.081 -0.16,-0.127 -0.261,-0.123l-0.801,0.033c-0.063,0 -0.121,-0.004 -0.171,-0.013c-0.052,-0.01 -0.095,-0.017 -0.118,-0.047c-0.031,-0.043 -0.046,-0.109 -0.059,-0.193c-0.014,-0.087 -0.02,-0.189 -0.021,-0.306c-0,-0.198 0.009,-0.429 0.028,-0.695c0.022,-0.307 0.057,-0.66 0.104,-1.057l0.348,-2.542c0,0 0.488,-3.011 0.488,-3.011l0.582,-3.154c0.234,-1.269 0.487,-2.592 0.76,-3.967c0.254,-1.274 0.525,-2.593 0.812,-3.957c0.009,-0.045 0.007,-0.092 -0.006,-0.136l-0.216,-0.715c-0.032,-0.105 -0.124,-0.18 -0.233,-0.192l-4.091,-0.438c-0.06,-0.007 -0.12,0.007 -0.172,0.038l-0.621,0.373c-0.061,0.037 -0.105,0.096 -0.124,0.165l-0.331,1.223c-0,-0 -1.959,-0.558 -1.959,-0.558c-0.025,-0.007 -0.051,-0.011 -0.077,-0.011c-0.526,-0.001 -1.05,0.084 -1.573,0.256c-0.474,0.155 -0.948,0.382 -1.42,0.682c-0.497,0.314 -0.967,0.677 -1.41,1.089c-0.423,0.393 -0.823,0.831 -1.198,1.313c-0.389,0.499 -0.741,1.031 -1.056,1.596c-0.305,0.546 -0.575,1.123 -0.811,1.731c-0.238,0.612 -0.417,1.225 -0.539,1.84c-0.126,0.636 -0.19,1.274 -0.192,1.914c-0.003,0.752 0.088,1.426 0.268,2.021c0.217,0.713 0.564,1.316 1.036,1.811c0.471,0.492 1.046,0.855 1.725,1.087c0.581,0.198 1.24,0.3 1.977,0.302c0.074,0 0.146,-0.023 0.206,-0.066c0.367,-0.262 0.731,-0.573 1.093,-0.935c0.316,-0.316 0.629,-0.671 0.941,-1.065c0.298,-0.377 0.614,-0.815 0.948,-1.316c0.177,-0.265 0.358,-0.547 0.545,-0.847Zm5.078,8.383l-0.422,1.931c-0.599,-0.001 -1.167,0.002 -1.706,0.008c-0.708,0.007 -1.364,0.021 -1.968,0.04l-2.818,0.111l-1.765,0.14c0,0 0.355,-1.737 0.355,-1.737c0.167,-0.009 0.323,-0.022 0.467,-0.037c0.192,-0.021 0.363,-0.046 0.514,-0.076c0.164,-0.032 0.315,-0.074 0.452,-0.125c0.168,-0.062 0.317,-0.139 0.446,-0.227c0.134,-0.091 0.252,-0.203 0.353,-0.335c0.091,-0.118 0.169,-0.253 0.232,-0.405c0.053,-0.126 0.101,-0.267 0.144,-0.425c0.051,-0.185 0.095,-0.394 0.132,-0.626l0.854,-4.474l0.727,-3.46c0.025,-0.114 -0.003,-0.232 -0.076,-0.323c-0.073,-0.09 -0.183,-0.142 -0.299,-0.142l-0.31,0.001c-0.138,-0 -0.264,0.073 -0.333,0.192c-0.432,0.761 -0.84,1.436 -1.224,2.023c-0.317,0.485 -0.617,0.91 -0.901,1.275c-0.29,0.373 -0.582,0.709 -0.877,1.009c-0.299,0.304 -0.6,0.571 -0.904,0.799c-0.607,-0.007 -1.154,-0.09 -1.639,-0.251c-0.572,-0.191 -1.058,-0.49 -1.457,-0.901c-0.406,-0.417 -0.702,-0.929 -0.891,-1.534c-0.167,-0.537 -0.251,-1.146 -0.254,-1.826c-0.002,-0.599 0.053,-1.196 0.167,-1.793c0.111,-0.58 0.277,-1.159 0.497,-1.738c0.222,-0.581 0.476,-1.134 0.764,-1.657c0.297,-0.54 0.629,-1.049 0.996,-1.526c0.352,-0.458 0.728,-0.874 1.126,-1.248c0.415,-0.389 0.855,-0.733 1.319,-1.031c0.429,-0.274 0.858,-0.484 1.289,-0.627c0.449,-0.15 0.9,-0.228 1.353,-0.233c0,0 2.194,0.617 2.194,0.617c0.072,0.02 0.15,0.011 0.215,-0.026c0.065,-0.037 0.112,-0.098 0.132,-0.171l0.371,-1.39c0,-0 0.445,-0.27 0.445,-0.27c0,0 3.82,0.404 3.82,0.404c0,-0 0.145,0.475 0.145,0.475c-0.284,1.342 -0.551,2.64 -0.803,3.893c-0.277,1.378 -0.535,2.702 -0.773,3.972c0.001,-0.003 -0.596,3.159 -0.596,3.159l-0.504,3.02c-0,0 -0.365,2.557 -0.365,2.557c-0.052,0.408 -0.089,0.77 -0.114,1.086c-0.022,0.283 -0.033,0.529 -0.033,0.74c-0.001,0.192 0.014,0.353 0.04,0.485c0.034,0.166 0.091,0.292 0.159,0.384c0.076,0.103 0.185,0.185 0.331,0.24c0.121,0.045 0.274,0.071 0.459,0.072l0.534,-0.019Zm-7.385,-8.913c0.136,-0.003 0.298,-0.048 0.468,-0.177c0.142,-0.107 0.308,-0.282 0.487,-0.532c0.122,-0.171 0.246,-0.363 0.372,-0.579c0.153,-0.263 0.311,-0.56 0.47,-0.892c0.148,-0.308 0.296,-0.638 0.443,-0.99c0.134,-0.317 0.268,-0.651 0.401,-1.003c0.14,-0.368 0.272,-0.737 0.398,-1.107c0.126,-0.373 0.246,-0.746 0.358,-1.121c0.038,-0.124 -0.015,-0.258 -0.127,-0.323l-0.771,-0.408c-0.121,-0.054 -0.247,-0.105 -0.376,-0.154c-0.124,-0.047 -0.251,-0.091 -0.383,-0.133c-0.145,-0.047 -0.294,-0.082 -0.448,-0.105c-0.148,-0.022 -0.299,-0.034 -0.455,-0.034c-0.116,-0.001 -0.236,0.039 -0.355,0.134c-0.111,0.089 -0.229,0.239 -0.346,0.456c-0.075,0.141 -0.147,0.301 -0.217,0.479c-0.084,0.215 -0.164,0.458 -0.239,0.729c-0.07,0.251 -0.133,0.517 -0.189,0.798c-0.052,0.256 -0.098,0.524 -0.138,0.804c-0.042,0.292 -0.074,0.585 -0.098,0.878c-0.024,0.294 -0.039,0.588 -0.045,0.883c-0.007,0.336 0.001,0.638 0.021,0.906c0.017,0.232 0.045,0.44 0.082,0.623c0.068,0.343 0.176,0.564 0.277,0.677c0.124,0.141 0.268,0.19 0.41,0.191Zm0.119,-0.786c0.058,0.012 0.104,0.033 0.061,0.061c-0.028,0.018 -0.046,-0.011 -0.061,-0.061Zm0.733,-6.219c0.123,-0 0.243,0.008 0.36,0.024c0.125,0.018 0.246,0.045 0.364,0.082c0.121,0.038 0.24,0.079 0.354,0.122c0.116,0.044 0.228,0.091 0.336,0.141c0.001,-0 0.529,0.287 0.529,0.287c-0.096,0.293 -0.197,0.585 -0.304,0.875c-0.132,0.36 -0.273,0.718 -0.421,1.074c-0.142,0.34 -0.283,0.662 -0.425,0.967c-0.155,0.335 -0.311,0.648 -0.467,0.941c-0.133,0.252 -0.263,0.481 -0.392,0.689c-0.15,0.243 -0.297,0.455 -0.44,0.637c-0.079,0.101 -0.181,0.167 -0.261,0.221c-0.005,-0.032 -0.012,-0.063 -0.019,-0.092c-0.038,-0.154 -0.069,-0.329 -0.092,-0.525c-0.029,-0.246 -0.046,-0.524 -0.053,-0.835c-0.005,-0.28 -0.003,-0.56 0.01,-0.841c0.012,-0.279 0.034,-0.559 0.064,-0.839c0.029,-0.269 0.064,-0.526 0.105,-0.773c0.045,-0.266 0.098,-0.519 0.157,-0.759c0.051,-0.206 0.105,-0.395 0.163,-0.567c0.068,-0.201 0.14,-0.377 0.218,-0.53c0.052,-0.102 0.102,-0.185 0.153,-0.244c0.022,-0.025 0.065,-0.035 0.061,-0.055Z" style="fill:#1d1d1b;"/><path d="M280.969,36.12c0.559,-0.01 1.065,-0.103 1.519,-0.279c0.495,-0.193 0.929,-0.479 1.3,-0.867c0.373,-0.389 0.648,-0.845 0.82,-1.37c0.151,-0.461 0.227,-0.974 0.219,-1.542c-0.005,-0.402 -0.063,-0.762 -0.171,-1.081c-0.127,-0.376 -0.322,-0.697 -0.588,-0.962c-0.267,-0.268 -0.593,-0.464 -0.981,-0.587c-0.32,-0.102 -0.683,-0.154 -1.09,-0.153c-0.554,-0.001 -1.054,0.082 -1.504,0.245c-0.496,0.179 -0.931,0.457 -1.304,0.833c-0.379,0.379 -0.658,0.827 -0.842,1.342c-0.165,0.459 -0.252,0.972 -0.261,1.541c-0.007,0.403 0.041,0.764 0.138,1.085c0.117,0.39 0.309,0.721 0.571,0.997c0.22,0.232 0.491,0.414 0.812,0.547c0.379,0.157 0.833,0.241 1.362,0.251Zm-0,-0.8c-0.345,0.007 -0.651,-0.024 -0.919,-0.098c-0.297,-0.083 -0.546,-0.214 -0.74,-0.406c-0.194,-0.19 -0.338,-0.423 -0.431,-0.699c-0.087,-0.258 -0.133,-0.55 -0.138,-0.877c-0.007,-0.493 0.051,-0.941 0.184,-1.343c0.143,-0.433 0.368,-0.813 0.677,-1.137c0.307,-0.321 0.667,-0.562 1.082,-0.717c0.391,-0.147 0.829,-0.219 1.313,-0.22c0.344,0.001 0.651,0.045 0.921,0.134c0.296,0.097 0.544,0.251 0.746,0.459c0.199,0.207 0.343,0.457 0.434,0.747c0.084,0.266 0.121,0.566 0.116,0.899c-0.006,0.491 -0.081,0.934 -0.223,1.329c-0.153,0.422 -0.388,0.784 -0.701,1.091c-0.306,0.299 -0.66,0.517 -1.061,0.657c-0.379,0.132 -0.799,0.189 -1.26,0.181Z" style="fill:#1d1d1b;"/><path d="M299.46,23.94c-0.004,-0.583 -0.109,-1.105 -0.314,-1.566c-0.218,-0.492 -0.548,-0.917 -0.993,-1.273c-0.454,-0.363 -0.995,-0.63 -1.626,-0.795c-0.52,-0.136 -1.101,-0.204 -1.745,-0.2c-0.623,0.003 -1.226,0.072 -1.81,0.206c-0.592,0.135 -1.165,0.337 -1.718,0.607c-0.546,0.266 -1.058,0.579 -1.537,0.938c-0.476,0.358 -0.919,0.762 -1.328,1.213c-0.416,0.458 -0.787,0.956 -1.115,1.494c-0.315,0.518 -0.589,1.073 -0.822,1.665c-0.24,0.611 -0.419,1.242 -0.536,1.894c-0.114,0.632 -0.17,1.284 -0.167,1.955c0.002,0.852 0.11,1.621 0.32,2.308c0.244,0.796 0.625,1.483 1.143,2.061c0.505,0.566 1.099,0.985 1.781,1.258c0.633,0.253 1.343,0.381 2.131,0.38c0.381,0 0.762,-0.031 1.144,-0.094c0.37,-0.061 0.741,-0.153 1.111,-0.274c0.372,-0.122 0.733,-0.267 1.081,-0.434c0.351,-0.167 0.69,-0.357 1.016,-0.571c0.326,-0.212 0.634,-0.442 0.924,-0.692c0.293,-0.25 0.568,-0.52 0.826,-0.809c0.254,-0.284 0.48,-0.579 0.677,-0.884c0.206,-0.319 0.381,-0.649 0.526,-0.989c0.043,-0.104 0.023,-0.224 -0.052,-0.307l-1.605,-1.804c-0.048,-0.053 -0.112,-0.088 -0.183,-0.097l-0.681,-0.096c-0.122,-0.017 -0.242,0.042 -0.304,0.148c-0.428,0.733 -0.875,1.273 -1.351,1.615c-0.385,0.278 -0.787,0.419 -1.207,0.417c-0.401,-0.002 -0.72,-0.101 -0.95,-0.316c-0.17,-0.158 -0.288,-0.375 -0.363,-0.648c0.535,-0.16 1.039,-0.32 1.512,-0.48c0.653,-0.221 1.248,-0.443 1.783,-0.665c0.466,-0.193 0.892,-0.393 1.279,-0.6c0.459,-0.245 0.863,-0.501 1.213,-0.765c0.315,-0.239 0.589,-0.489 0.823,-0.751c0.267,-0.299 0.482,-0.613 0.646,-0.941c0.16,-0.322 0.279,-0.667 0.358,-1.035c0.073,-0.338 0.11,-0.695 0.113,-1.073Zm-0.8,0c0.002,0.321 -0.025,0.625 -0.083,0.913c-0.061,0.303 -0.155,0.588 -0.283,0.854c-0.131,0.271 -0.305,0.53 -0.521,0.779c-0.201,0.229 -0.436,0.45 -0.708,0.66c-0.318,0.248 -0.687,0.487 -1.106,0.717c-0.365,0.201 -0.767,0.396 -1.207,0.584c-0.52,0.223 -1.098,0.446 -1.733,0.669c-0.549,0.192 -1.14,0.385 -1.774,0.579c-0.162,0.048 -0.263,0.209 -0.235,0.375c0.098,0.582 0.317,1.016 0.641,1.311c0.342,0.312 0.804,0.478 1.395,0.475c0.549,-0.003 1.075,-0.183 1.576,-0.551c0.492,-0.361 0.962,-0.907 1.404,-1.644c0,-0 0.374,0.049 0.374,0.049c-0,0 1.419,1.571 1.419,1.571c-0.114,0.252 -0.247,0.497 -0.399,0.735c-0.18,0.283 -0.386,0.555 -0.618,0.819c-0.24,0.27 -0.496,0.524 -0.768,0.76c-0.271,0.235 -0.559,0.452 -0.862,0.653c-0.306,0.201 -0.622,0.381 -0.95,0.539c-0.327,0.158 -0.665,0.294 -1.014,0.409c-0.343,0.113 -0.687,0.199 -1.03,0.256c-0.352,0.059 -0.703,0.089 -1.054,0.089c-0.713,-0.001 -1.355,-0.115 -1.927,-0.345c-0.603,-0.243 -1.126,-0.616 -1.571,-1.117c-0.462,-0.522 -0.799,-1.142 -1.014,-1.857c-0.191,-0.639 -0.284,-1.354 -0.282,-2.144c0.003,-0.634 0.061,-1.25 0.173,-1.847c0.115,-0.611 0.289,-1.203 0.519,-1.775c0.225,-0.556 0.487,-1.077 0.789,-1.562c0.311,-0.5 0.663,-0.962 1.056,-1.386c0.385,-0.416 0.801,-0.788 1.248,-1.116c0.447,-0.33 0.926,-0.614 1.436,-0.856c0.508,-0.24 1.032,-0.419 1.574,-0.537c0.536,-0.116 1.088,-0.172 1.657,-0.169c0.573,0.004 1.091,0.068 1.552,0.194c0.52,0.143 0.966,0.366 1.338,0.671c0.34,0.279 0.592,0.61 0.756,0.993c0.159,0.37 0.234,0.787 0.232,1.252Zm-5.025,-0.152c-0.707,0.026 -1.282,0.36 -1.707,1.048c-0.365,0.588 -0.632,1.45 -0.766,2.6c-0.014,0.096 0.024,0.192 0.101,0.253c0.076,0.061 0.178,0.076 0.269,0.041c0.436,-0.166 0.823,-0.341 1.167,-0.513c0.446,-0.223 0.817,-0.45 1.114,-0.685c0.635,-0.502 0.935,-1.054 0.953,-1.631c0.013,-0.375 -0.114,-0.644 -0.318,-0.833c-0.182,-0.168 -0.451,-0.266 -0.813,-0.28Zm-0,0.8c0.137,-0.005 0.248,-0.006 0.321,0.052c0.068,0.054 0.093,0.144 0.097,0.261c0.013,0.404 -0.206,0.788 -0.631,1.163c-0.257,0.226 -0.581,0.448 -0.978,0.659c-0.198,0.106 -0.415,0.207 -0.648,0.307c0.166,-0.788 0.393,-1.398 0.693,-1.823c0.303,-0.429 0.686,-0.636 1.146,-0.619Z" style="fill:#1d1d1b;"/><path d="M301.429,36.12c0.559,-0.01 1.065,-0.103 1.519,-0.279c0.495,-0.193 0.929,-0.479 1.3,-0.867c0.373,-0.389 0.648,-0.845 0.82,-1.37c0.151,-0.461 0.227,-0.974 0.219,-1.542c-0.005,-0.402 -0.063,-0.762 -0.171,-1.081c-0.127,-0.376 -0.322,-0.697 -0.588,-0.962c-0.267,-0.268 -0.593,-0.464 -0.981,-0.587c-0.32,-0.102 -0.683,-0.154 -1.09,-0.153c-0.554,-0.001 -1.054,0.082 -1.504,0.245c-0.496,0.179 -0.931,0.457 -1.304,0.833c-0.379,0.379 -0.658,0.827 -0.842,1.342c-0.165,0.459 -0.252,0.972 -0.261,1.541c-0.007,0.403 0.041,0.764 0.138,1.085c0.117,0.39 0.309,0.721 0.571,0.997c0.22,0.232 0.491,0.414 0.812,0.547c0.379,0.157 0.833,0.241 1.362,0.251Zm-0,-0.8c-0.345,0.007 -0.651,-0.024 -0.919,-0.098c-0.297,-0.083 -0.546,-0.214 -0.74,-0.406c-0.194,-0.19 -0.338,-0.423 -0.431,-0.699c-0.087,-0.258 -0.133,-0.55 -0.138,-0.877c-0.007,-0.493 0.051,-0.941 0.184,-1.343c0.143,-0.433 0.368,-0.813 0.677,-1.137c0.307,-0.321 0.667,-0.562 1.082,-0.717c0.391,-0.147 0.829,-0.219 1.313,-0.22c0.344,0.001 0.651,0.045 0.921,0.134c0.296,0.097 0.544,0.251 0.746,0.459c0.199,0.207 0.343,0.457 0.434,0.747c0.084,0.266 0.121,0.566 0.116,0.899c-0.006,0.491 -0.081,0.934 -0.223,1.329c-0.153,0.422 -0.388,0.784 -0.701,1.091c-0.306,0.299 -0.66,0.517 -1.061,0.657c-0.379,0.132 -0.799,0.189 -1.26,0.181Z" style="fill:#1d1d1b;"/><path d="M314.85,31.675l-0.114,0.466c-0,-0 -0.24,1.085 -0.24,1.085l-0.114,0.667l-0.035,0.432c-0.003,0.625 0.185,1.083 0.524,1.389c0.315,0.284 0.776,0.443 1.394,0.445c0.238,0.001 0.475,-0.018 0.71,-0.057c0.231,-0.038 0.461,-0.096 0.69,-0.173c0.248,-0.084 0.507,-0.201 0.778,-0.353c0.225,-0.126 0.457,-0.276 0.698,-0.451c0.279,-0.201 0.579,-0.443 0.9,-0.724c0.264,-0.231 0.543,-0.49 0.836,-0.776c0.348,-0.339 0.729,-0.728 1.143,-1.166c0.344,-0.365 0.711,-0.764 1.101,-1.198c0.097,-0.109 0.123,-0.264 0.067,-0.399l-0.613,-1.491c-0.051,-0.122 -0.161,-0.21 -0.292,-0.233l-0.712,-0.127c-0.118,-0.021 -0.239,0.014 -0.328,0.094l-0.886,0.757l-0.065,0.054l0.293,-1.641c-0,-0 0.499,-2.747 0.499,-2.747c0,-0 0.531,-2.899 0.531,-2.899c0,-0 0.516,-2.872 0.516,-2.872c0,-0 1.215,-6.636 1.215,-6.636c0.018,-0.095 -0.006,-0.193 -0.066,-0.268l-0.498,-0.618c-0.068,-0.084 -0.173,-0.13 -0.281,-0.122l-2.445,0.194c-0,0 -2.288,0.132 -2.288,0.132c-0.394,0.02 -0.774,0.037 -1.14,0.048c-0.396,0.012 -0.776,0.019 -1.138,0.02c-0.151,-0 -0.28,0.111 -0.301,0.26l-0.365,2.543c-0.013,0.085 0.013,0.172 0.069,0.237c0.056,0.065 0.138,0.103 0.225,0.103l0.868,-0.003c0.147,-0 0.275,0.013 0.382,0.043c0.105,0.028 0.187,0.071 0.241,0.138c0.062,0.078 0.089,0.195 0.1,0.344c0.011,0.136 0.004,0.294 -0.018,0.474c-0,0.002 -0.627,4.397 -0.627,4.397c0,-0 -1.77,-0.499 -1.77,-0.499c-0.025,-0.007 -0.05,-0.011 -0.075,-0.011c-0.525,0.001 -1.047,0.087 -1.569,0.259c-0.473,0.157 -0.944,0.385 -1.415,0.686c-0.494,0.315 -0.961,0.68 -1.403,1.092c-0.421,0.393 -0.819,0.83 -1.192,1.312c-0.387,0.498 -0.737,1.03 -1.05,1.595c-0.303,0.545 -0.571,1.121 -0.805,1.728c-0.236,0.61 -0.414,1.222 -0.534,1.835c-0.124,0.634 -0.187,1.269 -0.188,1.906c-0.001,0.747 0.09,1.416 0.27,2.007c0.216,0.706 0.559,1.302 1.027,1.79c0.466,0.486 1.035,0.844 1.706,1.072c0.576,0.196 1.229,0.296 1.96,0.298c0.062,-0 0.123,-0.02 0.174,-0.057c0.365,-0.26 0.726,-0.57 1.085,-0.93c0.314,-0.315 0.626,-0.668 0.936,-1.06c0.297,-0.376 0.611,-0.814 0.944,-1.313c0.22,-0.332 0.449,-0.692 0.685,-1.078Zm4.802,-0.688c0.069,0.052 0.153,0.08 0.24,0.08l0.093,-0c0.046,-0.001 0.117,-0.007 0.201,-0.051c0.044,-0.022 0.125,-0.077 0.234,-0.175l0.432,-0.361c-0,0 0.768,-0.668 0.768,-0.668c0,0 0.322,0.055 0.322,0.055c-0,-0 0.45,1.068 0.45,1.068c-0.322,0.363 -0.628,0.701 -0.918,1.013c-0.402,0.434 -0.772,0.819 -1.111,1.155c-0.281,0.278 -0.548,0.53 -0.801,0.756c-0.3,0.267 -0.581,0.496 -0.842,0.689c-0.216,0.158 -0.425,0.295 -0.626,0.411c-0.229,0.13 -0.447,0.232 -0.657,0.304c-0.191,0.067 -0.384,0.117 -0.579,0.151c-0.196,0.034 -0.394,0.052 -0.593,0.053c-0.411,0.001 -0.727,-0.075 -0.938,-0.262c-0.214,-0.19 -0.305,-0.488 -0.307,-0.88l0.027,-0.343c0,-0 0.103,-0.635 0.103,-0.635c0,0 0.225,-1.054 0.225,-1.054c0,0 0.397,-1.674 0.397,-1.674c0.023,-0.096 0.001,-0.197 -0.06,-0.275c-0.061,-0.078 -0.155,-0.123 -0.253,-0.123l-0.31,0.001c-0.115,0 -0.222,0.062 -0.279,0.161c-0.433,0.762 -0.843,1.437 -1.228,2.025c-0.319,0.485 -0.62,0.911 -0.906,1.277c-0.292,0.375 -0.586,0.713 -0.882,1.014c-0.306,0.311 -0.615,0.582 -0.926,0.814c-0.621,-0.007 -1.179,-0.091 -1.674,-0.257c-0.58,-0.194 -1.072,-0.498 -1.476,-0.915c-0.41,-0.423 -0.709,-0.942 -0.9,-1.556c-0.167,-0.541 -0.251,-1.154 -0.252,-1.839c-0.001,-0.601 0.056,-1.201 0.172,-1.8c0.112,-0.582 0.279,-1.164 0.501,-1.744c0.224,-0.582 0.48,-1.136 0.77,-1.66c0.299,-0.54 0.633,-1.049 1.002,-1.527c0.355,-0.458 0.731,-0.874 1.132,-1.248c0.417,-0.389 0.859,-0.732 1.326,-1.029c0.43,-0.273 0.861,-0.482 1.294,-0.624c0.451,-0.149 0.903,-0.225 1.357,-0.229c0,0 2.039,0.582 2.039,0.582c0.078,0.021 0.161,0.009 0.228,-0.035c0.068,-0.044 0.113,-0.114 0.125,-0.194l0.693,-4.716c0.036,-0.283 0.038,-0.523 0.011,-0.718c-0.032,-0.229 -0.106,-0.406 -0.209,-0.537c-0.103,-0.131 -0.244,-0.234 -0.427,-0.304c-0.175,-0.067 -0.393,-0.103 -0.654,-0.104c-0,-0 -0.524,-0.002 -0.524,-0.002c-0,0 0.29,-1.942 0.29,-1.942c0.288,-0.001 0.586,-0.006 0.894,-0.013c0.37,-0.01 0.754,-0.024 1.153,-0.043c0,0 2.297,-0.116 2.297,-0.116l2.282,-0.166c0,0 0.293,0.369 0.293,0.369l-1.238,6.485l-0.537,2.861l-1.078,5.638c0,0 -0.444,2.374 -0.444,2.374c-0.027,0.149 0.033,0.3 0.154,0.39l0.124,0.093Zm-7.2,0.421c0.136,-0.003 0.298,-0.048 0.468,-0.177c0.142,-0.107 0.308,-0.282 0.487,-0.532c0.122,-0.171 0.246,-0.363 0.372,-0.579c0.153,-0.263 0.311,-0.56 0.47,-0.892c0.148,-0.308 0.296,-0.638 0.443,-0.99c0.134,-0.317 0.268,-0.651 0.401,-1.003c0.14,-0.368 0.272,-0.737 0.398,-1.107c0.126,-0.373 0.246,-0.746 0.358,-1.121c0.038,-0.124 -0.015,-0.258 -0.127,-0.323l-0.771,-0.408c-0.121,-0.054 -0.247,-0.105 -0.376,-0.154c-0.124,-0.047 -0.251,-0.091 -0.383,-0.133c-0.145,-0.047 -0.294,-0.082 -0.448,-0.105c-0.148,-0.022 -0.299,-0.034 -0.455,-0.034c-0.116,-0.001 -0.236,0.039 -0.355,0.134c-0.111,0.089 -0.229,0.239 -0.346,0.456c-0.075,0.141 -0.147,0.301 -0.217,0.479c-0.084,0.215 -0.164,0.458 -0.239,0.729c-0.07,0.251 -0.133,0.517 -0.189,0.798c-0.052,0.256 -0.098,0.524 -0.138,0.804c-0.042,0.292 -0.074,0.585 -0.098,0.878c-0.024,0.294 -0.039,0.588 -0.045,0.883c-0.007,0.336 0.001,0.638 0.021,0.906c0.017,0.232 0.045,0.44 0.082,0.623c0.068,0.343 0.176,0.564 0.277,0.677c0.124,0.141 0.268,0.19 0.41,0.191Zm0.119,-0.786c0.058,0.012 0.104,0.033 0.061,0.061c-0.028,0.018 -0.046,-0.011 -0.061,-0.061Zm0.733,-6.219c0.123,-0 0.243,0.008 0.36,0.024c0.125,0.018 0.246,0.045 0.364,0.082c0.121,0.038 0.24,0.079 0.354,0.122c0.116,0.044 0.228,0.091 0.336,0.141c0.001,-0 0.529,0.287 0.529,0.287c-0.096,0.293 -0.197,0.585 -0.304,0.875c-0.132,0.36 -0.273,0.718 -0.421,1.074c-0.142,0.34 -0.283,0.662 -0.425,0.967c-0.155,0.335 -0.311,0.648 -0.467,0.941c-0.133,0.252 -0.263,0.481 -0.392,0.689c-0.15,0.243 -0.297,0.455 -0.44,0.637c-0.079,0.101 -0.181,0.167 -0.261,0.221c-0.005,-0.032 -0.012,-0.063 -0.019,-0.092c-0.038,-0.154 -0.069,-0.329 -0.092,-0.525c-0.029,-0.246 -0.046,-0.524 -0.053,-0.835c-0.005,-0.28 -0.003,-0.56 0.01,-0.841c0.012,-0.279 0.034,-0.559 0.064,-0.839c0.029,-0.269 0.064,-0.526 0.105,-0.773c0.045,-0.266 0.098,-0.519 0.157,-0.759c0.051,-0.206 0.105,-0.395 0.163,-0.567c0.068,-0.201 0.14,-0.377 0.218,-0.53c0.052,-0.102 0.102,-0.185 0.153,-0.244c0.022,-0.025 0.065,-0.035 0.061,-0.055Z" style="fill:#1d1d1b;"/><path d="M326.429,36.12c0.559,-0.01 1.065,-0.103 1.519,-0.279c0.495,-0.193 0.929,-0.479 1.3,-0.867c0.373,-0.389 0.648,-0.845 0.82,-1.37c0.151,-0.461 0.227,-0.974 0.219,-1.542c-0.005,-0.402 -0.063,-0.762 -0.171,-1.081c-0.127,-0.376 -0.322,-0.697 -0.588,-0.962c-0.267,-0.268 -0.593,-0.464 -0.981,-0.587c-0.32,-0.102 -0.683,-0.154 -1.09,-0.153c-0.554,-0.001 -1.054,0.082 -1.504,0.245c-0.496,0.179 -0.931,0.457 -1.304,0.833c-0.379,0.379 -0.658,0.827 -0.842,1.342c-0.165,0.459 -0.252,0.972 -0.261,1.541c-0.007,0.403 0.041,0.764 0.138,1.085c0.117,0.39 0.309,0.721 0.571,0.997c0.22,0.232 0.491,0.414 0.812,0.547c0.379,0.157 0.833,0.241 1.362,0.251Zm-0,-0.8c-0.345,0.007 -0.651,-0.024 -0.919,-0.098c-0.297,-0.083 -0.546,-0.214 -0.74,-0.406c-0.194,-0.19 -0.338,-0.423 -0.431,-0.699c-0.087,-0.258 -0.133,-0.55 -0.138,-0.877c-0.007,-0.493 0.051,-0.941 0.184,-1.343c0.143,-0.433 0.368,-0.813 0.677,-1.137c0.307,-0.321 0.667,-0.562 1.082,-0.717c0.391,-0.147 0.829,-0.219 1.313,-0.22c0.344,0.001 0.651,0.045 0.921,0.134c0.296,0.097 0.544,0.251 0.746,0.459c0.199,0.207 0.343,0.457 0.434,0.747c0.084,0.266 0.121,0.566 0.116,0.899c-0.006,0.491 -0.081,0.934 -0.223,1.329c-0.153,0.422 -0.388,0.784 -0.701,1.091c-0.306,0.299 -0.66,0.517 -1.061,0.657c-0.379,0.132 -0.799,0.189 -1.26,0.181Z" style="fill:#1d1d1b;"/></g><path d="M267.421,35.924c0.07,-0.166 0.141,-0.341 0.229,-0.516c0.056,-0.111 0.116,-0.222 0.184,-0.328c0.067,-0.105 0.143,-0.205 0.221,-0.303c0.118,-0.148 0.246,-0.283 0.375,-0.415c0.07,-0.085 0.058,-0.211 -0.027,-0.281c-0.084,-0.071 -0.211,-0.059 -0.281,0.026c-0.111,0.159 -0.213,0.326 -0.316,0.496c-0.067,0.11 -0.132,0.222 -0.201,0.331c-0.07,0.11 -0.143,0.216 -0.214,0.322c-0.113,0.167 -0.224,0.326 -0.324,0.483c-0.051,0.098 -0.013,0.219 0.084,0.27c0.098,0.051 0.219,0.013 0.27,-0.085Z" style="fill:#1d1d1b;"/><path d="M266.34,35.759c0.054,-0.174 0.105,-0.32 0.176,-0.452c0.051,-0.096 0.108,-0.187 0.176,-0.274c0.066,-0.083 0.142,-0.161 0.227,-0.246c0.107,-0.108 0.231,-0.219 0.372,-0.354c0.072,-0.084 0.063,-0.21 -0.021,-0.282c-0.083,-0.072 -0.209,-0.063 -0.282,0.021c-0.092,0.13 -0.173,0.245 -0.25,0.35c-0.062,0.083 -0.118,0.16 -0.174,0.232c-0.052,0.068 -0.102,0.132 -0.151,0.195c-0.051,0.066 -0.102,0.131 -0.152,0.198c-0.099,0.135 -0.193,0.278 -0.29,0.457c-0.043,0.102 0.005,0.219 0.107,0.262c0.102,0.043 0.219,-0.005 0.262,-0.107Z" style="fill:#1d1d1b;"/><path d="M265.568,35.415c0.025,-0.139 0.065,-0.283 0.124,-0.428c0.039,-0.094 0.083,-0.188 0.133,-0.281c0.029,-0.055 0.06,-0.109 0.094,-0.163c0.051,-0.08 0.106,-0.158 0.162,-0.233c0.156,-0.208 0.321,-0.396 0.452,-0.566c0.061,-0.093 0.035,-0.217 -0.058,-0.277c-0.092,-0.061 -0.216,-0.035 -0.276,0.057c-0.084,0.152 -0.179,0.322 -0.285,0.5c-0.065,0.109 -0.131,0.222 -0.2,0.333c-0.058,0.093 -0.118,0.185 -0.175,0.276c-0.061,0.097 -0.119,0.191 -0.173,0.286c-0.074,0.132 -0.137,0.262 -0.184,0.392c-0.029,0.106 0.035,0.216 0.141,0.245c0.107,0.028 0.217,-0.035 0.245,-0.141Z" style="fill:#1d1d1b;"/><path d="M264.795,34.737c-0.069,-0.232 0.019,-0.522 0.167,-0.811c0.034,-0.067 0.072,-0.132 0.113,-0.197c0.062,-0.096 0.131,-0.189 0.201,-0.279c0.213,-0.27 0.438,-0.504 0.573,-0.674c0.063,-0.091 0.04,-0.216 -0.051,-0.279c-0.091,-0.063 -0.215,-0.04 -0.278,0.051c-0.081,0.135 -0.199,0.313 -0.331,0.51c-0.075,0.112 -0.152,0.229 -0.229,0.348c-0.064,0.098 -0.128,0.197 -0.189,0.296c-0.065,0.104 -0.126,0.207 -0.18,0.309c-0.15,0.286 -0.226,0.567 -0.186,0.816c0.025,0.107 0.132,0.174 0.24,0.15c0.107,-0.025 0.174,-0.133 0.15,-0.24Z" style="fill:#1d1d1b;"/><path d="M265.066,31.79c-0.042,0.036 -0.101,0.083 -0.168,0.19c-0.168,0.256 -0.31,0.496 -0.451,0.728c-0.101,0.165 -0.201,0.325 -0.299,0.489c-0.156,0.263 -0.312,0.531 -0.463,0.84c-0.043,0.101 0.005,0.219 0.107,0.262c0.102,0.042 0.219,-0.006 0.262,-0.107c0.08,-0.232 0.16,-0.444 0.251,-0.646c0.064,-0.142 0.131,-0.28 0.206,-0.414c0.075,-0.133 0.157,-0.262 0.247,-0.392c0.126,-0.182 0.27,-0.361 0.424,-0.554c0.053,-0.065 0.096,-0.088 0.127,-0.108c0.03,-0.021 0.053,-0.043 0.074,-0.066c0.043,-0.047 0.07,-0.108 0.08,-0.227c0.002,-0.11 -0.086,-0.202 -0.196,-0.204c-0.111,-0.001 -0.202,0.087 -0.204,0.197c0,0.003 0.002,0.008 0.003,0.012Zm0,0c-0.003,0.003 -0.005,0.006 -0,0.006c0.002,0.001 0.002,-0.002 0,-0.006Z" style="fill:#1d1d1b;"/><path d="M263.956,32.25c0.079,-0.033 0.021,-0.3 0.054,-0.374c0.014,-0.031 0.136,-0.199 0.307,-0.407c0.047,-0.058 0.098,-0.117 0.152,-0.177c0.103,-0.113 0.214,-0.228 0.323,-0.338c0.198,-0.199 0.389,-0.373 0.504,-0.471c0.08,-0.077 0.082,-0.203 0.005,-0.283c-0.076,-0.079 -0.203,-0.081 -0.283,-0.005c-0.105,0.116 -0.272,0.326 -0.456,0.553c-0.098,0.121 -0.2,0.246 -0.299,0.364c-0.052,0.062 -0.104,0.121 -0.155,0.177c-0.206,0.228 -0.366,0.404 -0.385,0.437c-0.057,0.091 -0.142,0.328 -0.163,0.48c-0.016,0.121 0.028,0.21 0.066,0.256c0.076,0.079 0.203,0.081 0.283,0.005c0.059,-0.058 0.075,-0.144 0.047,-0.217Z" style="fill:#1d1d1b;"/><path d="M263.49,31.185c0.054,-0.058 0.121,-0.175 0.208,-0.291c0.094,-0.119 0.187,-0.239 0.287,-0.354c0.067,-0.077 0.136,-0.152 0.206,-0.226c0.106,-0.111 0.216,-0.218 0.326,-0.325c0.167,-0.161 0.336,-0.319 0.501,-0.482c0.074,-0.083 0.066,-0.209 -0.017,-0.283c-0.082,-0.073 -0.209,-0.066 -0.282,0.017c-0.197,0.251 -0.395,0.5 -0.604,0.741c-0.105,0.122 -0.212,0.241 -0.321,0.358c-0.111,0.118 -0.225,0.231 -0.335,0.349c-0.167,0.171 -0.291,0.242 -0.343,0.302c-0.044,0.051 -0.057,0.104 -0.063,0.157c-0.008,0.066 0.018,0.147 0.111,0.258c0.077,0.079 0.203,0.082 0.283,0.005c0.062,-0.06 0.077,-0.152 0.043,-0.226Z" style="fill:#1d1d1b;"/><path d="M268.469,43.111c0.091,-0.185 0.179,-0.378 0.281,-0.569c0.065,-0.122 0.133,-0.244 0.21,-0.36c0.077,-0.116 0.163,-0.225 0.251,-0.329c0.135,-0.159 0.281,-0.299 0.434,-0.425c0.079,-0.077 0.081,-0.204 0.005,-0.283c-0.077,-0.08 -0.204,-0.082 -0.283,-0.005c-0.097,0.11 -0.187,0.227 -0.275,0.35c-0.093,0.13 -0.181,0.266 -0.27,0.405c-0.037,0.058 -0.074,0.115 -0.112,0.173c-0.077,0.114 -0.154,0.227 -0.231,0.339c-0.119,0.172 -0.239,0.337 -0.354,0.499c-0.056,0.095 -0.025,0.218 0.07,0.275c0.095,0.056 0.218,0.025 0.274,-0.07Z" style="fill:#1d1d1b;"/><path d="M269.577,43.115c0.139,-0.093 0.282,-0.22 0.425,-0.372c0.095,-0.1 0.19,-0.209 0.286,-0.323c0.09,-0.107 0.18,-0.218 0.271,-0.327c0.11,-0.132 0.221,-0.262 0.327,-0.388c0.182,-0.218 0.352,-0.418 0.487,-0.577c0.066,-0.088 0.048,-0.214 -0.04,-0.28c-0.088,-0.066 -0.214,-0.048 -0.28,0.04c-0.14,0.212 -0.314,0.497 -0.519,0.784c-0.071,0.1 -0.146,0.2 -0.225,0.296c-0.053,0.064 -0.108,0.125 -0.164,0.185c-0.095,0.102 -0.193,0.198 -0.291,0.285c-0.162,0.143 -0.326,0.256 -0.477,0.331c-0.096,0.055 -0.128,0.177 -0.073,0.273c0.055,0.096 0.177,0.128 0.273,0.073Z" style="fill:#1d1d1b;"/><path d="M271.215,42.783c0.146,-0.121 0.281,-0.249 0.411,-0.385c0.102,-0.107 0.2,-0.217 0.297,-0.328c0.096,-0.11 0.189,-0.223 0.285,-0.334c0.113,-0.131 0.228,-0.262 0.343,-0.392c0.171,-0.194 0.346,-0.384 0.523,-0.57c0.072,-0.084 0.061,-0.21 -0.023,-0.282c-0.084,-0.071 -0.21,-0.06 -0.282,0.024c-0.196,0.259 -0.377,0.53 -0.572,0.791c-0.077,0.103 -0.156,0.205 -0.239,0.302c-0.055,0.065 -0.113,0.128 -0.172,0.189c-0.097,0.102 -0.199,0.199 -0.305,0.292c-0.156,0.136 -0.323,0.257 -0.501,0.369c-0.089,0.065 -0.109,0.19 -0.044,0.279c0.064,0.09 0.189,0.11 0.279,0.045Z" style="fill:#1d1d1b;"/><path d="M272.95,43.081c0.132,-0.194 0.241,-0.358 0.354,-0.506c0.086,-0.112 0.17,-0.217 0.262,-0.317c0.09,-0.098 0.187,-0.191 0.293,-0.292c0.134,-0.127 0.285,-0.259 0.461,-0.42c0.076,-0.081 0.072,-0.208 -0.009,-0.283c-0.081,-0.075 -0.207,-0.071 -0.283,0.009c-0.149,0.186 -0.272,0.344 -0.391,0.486c-0.095,0.113 -0.182,0.218 -0.271,0.317c-0.094,0.103 -0.189,0.2 -0.289,0.304c-0.133,0.136 -0.276,0.278 -0.439,0.453c-0.069,0.086 -0.055,0.212 0.031,0.281c0.087,0.068 0.213,0.054 0.281,-0.032Z" style="fill:#1d1d1b;"/><path d="M274.449,42.959c0.086,-0.166 0.166,-0.33 0.258,-0.488c0.062,-0.105 0.125,-0.208 0.197,-0.306c0.072,-0.096 0.152,-0.186 0.235,-0.274c0.121,-0.129 0.255,-0.245 0.397,-0.36c0.079,-0.077 0.081,-0.204 0.005,-0.283c-0.077,-0.08 -0.204,-0.082 -0.283,-0.005c-0.085,0.099 -0.164,0.199 -0.241,0.3c-0.086,0.115 -0.167,0.23 -0.248,0.345c-0.035,0.05 -0.07,0.098 -0.106,0.147c-0.072,0.096 -0.145,0.191 -0.219,0.286c-0.109,0.141 -0.221,0.278 -0.332,0.422c-0.06,0.093 -0.033,0.217 0.06,0.277c0.093,0.059 0.217,0.032 0.277,-0.061Z" style="fill:#1d1d1b;"/><path d="M275.859,43.02c0.094,-0.114 0.182,-0.231 0.277,-0.345c0.062,-0.075 0.124,-0.149 0.192,-0.219c0.068,-0.069 0.141,-0.132 0.214,-0.196c0.11,-0.094 0.224,-0.18 0.339,-0.27c0.079,-0.076 0.082,-0.203 0.005,-0.282c-0.077,-0.08 -0.204,-0.082 -0.283,-0.005c-0.095,0.114 -0.184,0.23 -0.278,0.344c-0.062,0.075 -0.124,0.15 -0.191,0.22c-0.068,0.069 -0.14,0.134 -0.213,0.197c-0.11,0.095 -0.224,0.18 -0.34,0.269c-0.079,0.076 -0.081,0.203 -0.005,0.282c0.077,0.08 0.204,0.082 0.283,0.005Z" style="fill:#1d1d1b;"/><path d="M282.572,35.665c0.055,-0.134 0.116,-0.265 0.188,-0.393c0.048,-0.086 0.1,-0.17 0.155,-0.253c0.034,-0.05 0.067,-0.099 0.104,-0.147c0.054,-0.072 0.112,-0.142 0.17,-0.212c0.151,-0.178 0.307,-0.348 0.448,-0.531c0.061,-0.093 0.034,-0.217 -0.058,-0.277c-0.093,-0.06 -0.217,-0.034 -0.277,0.059c-0.118,0.217 -0.247,0.43 -0.387,0.637c-0.034,0.05 -0.068,0.1 -0.105,0.149c-0.055,0.073 -0.112,0.145 -0.169,0.217c-0.15,0.186 -0.298,0.368 -0.423,0.566c-0.051,0.098 -0.013,0.219 0.084,0.27c0.098,0.051 0.219,0.013 0.27,-0.085Z" style="fill:#1d1d1b;"/><path d="M281.416,35.567c-0.001,-0.121 0.015,-0.238 0.055,-0.351c0.041,-0.119 0.098,-0.236 0.169,-0.347c0.064,-0.101 0.138,-0.199 0.217,-0.292c0.2,-0.238 0.42,-0.457 0.572,-0.704c0.051,-0.098 0.013,-0.219 -0.085,-0.27c-0.098,-0.051 -0.219,-0.013 -0.27,0.085c-0.071,0.168 -0.168,0.332 -0.278,0.493c-0.075,0.109 -0.154,0.218 -0.234,0.325c-0.069,0.093 -0.14,0.183 -0.205,0.276c-0.07,0.099 -0.135,0.199 -0.189,0.304c-0.074,0.142 -0.125,0.29 -0.151,0.451c-0.008,0.11 0.075,0.206 0.185,0.214c0.11,0.009 0.206,-0.074 0.214,-0.184Z" style="fill:#1d1d1b;"/><path d="M280.312,35.771c0.074,-0.271 0.132,-0.527 0.207,-0.772c0.052,-0.168 0.108,-0.331 0.181,-0.488c0.071,-0.153 0.158,-0.299 0.26,-0.442c0.138,-0.193 0.31,-0.373 0.521,-0.554c0.08,-0.076 0.082,-0.203 0.005,-0.282c-0.077,-0.08 -0.203,-0.082 -0.283,-0.005c-0.284,0.306 -0.477,0.61 -0.631,0.92c-0.04,0.08 -0.077,0.159 -0.114,0.239c-0.055,0.119 -0.108,0.239 -0.159,0.361c-0.122,0.284 -0.237,0.577 -0.366,0.895c-0.035,0.105 0.021,0.219 0.126,0.254c0.104,0.035 0.218,-0.021 0.253,-0.126Z" style="fill:#1d1d1b;"/><path d="M279.714,35.144c0.043,-0.193 0.106,-0.383 0.199,-0.563c0.062,-0.121 0.133,-0.239 0.216,-0.349c0.083,-0.11 0.177,-0.212 0.274,-0.311c0.15,-0.152 0.311,-0.286 0.467,-0.416c0.08,-0.077 0.082,-0.204 0.005,-0.283c-0.077,-0.079 -0.203,-0.082 -0.283,-0.005c-0.169,0.189 -0.336,0.394 -0.498,0.607c-0.063,0.084 -0.126,0.168 -0.188,0.253c-0.042,0.056 -0.085,0.113 -0.126,0.169c-0.07,0.097 -0.136,0.195 -0.199,0.295c-0.098,0.157 -0.183,0.318 -0.25,0.487c-0.032,0.105 0.028,0.217 0.133,0.249c0.106,0.032 0.218,-0.027 0.25,-0.133Z" style="fill:#1d1d1b;"/><path d="M278.956,35.042c0.105,-0.214 0.203,-0.435 0.312,-0.656c0.07,-0.144 0.141,-0.287 0.22,-0.427c0.079,-0.139 0.165,-0.273 0.253,-0.405c0.132,-0.199 0.275,-0.388 0.421,-0.572c0.063,-0.091 0.04,-0.216 -0.05,-0.278c-0.091,-0.063 -0.216,-0.041 -0.279,0.05c-0.149,0.249 -0.283,0.511 -0.421,0.773c-0.054,0.103 -0.109,0.206 -0.165,0.307c-0.038,0.068 -0.078,0.134 -0.117,0.2c-0.067,0.111 -0.134,0.22 -0.202,0.328c-0.105,0.165 -0.212,0.323 -0.318,0.48c-0.055,0.095 -0.023,0.218 0.073,0.273c0.095,0.055 0.218,0.023 0.273,-0.073Z" style="fill:#1d1d1b;"/><path d="M278.688,34.028c0.038,-0.205 0.096,-0.4 0.183,-0.584c0.059,-0.127 0.128,-0.249 0.208,-0.364c0.081,-0.116 0.174,-0.223 0.27,-0.328c0.146,-0.159 0.304,-0.305 0.46,-0.454c0.074,-0.082 0.068,-0.208 -0.014,-0.283c-0.082,-0.074 -0.208,-0.067 -0.282,0.014c-0.114,0.147 -0.226,0.295 -0.336,0.445c-0.074,0.1 -0.146,0.202 -0.218,0.304c-0.061,0.085 -0.121,0.171 -0.179,0.257c-0.06,0.088 -0.118,0.176 -0.174,0.266c-0.121,0.196 -0.226,0.4 -0.305,0.624c-0.028,0.106 0.035,0.216 0.141,0.245c0.107,0.028 0.217,-0.035 0.246,-0.142Z" style="fill:#1d1d1b;"/><path d="M293.974,35.417c0.057,-0.165 0.121,-0.325 0.203,-0.479c0.056,-0.104 0.116,-0.206 0.184,-0.302c0.069,-0.098 0.146,-0.19 0.223,-0.282c0.118,-0.141 0.241,-0.275 0.359,-0.416c0.063,-0.091 0.04,-0.215 -0.051,-0.278c-0.091,-0.063 -0.215,-0.04 -0.278,0.051c-0.121,0.208 -0.244,0.414 -0.373,0.617c-0.032,0.049 -0.064,0.098 -0.098,0.146c-0.051,0.072 -0.103,0.144 -0.155,0.215c-0.135,0.183 -0.267,0.364 -0.379,0.564c-0.045,0.101 0,0.219 0.101,0.264c0.1,0.046 0.219,0.001 0.264,-0.1Z" style="fill:#1d1d1b;"/><path d="M292.306,35.704c0.081,-0.19 0.163,-0.388 0.263,-0.582c0.064,-0.125 0.132,-0.25 0.21,-0.368c0.078,-0.117 0.165,-0.228 0.255,-0.334c0.137,-0.162 0.288,-0.305 0.443,-0.433c0.079,-0.077 0.081,-0.204 0.004,-0.283c-0.076,-0.079 -0.203,-0.082 -0.282,-0.005c-0.146,0.163 -0.279,0.345 -0.407,0.537c-0.057,0.085 -0.113,0.172 -0.169,0.259c-0.056,0.085 -0.112,0.171 -0.168,0.256c-0.068,0.103 -0.136,0.205 -0.204,0.306c-0.103,0.157 -0.205,0.31 -0.3,0.462c-0.051,0.098 -0.013,0.219 0.085,0.27c0.098,0.051 0.218,0.013 0.27,-0.085Z" style="fill:#1d1d1b;"/><path d="M291.437,35.722c0.063,-0.181 0.124,-0.359 0.201,-0.533c0.051,-0.116 0.105,-0.229 0.169,-0.338c0.063,-0.108 0.137,-0.21 0.213,-0.309c0.114,-0.147 0.241,-0.281 0.375,-0.413c0.072,-0.083 0.063,-0.21 -0.021,-0.282c-0.083,-0.072 -0.21,-0.063 -0.282,0.021c-0.079,0.109 -0.151,0.22 -0.221,0.334c-0.079,0.126 -0.152,0.253 -0.225,0.382c-0.03,0.055 -0.062,0.11 -0.094,0.164c-0.064,0.107 -0.129,0.215 -0.193,0.323c-0.097,0.162 -0.194,0.321 -0.287,0.487c-0.045,0.1 0,0.219 0.101,0.264c0.1,0.045 0.219,0 0.264,-0.1Z" style="fill:#1d1d1b;"/><path d="M290.488,35.675c0.02,-0.118 0.07,-0.268 0.143,-0.428c0.043,-0.097 0.093,-0.196 0.145,-0.294c0.026,-0.05 0.054,-0.098 0.082,-0.146c0.071,-0.121 0.14,-0.239 0.195,-0.352c0.068,-0.139 0.11,-0.27 0.124,-0.388c0.002,-0.11 -0.086,-0.202 -0.197,-0.203c-0.11,-0.002 -0.201,0.086 -0.203,0.196c0.011,0.159 -0.053,0.367 -0.149,0.58c-0.021,0.049 -0.045,0.098 -0.071,0.145c-0.04,0.073 -0.083,0.143 -0.126,0.212c-0.139,0.217 -0.271,0.415 -0.329,0.574c-0.029,0.107 0.034,0.217 0.141,0.245c0.106,0.029 0.216,-0.034 0.245,-0.141Z" style="fill:#1d1d1b;"/><path d="M289.428,35.649c0.082,-0.206 0.166,-0.405 0.263,-0.597c0.067,-0.131 0.136,-0.259 0.213,-0.383c0.077,-0.125 0.162,-0.245 0.247,-0.365c0.128,-0.18 0.262,-0.356 0.393,-0.54c0.057,-0.094 0.027,-0.218 -0.068,-0.275c-0.094,-0.057 -0.217,-0.027 -0.274,0.067c-0.102,0.2 -0.202,0.394 -0.308,0.586c-0.073,0.129 -0.144,0.258 -0.222,0.384c-0.077,0.127 -0.159,0.251 -0.241,0.376c-0.122,0.187 -0.246,0.373 -0.363,0.571c-0.048,0.1 -0.007,0.219 0.092,0.268c0.1,0.048 0.22,0.007 0.268,-0.092Z" style="fill:#1d1d1b;"/><path d="M288.483,34.633c0.07,-0.171 0.135,-0.324 0.215,-0.465c0.057,-0.101 0.117,-0.197 0.186,-0.288c0.068,-0.091 0.146,-0.175 0.227,-0.262c0.113,-0.119 0.239,-0.236 0.376,-0.37c0.071,-0.084 0.061,-0.21 -0.023,-0.282c-0.084,-0.072 -0.21,-0.062 -0.282,0.022c-0.154,0.215 -0.283,0.403 -0.409,0.583c-0.034,0.047 -0.067,0.094 -0.102,0.139c-0.052,0.07 -0.104,0.138 -0.158,0.206c-0.128,0.164 -0.256,0.331 -0.385,0.532c-0.051,0.098 -0.013,0.219 0.085,0.27c0.098,0.051 0.219,0.013 0.27,-0.085Z" style="fill:#1d1d1b;"/><path d="M288.07,33.818c0.038,-0.148 0.069,-0.292 0.114,-0.432c0.03,-0.092 0.063,-0.183 0.107,-0.269c0.053,-0.105 0.123,-0.2 0.199,-0.291c0.073,-0.085 0.159,-0.158 0.253,-0.231c0.079,-0.077 0.082,-0.204 0.005,-0.283c-0.077,-0.08 -0.203,-0.082 -0.283,-0.005c-0.11,0.131 -0.197,0.265 -0.273,0.406c-0.036,0.065 -0.069,0.131 -0.102,0.198c-0.033,0.065 -0.065,0.13 -0.099,0.195c-0.039,0.076 -0.078,0.153 -0.118,0.231c-0.058,0.112 -0.117,0.223 -0.177,0.34c-0.039,0.103 0.013,0.219 0.117,0.258c0.103,0.039 0.218,-0.014 0.257,-0.117Z" style="fill:#1d1d1b;"/><path d="M287.301,33.094c0.025,-0.136 0.05,-0.268 0.096,-0.395c0.03,-0.085 0.065,-0.169 0.111,-0.247c0.057,-0.096 0.13,-0.181 0.208,-0.264c0.075,-0.08 0.161,-0.149 0.252,-0.218c0.08,-0.077 0.082,-0.203 0.005,-0.283c-0.077,-0.079 -0.203,-0.081 -0.283,-0.005c-0.135,0.161 -0.244,0.329 -0.342,0.503c-0.023,0.042 -0.047,0.084 -0.071,0.125c-0.037,0.062 -0.073,0.124 -0.109,0.186c-0.092,0.155 -0.177,0.312 -0.25,0.481c-0.032,0.106 0.028,0.218 0.134,0.25c0.105,0.032 0.217,-0.027 0.249,-0.133Z" style="fill:#1d1d1b;"/><path d="M286.781,32.283c0.042,-0.126 0.074,-0.247 0.12,-0.365c0.03,-0.078 0.062,-0.154 0.103,-0.225c0.051,-0.087 0.115,-0.165 0.185,-0.24c0.065,-0.07 0.141,-0.129 0.224,-0.191c0.08,-0.077 0.082,-0.203 0.005,-0.283c-0.077,-0.079 -0.203,-0.082 -0.283,-0.005c-0.06,0.077 -0.113,0.151 -0.163,0.229c-0.056,0.088 -0.105,0.176 -0.154,0.265c-0.02,0.038 -0.041,0.075 -0.063,0.112c-0.043,0.073 -0.086,0.145 -0.131,0.217c-0.065,0.105 -0.134,0.206 -0.204,0.315c-0.047,0.099 -0.005,0.219 0.095,0.266c0.099,0.048 0.219,0.005 0.266,-0.095Z" style="fill:#1d1d1b;"/><path d="M303.067,35.54c-0.008,-0.12 0.012,-0.25 0.06,-0.384c0.032,-0.09 0.071,-0.18 0.118,-0.27c0.053,-0.1 0.111,-0.199 0.175,-0.294c0.168,-0.253 0.351,-0.49 0.452,-0.72c0.037,-0.104 -0.018,-0.219 -0.122,-0.255c-0.104,-0.037 -0.219,0.018 -0.255,0.122c-0.04,0.152 -0.107,0.317 -0.193,0.483c-0.055,0.108 -0.115,0.218 -0.178,0.324c-0.054,0.092 -0.111,0.181 -0.165,0.269c-0.059,0.098 -0.113,0.193 -0.16,0.287c-0.072,0.147 -0.116,0.291 -0.132,0.431c-0.002,0.111 0.086,0.202 0.197,0.204c0.11,0.002 0.201,-0.086 0.203,-0.197Z" style="fill:#1d1d1b;"/><path d="M301.967,35.701c0.032,-0.172 0.084,-0.366 0.163,-0.564c0.049,-0.122 0.105,-0.246 0.17,-0.365c0.066,-0.12 0.141,-0.233 0.217,-0.343c0.123,-0.179 0.254,-0.34 0.37,-0.483c0.063,-0.091 0.04,-0.216 -0.051,-0.278c-0.09,-0.063 -0.215,-0.041 -0.278,0.05c-0.092,0.159 -0.188,0.34 -0.289,0.531c-0.062,0.117 -0.123,0.237 -0.187,0.355c-0.054,0.1 -0.109,0.197 -0.163,0.294c-0.056,0.102 -0.11,0.201 -0.16,0.299c-0.072,0.14 -0.132,0.274 -0.178,0.4c-0.029,0.107 0.035,0.216 0.141,0.245c0.107,0.029 0.217,-0.035 0.245,-0.141Z" style="fill:#1d1d1b;"/><path d="M301.301,35.554c0.061,-0.151 0.136,-0.3 0.221,-0.446c0.057,-0.1 0.117,-0.198 0.179,-0.296c0.053,-0.084 0.106,-0.166 0.158,-0.249c0.055,-0.086 0.108,-0.172 0.156,-0.26c0.112,-0.206 0.19,-0.42 0.212,-0.654c0.002,-0.111 -0.086,-0.202 -0.196,-0.204c-0.111,-0.002 -0.202,0.086 -0.204,0.197c0.008,0.121 -0,0.238 -0.03,0.353c-0.032,0.122 -0.078,0.241 -0.137,0.357c-0.029,0.056 -0.06,0.111 -0.094,0.165c-0.052,0.082 -0.109,0.161 -0.168,0.239c-0.157,0.206 -0.324,0.403 -0.454,0.616c-0.05,0.098 -0.011,0.219 0.088,0.269c0.098,0.05 0.219,0.011 0.269,-0.087Z" style="fill:#1d1d1b;"/><path d="M300.295,35.244c0.076,-0.156 0.147,-0.312 0.227,-0.466c0.053,-0.102 0.107,-0.204 0.167,-0.301c0.061,-0.098 0.127,-0.192 0.194,-0.286c0.101,-0.141 0.207,-0.276 0.311,-0.415c0.057,-0.094 0.028,-0.218 -0.067,-0.275c-0.094,-0.058 -0.217,-0.028 -0.275,0.066c-0.076,0.156 -0.148,0.312 -0.228,0.466c-0.053,0.102 -0.106,0.203 -0.166,0.302c-0.06,0.098 -0.126,0.192 -0.192,0.286c-0.101,0.141 -0.208,0.276 -0.312,0.414c-0.058,0.095 -0.028,0.218 0.066,0.275c0.094,0.058 0.217,0.028 0.275,-0.066Z" style="fill:#1d1d1b;"/><path d="M299.746,34.946c0.06,-0.198 0.1,-0.344 0.141,-0.464c0.039,-0.117 0.072,-0.209 0.111,-0.3c0.039,-0.089 0.084,-0.176 0.143,-0.286c0.06,-0.111 0.137,-0.24 0.24,-0.419c0.045,-0.101 0,-0.219 -0.101,-0.264c-0.1,-0.046 -0.219,-0.001 -0.264,0.1c-0.066,0.196 -0.111,0.341 -0.153,0.46c-0.042,0.118 -0.076,0.211 -0.115,0.302c-0.039,0.091 -0.082,0.18 -0.139,0.291c-0.057,0.113 -0.132,0.243 -0.232,0.425c-0.043,0.101 0.005,0.219 0.107,0.262c0.102,0.042 0.219,-0.006 0.262,-0.107Z" style="fill:#1d1d1b;"/><path d="M311.818,35.652c0.04,-0.095 0.141,-0.265 0.27,-0.458c0.068,-0.1 0.141,-0.205 0.216,-0.31c0.038,-0.052 0.076,-0.102 0.115,-0.153c0.098,-0.128 0.192,-0.252 0.268,-0.367c0.11,-0.168 0.174,-0.323 0.186,-0.442c0.002,-0.11 -0.086,-0.202 -0.196,-0.204c-0.111,-0.001 -0.202,0.087 -0.204,0.197c0.008,0.144 -0.107,0.377 -0.257,0.617c-0.032,0.051 -0.066,0.103 -0.103,0.153c-0.055,0.075 -0.114,0.149 -0.174,0.218c-0.207,0.243 -0.403,0.448 -0.476,0.564c-0.051,0.097 -0.013,0.218 0.085,0.269c0.098,0.051 0.219,0.014 0.27,-0.084Z" style="fill:#1d1d1b;"/><path d="M310.678,35.937c0.072,-0.166 0.187,-0.359 0.324,-0.559c0.084,-0.121 0.174,-0.245 0.264,-0.367c0.046,-0.062 0.093,-0.122 0.139,-0.182c0.119,-0.154 0.231,-0.304 0.318,-0.449c0.11,-0.182 0.176,-0.358 0.191,-0.518c0.002,-0.111 -0.086,-0.202 -0.197,-0.204c-0.11,-0.002 -0.201,0.086 -0.203,0.197c0.01,0.218 -0.124,0.488 -0.304,0.764c-0.039,0.062 -0.082,0.123 -0.127,0.182c-0.067,0.09 -0.139,0.178 -0.211,0.263c-0.213,0.25 -0.423,0.483 -0.549,0.688c-0.051,0.098 -0.013,0.219 0.085,0.27c0.098,0.051 0.219,0.013 0.27,-0.085Z" style="fill:#1d1d1b;"/><path d="M310.18,35.562c0.01,-0.155 0.041,-0.321 0.09,-0.49c0.023,-0.078 0.049,-0.157 0.077,-0.234c0.029,-0.078 0.061,-0.156 0.093,-0.232c0.119,-0.272 0.229,-0.529 0.252,-0.766c0.002,-0.11 -0.086,-0.201 -0.196,-0.203c-0.111,-0.002 -0.202,0.086 -0.204,0.196c0.008,0.097 0.004,0.2 -0.017,0.31c-0.02,0.107 -0.048,0.218 -0.084,0.33c-0.017,0.053 -0.035,0.106 -0.056,0.159c-0.031,0.08 -0.066,0.158 -0.101,0.236c-0.1,0.218 -0.198,0.428 -0.249,0.63c-0.018,0.109 0.057,0.212 0.166,0.23c0.109,0.017 0.211,-0.057 0.229,-0.166Z" style="fill:#1d1d1b;"/><path d="M309.206,35.383c0.064,-0.163 0.124,-0.327 0.188,-0.49c0.042,-0.107 0.085,-0.214 0.131,-0.32c0.031,-0.07 0.062,-0.14 0.096,-0.208c0.052,-0.102 0.11,-0.2 0.167,-0.298c0.093,-0.147 0.257,-0.263 0.359,-0.403c0.067,-0.093 0.106,-0.196 0.117,-0.311c0.002,-0.111 -0.086,-0.202 -0.196,-0.204c-0.111,-0.002 -0.202,0.086 -0.204,0.197c0.004,0.065 -0.019,0.124 -0.056,0.18c-0.087,0.134 -0.21,0.259 -0.276,0.401c-0.056,0.109 -0.106,0.22 -0.161,0.33c-0.054,0.108 -0.111,0.215 -0.169,0.322c-0.114,0.213 -0.234,0.42 -0.356,0.629c-0.048,0.099 -0.007,0.219 0.092,0.267c0.1,0.048 0.219,0.007 0.268,-0.092Z" style="fill:#1d1d1b;"/><path d="M308.624,34.7c0.008,-0.158 0.028,-0.304 0.07,-0.442c0.031,-0.099 0.068,-0.193 0.113,-0.284c0.027,-0.056 0.057,-0.111 0.09,-0.164c0.051,-0.08 0.107,-0.157 0.166,-0.232c0.147,-0.187 0.314,-0.365 0.475,-0.564c0.063,-0.09 0.04,-0.215 -0.051,-0.278c-0.09,-0.063 -0.215,-0.04 -0.278,0.051c-0.088,0.151 -0.175,0.295 -0.264,0.435c-0.063,0.1 -0.124,0.198 -0.185,0.295c-0.053,0.083 -0.105,0.166 -0.156,0.25c-0.051,0.085 -0.101,0.172 -0.148,0.261c-0.099,0.188 -0.178,0.389 -0.228,0.619c-0.015,0.11 0.062,0.21 0.172,0.225c0.109,0.014 0.21,-0.063 0.224,-0.172Z" style="fill:#1d1d1b;"/><path d="M307.604,34.148c0.088,-0.177 0.168,-0.35 0.258,-0.516c0.061,-0.113 0.124,-0.223 0.194,-0.329c0.07,-0.106 0.148,-0.206 0.228,-0.305c0.118,-0.145 0.246,-0.282 0.38,-0.424c0.069,-0.085 0.056,-0.211 -0.03,-0.281c-0.086,-0.069 -0.212,-0.055 -0.281,0.03c-0.114,0.168 -0.215,0.334 -0.317,0.499c-0.069,0.111 -0.135,0.223 -0.207,0.331c-0.071,0.108 -0.146,0.213 -0.222,0.319c-0.111,0.156 -0.228,0.308 -0.345,0.47c-0.057,0.095 -0.027,0.218 0.068,0.275c0.094,0.057 0.217,0.026 0.274,-0.069Z" style="fill:#1d1d1b;"/><path d="M307.33,33.445c0.034,-0.181 0.053,-0.316 0.075,-0.428c0.022,-0.11 0.04,-0.196 0.064,-0.275c0.026,-0.084 0.059,-0.16 0.105,-0.254c0.047,-0.098 0.114,-0.209 0.207,-0.366c0.046,-0.1 0.001,-0.219 -0.1,-0.264c-0.101,-0.045 -0.219,-0 -0.265,0.1c-0.075,0.231 -0.115,0.379 -0.151,0.506c-0.02,0.073 -0.038,0.137 -0.058,0.205c-0.012,0.042 -0.026,0.085 -0.043,0.132c-0.021,0.062 -0.046,0.131 -0.079,0.213c-0.035,0.088 -0.081,0.187 -0.137,0.312c-0.033,0.105 0.026,0.218 0.132,0.25c0.105,0.033 0.217,-0.026 0.25,-0.131Z" style="fill:#1d1d1b;"/><path d="M318.346,35.366c0.135,-0.184 0.264,-0.372 0.4,-0.556c0.09,-0.123 0.181,-0.244 0.276,-0.363c0.096,-0.118 0.197,-0.231 0.298,-0.345c0.151,-0.171 0.307,-0.337 0.459,-0.507c0.068,-0.087 0.052,-0.213 -0.035,-0.281c-0.087,-0.067 -0.213,-0.052 -0.281,0.036c-0.126,0.188 -0.25,0.378 -0.382,0.563c-0.087,0.123 -0.175,0.246 -0.27,0.364c-0.095,0.118 -0.195,0.23 -0.297,0.342c-0.154,0.168 -0.314,0.327 -0.473,0.489c-0.071,0.084 -0.061,0.21 0.023,0.282c0.084,0.071 0.211,0.061 0.282,-0.024Z" style="fill:#1d1d1b;"/><path d="M317.308,35.634c0.092,-0.171 0.17,-0.313 0.244,-0.432c0.067,-0.107 0.128,-0.197 0.184,-0.273c0.064,-0.086 0.121,-0.157 0.173,-0.221c0.067,-0.083 0.126,-0.155 0.181,-0.235c0.098,-0.143 0.18,-0.306 0.278,-0.581c0.028,-0.107 -0.035,-0.217 -0.142,-0.245c-0.106,-0.029 -0.216,0.034 -0.245,0.141c-0.066,0.346 -0.125,0.506 -0.247,0.688c-0.032,0.048 -0.068,0.098 -0.11,0.151c-0.053,0.067 -0.113,0.139 -0.185,0.224c-0.122,0.143 -0.275,0.317 -0.465,0.564c-0.061,0.092 -0.035,0.216 0.058,0.277c0.092,0.06 0.216,0.034 0.276,-0.058Z" style="fill:#1d1d1b;"/><path d="M315.893,35.848c0.148,-0.195 0.326,-0.406 0.521,-0.621c0.122,-0.133 0.248,-0.268 0.376,-0.402c0.064,-0.067 0.129,-0.133 0.194,-0.199c0.156,-0.159 0.309,-0.318 0.446,-0.479c0.138,-0.161 0.261,-0.323 0.359,-0.486c0.051,-0.098 0.013,-0.219 -0.085,-0.27c-0.098,-0.051 -0.219,-0.013 -0.27,0.085c-0.138,0.302 -0.356,0.613 -0.61,0.909c-0.058,0.069 -0.119,0.136 -0.182,0.201c-0.095,0.099 -0.193,0.195 -0.292,0.287c-0.273,0.255 -0.546,0.49 -0.761,0.715c-0.072,0.084 -0.062,0.21 0.022,0.282c0.084,0.072 0.21,0.062 0.282,-0.022Z" style="fill:#1d1d1b;"/><path d="M316.386,32.792l0.004,0.002c0.014,0.005 0.005,0.026 -0.013,0.055c-0.001,0.03 0.005,0.06 0.019,0.089c-0.005,-0.009 -0.02,-0.042 -0.03,-0.074l0.006,-0.009l0.005,-0.006c-0,-0.02 0.003,-0.039 0.009,-0.057c-0.038,-0.012 -0.033,0.029 -0.02,0.072c-0.021,0.03 -0.05,0.068 -0.074,0.105c-0.095,0.152 -0.234,0.364 -0.394,0.591c-0.09,0.126 -0.185,0.257 -0.283,0.384c-0.1,0.13 -0.203,0.256 -0.298,0.375c-0.204,0.254 -0.373,0.473 -0.444,0.605c-0.046,0.101 -0.002,0.219 0.098,0.265c0.101,0.046 0.22,0.002 0.266,-0.098c0.048,-0.126 0.17,-0.345 0.33,-0.592c0.082,-0.126 0.171,-0.259 0.268,-0.39c0.094,-0.129 0.195,-0.256 0.292,-0.375c0.178,-0.218 0.347,-0.412 0.462,-0.552c0.084,-0.103 0.141,-0.181 0.162,-0.222c0.049,-0.093 0.019,-0.164 0.006,-0.195c-0.048,-0.099 -0.167,-0.141 -0.267,-0.094c-0.052,0.025 -0.088,0.07 -0.104,0.121Z" style="fill:#1d1d1b;"/><path d="M315.29,33.976c0.06,-0.142 0.1,-0.245 0.142,-0.329c0.042,-0.083 0.077,-0.145 0.117,-0.202c0.043,-0.061 0.091,-0.114 0.152,-0.182c0.064,-0.07 0.144,-0.149 0.252,-0.265c0.064,-0.09 0.043,-0.215 -0.046,-0.279c-0.09,-0.064 -0.215,-0.043 -0.279,0.046c-0.074,0.138 -0.124,0.237 -0.171,0.318c-0.048,0.08 -0.087,0.143 -0.13,0.206c-0.042,0.06 -0.088,0.12 -0.149,0.197c-0.059,0.076 -0.133,0.162 -0.232,0.286c-0.056,0.094 -0.025,0.217 0.07,0.274c0.095,0.056 0.218,0.025 0.274,-0.07Z" style="fill:#1d1d1b;"/><path d="M328.054,35.453c0.067,-0.005 0.136,-0.019 0.204,-0.058c0.131,-0.075 0.27,-0.226 0.397,-0.424c0.053,-0.082 0.105,-0.171 0.157,-0.262c0.049,-0.086 0.098,-0.174 0.146,-0.261c0.207,-0.369 0.364,-0.733 0.377,-0.875c0.002,-0.11 -0.086,-0.201 -0.197,-0.203c-0.11,-0.002 -0.201,0.086 -0.203,0.196c0.005,0.101 -0.057,0.353 -0.169,0.625c-0.037,0.092 -0.08,0.185 -0.129,0.274c-0.046,0.083 -0.098,0.162 -0.152,0.235c-0.087,0.119 -0.182,0.218 -0.272,0.289c-0.054,0.043 -0.106,0.069 -0.152,0.064c-0.11,-0.002 -0.201,0.086 -0.203,0.197c-0.002,0.11 0.086,0.201 0.196,0.203Z" style="fill:#1d1d1b;"/><path d="M327.018,35.44c0.039,-0.119 0.135,-0.302 0.259,-0.506c0.068,-0.11 0.142,-0.226 0.218,-0.341c0.038,-0.057 0.077,-0.113 0.116,-0.169c0.101,-0.141 0.197,-0.277 0.274,-0.404c0.108,-0.178 0.172,-0.341 0.184,-0.469c0.002,-0.11 -0.086,-0.202 -0.196,-0.203c-0.111,-0.002 -0.202,0.086 -0.204,0.196c0.009,0.164 -0.11,0.419 -0.265,0.685c-0.033,0.057 -0.068,0.113 -0.106,0.169c-0.056,0.084 -0.117,0.165 -0.177,0.243c-0.203,0.263 -0.395,0.494 -0.472,0.644c-0.043,0.102 0.005,0.219 0.107,0.262c0.102,0.043 0.219,-0.005 0.262,-0.107Z" style="fill:#1d1d1b;"/><path d="M326.005,35.569c0.062,-0.156 0.12,-0.311 0.186,-0.465c0.044,-0.101 0.089,-0.202 0.141,-0.3c0.052,-0.099 0.11,-0.193 0.168,-0.287c0.088,-0.142 0.181,-0.279 0.273,-0.419c0.051,-0.098 0.013,-0.219 -0.085,-0.27c-0.098,-0.051 -0.219,-0.013 -0.27,0.085c-0.063,0.155 -0.121,0.31 -0.188,0.463c-0.044,0.102 -0.088,0.203 -0.139,0.302c-0.051,0.098 -0.108,0.193 -0.166,0.287c-0.088,0.143 -0.183,0.278 -0.275,0.419c-0.051,0.097 -0.013,0.218 0.085,0.269c0.098,0.051 0.219,0.013 0.27,-0.084Z" style="fill:#1d1d1b;"/><path d="M324.908,35.476c0.097,-0.181 0.211,-0.359 0.335,-0.535c0.084,-0.118 0.17,-0.236 0.256,-0.352c0.075,-0.1 0.148,-0.199 0.219,-0.298c0.074,-0.105 0.145,-0.209 0.208,-0.316c0.149,-0.25 0.25,-0.514 0.273,-0.806c0.002,-0.11 -0.086,-0.201 -0.197,-0.203c-0.11,-0.002 -0.201,0.086 -0.203,0.196c0.012,0.317 -0.092,0.61 -0.257,0.888c-0.04,0.068 -0.084,0.135 -0.132,0.201c-0.071,0.097 -0.148,0.192 -0.229,0.285c-0.21,0.245 -0.435,0.478 -0.612,0.728c-0.059,0.094 -0.03,0.217 0.063,0.275c0.094,0.059 0.218,0.03 0.276,-0.063Z" style="fill:#1d1d1b;"/><path d="M324.477,34.274c-0.012,-0.194 0.008,-0.373 0.068,-0.54c0.043,-0.119 0.1,-0.234 0.172,-0.34c0.074,-0.107 0.162,-0.205 0.253,-0.3c0.142,-0.147 0.297,-0.279 0.445,-0.417c0.075,-0.081 0.069,-0.208 -0.012,-0.282c-0.081,-0.075 -0.208,-0.07 -0.282,0.011c-0.154,0.195 -0.311,0.39 -0.457,0.592c-0.061,0.083 -0.12,0.166 -0.176,0.251c-0.039,0.058 -0.077,0.115 -0.113,0.174c-0.062,0.101 -0.115,0.205 -0.162,0.315c-0.069,0.163 -0.116,0.336 -0.136,0.529c-0.002,0.11 0.087,0.202 0.197,0.203c0.11,0.002 0.201,-0.086 0.203,-0.196Z" style="fill:#1d1d1b;"/></g><g id="Icon_gluehbirne"></g></svg>