<?xml version="1.0" encoding="UTF-8" standalone="no"?>
<!DOCTYPE svg PUBLIC "-//W3C//DTD SVG 1.1//EN" "http://www.w3.org/Graphics/SVG/1.1/DTD/svg11.dtd">
<svg width="100%" viewBox="0 0 596 57" version="1.1" xmlns="http://www.w3.org/2000/svg" xmlns:xlink="http://www.w3.org/1999/xlink" xml:space="preserve" xmlns:serif="http://www.serif.com/" style="fill-rule:evenodd;clip-rule:evenodd;stroke-linecap:round;stroke-linejoin:round;stroke-miterlimit:1.5;"><g id="Start"><g><path d="M213.501,28.497c-45.923,0.173 -67.608,0.345 -113.53,-0c-1.753,-0.013 -3.771,-0.143 -5.149,-1.075c-0.755,-0.51 -1.708,-0.738 -2.618,-0.785c-1.476,-0.077 -2.108,1.233 -1.986,2.291c0.121,1.053 1.392,1.825 2.444,1.702c3.599,-0.421 2.358,-5.586 0.414,-6.743c-2.937,-1.749 -6.291,-2.473 -9.71,-2.487c-4.267,-0.019 -8.271,1.242 -12.576,2.39c-7.483,1.994 -15.168,3.886 -22.913,3.846c-3.037,-0.016 -7.049,-0.712 -8.183,-3.53c-0.758,-1.885 3.667,-3.236 5.646,-2.777c15.521,3.597 12.856,11.482 28.723,12.608c3.809,0.27 6.544,-1.057 6.301,-3.437c-0.286,-2.808 -4.297,-4.373 -7.119,-4.343c-13.486,0.146 -17.058,8.592 -28.968,7.289c-4.237,-0.464 -8.176,-2.046 -11.702,-4.916c-3.179,-2.587 -6.911,-6.164 -10.965,-5.564" style="fill:none;stroke:#1d1d1b;stroke-width:1px;"/><path d="M20.47,30.644c0.352,-0.353 0.779,-0.786 1.244,-1.076c0.293,-0.183 0.601,-0.308 0.915,-0.294c0.685,0.03 1.418,0.356 1.925,0.982c0.409,0.507 0.665,1.21 0.638,2.11c-0.031,1.023 -0.506,1.987 -1.358,2.622c-0.725,0.54 -1.72,0.836 -2.94,0.744c-1.447,-0.109 -2.834,-0.897 -3.799,-2.147c-0.848,-1.099 -1.368,-2.558 -1.321,-4.236c0.048,-1.737 0.758,-3.181 1.776,-4.204c1.155,-1.162 2.707,-1.783 4.125,-1.649c0.275,0.024 0.518,-0.18 0.542,-0.454c0.024,-0.275 -0.18,-0.518 -0.454,-0.542c-1.684,-0.135 -3.527,0.598 -4.876,1.995c-1.147,1.188 -1.942,2.848 -1.97,4.836c-0.025,1.888 0.586,3.518 1.558,4.74c1.121,1.41 2.718,2.278 4.37,2.378c1.417,0.087 2.562,-0.288 3.394,-0.926c1.003,-0.77 1.557,-1.924 1.576,-3.143c0.017,-1.072 -0.311,-1.901 -0.807,-2.497c-0.627,-0.753 -1.525,-1.137 -2.358,-1.162c-0.42,-0.012 -0.834,0.144 -1.223,0.394c-0.495,0.318 -0.95,0.786 -1.323,1.171c-0.099,0.101 -0.097,0.263 0.004,0.362c0.101,0.099 0.263,0.097 0.362,-0.004Z" style="fill:#1d1d1b;"/><path d="M89.181,25.719c-0.579,0.539 -1.249,1.023 -1.597,1.742c-0.214,0.442 -0.311,0.969 -0.203,1.645c0.172,1.063 0.909,2.082 1.878,2.815c0.964,0.729 2.157,1.166 3.228,1.111c1.208,-0.065 2.562,-0.394 3.595,-1.162c0.966,-0.718 1.66,-1.812 1.725,-3.425c0.1,-2.659 -1.973,-4.455 -4.76,-5.6c-3.819,-1.569 -8.954,-1.936 -10.947,-1.967c-1.044,-0.015 -2.084,0.082 -3.117,0.246c-1.517,0.241 -3.021,0.628 -4.504,1.009c-0.267,0.07 -0.428,0.343 -0.358,0.61c0.069,0.267 0.342,0.428 0.609,0.358c1.452,-0.38 2.923,-0.767 4.408,-1.01c0.978,-0.161 1.962,-0.258 2.95,-0.248c1.932,0.018 6.908,0.342 10.619,1.837c2.423,0.975 4.326,2.432 4.259,4.737c-0.036,1.318 -0.584,2.221 -1.362,2.82c-0.903,0.694 -2.097,0.996 -3.164,1.076c-0.923,0.072 -1.955,-0.297 -2.806,-0.903c-0.863,-0.616 -1.547,-1.474 -1.725,-2.397c-0.106,-0.548 -0.046,-0.981 0.116,-1.347c0.301,-0.678 0.918,-1.137 1.437,-1.656c0.08,-0.077 0.082,-0.206 0.005,-0.286c-0.078,-0.08 -0.206,-0.083 -0.286,-0.005Z" style="fill:#1d1d1b;"/><path d="M241.52,29.09c0.201,-0.143 0.433,-0.255 0.673,-0.311c0.229,-0.054 0.466,-0.054 0.687,0.028c0.973,0.359 1.558,1.075 2.327,1.554c0.358,0.224 0.752,0.398 1.227,0.482c0.515,0.091 1.114,-0.04 1.526,-0.336c0.337,-0.243 0.549,-0.594 0.543,-1.021c-0.006,-0.383 -0.23,-0.819 -0.559,-1.227c-0.406,-0.503 -0.968,-0.968 -1.356,-1.238c-1.981,-1.372 -3.598,-2.029 -5.335,-2.023c-1.587,0.005 -3.28,0.572 -5.455,1.696c-1.859,0.966 -3.814,2.204 -6.299,2.982c-1.324,0.414 -2.8,0.698 -4.498,0.732c-1.615,0.034 -3.152,-0.135 -4.638,-0.43c-3.161,-0.627 -6.089,-1.821 -9.019,-2.869c-3.065,-1.096 -6.132,-2.031 -9.449,-2.048c-1.387,-0.007 -2.735,0.171 -4.058,0.465c-5.11,1.133 -9.847,4.036 -15.201,4.191c-0.983,0.029 -2.27,-0.128 -3.536,-0.39c-1.268,-0.262 -2.515,-0.629 -3.415,-1.032c-2.495,-1.118 -5.561,-1.762 -8.645,-2.033c-3.127,-0.274 -6.272,-0.166 -8.847,0.208c-1.086,0.158 -2.152,0.331 -3.209,0.512c-2.473,0.423 -4.899,0.887 -7.436,1.287c-0.272,0.043 -0.459,0.299 -0.416,0.572c0.043,0.273 0.299,0.459 0.572,0.416c2.541,-0.399 4.972,-0.862 7.449,-1.284c1.05,-0.178 2.107,-0.35 3.185,-0.506c2.507,-0.363 5.569,-0.466 8.614,-0.197c2.966,0.261 5.918,0.874 8.318,1.951c0.955,0.428 2.277,0.823 3.624,1.102c1.35,0.279 2.723,0.441 3.772,0.41c5.418,-0.158 10.22,-3.068 15.391,-4.217c1.25,-0.278 2.523,-0.45 3.833,-0.444c3.201,0.013 6.158,0.927 9.118,1.98c2.976,1.06 5.954,2.262 9.165,2.89c1.554,0.304 3.162,0.474 4.85,0.432c1.799,-0.047 3.361,-0.353 4.76,-0.804c2.536,-0.816 4.526,-2.101 6.418,-3.109c2.015,-1.08 3.581,-1.65 5.061,-1.68c1.602,-0.033 3.095,0.57 4.945,1.801c0.355,0.235 0.87,0.64 1.246,1.083c0.238,0.281 0.43,0.569 0.44,0.837c0.011,0.285 -0.184,0.495 -0.436,0.63c-0.277,0.147 -0.625,0.21 -0.933,0.163c-0.402,-0.061 -0.737,-0.204 -1.044,-0.384c-0.806,-0.475 -1.436,-1.186 -2.45,-1.529c-0.305,-0.104 -0.629,-0.101 -0.941,-0.018c-0.29,0.076 -0.569,0.219 -0.808,0.4c-0.09,0.066 -0.11,0.192 -0.044,0.282c0.066,0.091 0.193,0.11 0.283,0.044Z" style="fill:#1d1d1b;"/><path d="M252.826,29.78c-0.316,0.38 -0.699,0.845 -1.13,1.139c-0.277,0.189 -0.573,0.306 -0.885,0.248c-0.582,-0.107 -1.28,-0.469 -1.736,-0.951c-0.305,-0.322 -0.505,-0.697 -0.441,-1.088c0.144,-0.882 0.318,-1.79 0.867,-2.46c0.445,-0.545 1.144,-0.919 2.274,-0.999c1.431,-0.101 2.541,0.465 3.338,1.255c1.04,1.03 1.557,2.438 1.544,3.249c-0.027,1.876 -0.891,3.252 -2.136,4.168c-1.308,0.961 -3.03,1.421 -4.653,1.433c-1.635,0.012 -3.3,-0.393 -4.803,-1.344c-1.284,-0.813 -2.449,-2.024 -3.379,-3.71c-0.858,-1.552 -2.083,-2.807 -3.326,-3.774c-1.774,-1.382 -3.585,-2.177 -4.399,-2.435c-1.972,-0.625 -5.151,-0.748 -8.586,-0.272c-2.747,0.38 -5.658,1.141 -8.241,2.319c-3.577,1.631 -6.549,2.613 -8.887,3.205c-3.705,0.938 -5.806,0.889 -6.178,0.899c-1.279,0.037 -2.536,-0.111 -3.779,-0.372c-5.05,-1.064 -9.888,-3.957 -15.069,-4.39c-1.526,-0.127 -3.053,0.019 -4.566,0.325c-2.195,0.445 -4.36,1.229 -6.447,1.987c-0.26,0.094 -0.394,0.381 -0.299,0.64c0.094,0.26 0.381,0.394 0.64,0.299c2.041,-0.744 4.157,-1.517 6.303,-1.955c1.421,-0.29 2.855,-0.433 4.288,-0.316c5.141,0.421 9.941,3.301 14.954,4.346c1.317,0.275 2.649,0.426 4.003,0.384c0.385,-0.012 2.555,0.035 6.38,-0.942c2.378,-0.608 5.401,-1.613 9.036,-3.281c2.502,-1.149 5.323,-1.893 7.985,-2.271c3.281,-0.466 6.32,-0.382 8.208,0.207c0.767,0.239 2.472,0.984 4.15,2.275c1.168,0.898 2.325,2.061 3.137,3.508c1.015,1.807 2.282,3.099 3.672,3.963c1.635,1.016 3.441,1.442 5.212,1.413c1.763,-0.029 3.627,-0.552 5.038,-1.609c1.387,-1.04 2.346,-2.59 2.358,-4.694c0.005,-0.917 -0.57,-2.514 -1.758,-3.666c-0.908,-0.881 -2.167,-1.507 -3.781,-1.377c-1.314,0.106 -2.114,0.573 -2.627,1.214c-0.594,0.742 -0.795,1.734 -0.943,2.703c-0.08,0.531 0.161,1.05 0.579,1.481c0.526,0.543 1.326,0.947 1.991,1.062c0.424,0.074 0.83,-0.069 1.202,-0.328c0.459,-0.32 0.868,-0.82 1.202,-1.231c0.071,-0.086 0.059,-0.214 -0.028,-0.284c-0.086,-0.071 -0.214,-0.059 -0.284,0.027Z" style="fill:#1d1d1b;"/></g><g><path d="M379.708,28.497c45.923,0.173 67.608,0.345 113.53,-0c1.753,-0.013 3.771,-0.143 5.149,-1.075c0.755,-0.51 1.708,-0.738 2.619,-0.785c1.475,-0.077 2.107,1.233 1.985,2.291c-0.12,1.053 -1.391,1.825 -2.444,1.702c-3.599,-0.421 -2.357,-5.586 -0.414,-6.743c2.937,-1.749 6.291,-2.473 9.71,-2.487c4.267,-0.019 8.271,1.242 12.576,2.39c7.483,1.994 15.169,3.886 22.913,3.846c3.037,-0.016 7.049,-0.712 8.183,-3.53c0.758,-1.885 -3.667,-3.236 -5.646,-2.777c-15.521,3.597 -12.856,11.482 -28.723,12.608c-3.809,0.27 -6.544,-1.057 -6.301,-3.437c0.286,-2.808 4.297,-4.373 7.119,-4.343c13.486,0.146 17.059,8.592 28.968,7.289c4.237,-0.464 8.176,-2.046 11.702,-4.916c3.179,-2.587 6.911,-6.164 10.966,-5.564" style="fill:none;stroke:#1d1d1b;stroke-width:1px;"/><path d="M573.105,30.286c-0.373,-0.385 -0.828,-0.853 -1.323,-1.171c-0.389,-0.25 -0.803,-0.406 -1.223,-0.394c-0.833,0.025 -1.731,0.409 -2.358,1.162c-0.496,0.596 -0.824,1.425 -0.807,2.497c0.019,1.219 0.573,2.373 1.576,3.143c0.832,0.638 1.977,1.013 3.394,0.926c1.652,-0.1 3.249,-0.968 4.37,-2.378c0.972,-1.222 1.583,-2.852 1.558,-4.74c-0.027,-1.988 -0.823,-3.648 -1.969,-4.836c-1.35,-1.397 -3.193,-2.13 -4.876,-1.995c-0.275,0.024 -0.479,0.267 -0.455,0.542c0.024,0.274 0.267,0.478 0.542,0.454c1.418,-0.134 2.971,0.487 4.125,1.649c1.018,1.023 1.728,2.467 1.776,4.204c0.047,1.678 -0.472,3.137 -1.321,4.236c-0.965,1.25 -2.352,2.038 -3.799,2.147c-1.22,0.092 -2.215,-0.204 -2.94,-0.744c-0.852,-0.635 -1.327,-1.599 -1.358,-2.622c-0.027,-0.9 0.229,-1.603 0.638,-2.11c0.507,-0.626 1.24,-0.952 1.925,-0.982c0.314,-0.014 0.622,0.111 0.915,0.294c0.466,0.29 0.893,0.723 1.245,1.076c0.098,0.101 0.261,0.103 0.361,0.004c0.101,-0.099 0.103,-0.261 0.004,-0.362Z" style="fill:#1d1d1b;"/><path d="M503.747,26.01c0.519,0.519 1.136,0.978 1.437,1.656c0.162,0.366 0.222,0.799 0.116,1.347c-0.177,0.923 -0.862,1.781 -1.725,2.397c-0.851,0.606 -1.883,0.975 -2.806,0.903c-1.067,-0.08 -2.261,-0.382 -3.164,-1.076c-0.778,-0.599 -1.326,-1.502 -1.362,-2.82c-0.067,-2.305 1.836,-3.762 4.259,-4.737c3.711,-1.495 8.687,-1.819 10.619,-1.837c0.988,-0.01 1.972,0.087 2.95,0.248c1.485,0.243 2.957,0.63 4.408,1.01c0.267,0.07 0.54,-0.091 0.609,-0.358c0.07,-0.267 -0.091,-0.54 -0.358,-0.61c-1.483,-0.381 -2.986,-0.768 -4.503,-1.009c-1.034,-0.164 -2.074,-0.261 -3.118,-0.246c-1.993,0.031 -7.128,0.398 -10.947,1.967c-2.787,1.145 -4.86,2.941 -4.76,5.6c0.065,1.613 0.759,2.707 1.725,3.425c1.034,0.768 2.387,1.097 3.595,1.162c1.072,0.055 2.264,-0.382 3.228,-1.111c0.969,-0.733 1.707,-1.752 1.878,-2.815c0.108,-0.676 0.011,-1.203 -0.203,-1.645c-0.348,-0.719 -1.018,-1.203 -1.597,-1.742c-0.08,-0.078 -0.208,-0.075 -0.286,0.005c-0.077,0.08 -0.075,0.209 0.005,0.286Z" style="fill:#1d1d1b;"/><path d="M351.928,28.764c-0.239,-0.181 -0.518,-0.324 -0.808,-0.4c-0.312,-0.083 -0.636,-0.086 -0.941,0.018c-1.014,0.343 -1.644,1.054 -2.45,1.529c-0.307,0.18 -0.642,0.323 -1.044,0.384c-0.308,0.047 -0.656,-0.016 -0.933,-0.163c-0.252,-0.135 -0.447,-0.345 -0.436,-0.63c0.011,-0.268 0.202,-0.556 0.44,-0.837c0.376,-0.443 0.891,-0.848 1.246,-1.083c1.85,-1.231 3.343,-1.834 4.945,-1.801c1.481,0.03 3.046,0.6 5.061,1.68c1.892,1.008 3.882,2.293 6.418,3.109c1.399,0.451 2.962,0.757 4.76,0.804c1.688,0.042 3.296,-0.128 4.85,-0.432c3.211,-0.628 6.189,-1.83 9.166,-2.89c2.959,-1.053 5.916,-1.967 9.117,-1.98c1.311,-0.006 2.583,0.166 3.833,0.444c5.171,1.149 9.973,4.059 15.391,4.217c1.049,0.031 2.422,-0.131 3.772,-0.41c1.347,-0.279 2.669,-0.674 3.624,-1.102c2.401,-1.077 5.352,-1.69 8.318,-1.951c3.045,-0.269 6.107,-0.166 8.614,0.197c1.078,0.156 2.135,0.328 3.185,0.506c2.477,0.422 4.908,0.885 7.449,1.284c0.273,0.043 0.529,-0.143 0.572,-0.416c0.043,-0.273 -0.143,-0.529 -0.416,-0.572c-2.536,-0.4 -4.963,-0.864 -7.436,-1.287c-1.057,-0.181 -2.123,-0.354 -3.209,-0.512c-2.575,-0.374 -5.72,-0.482 -8.847,-0.208c-3.084,0.271 -6.15,0.915 -8.645,2.033c-0.9,0.403 -2.147,0.77 -3.414,1.032c-1.266,0.262 -2.554,0.419 -3.537,0.39c-5.354,-0.155 -10.091,-3.058 -15.201,-4.191c-1.323,-0.294 -2.671,-0.472 -4.058,-0.465c-3.317,0.017 -6.384,0.952 -9.449,2.048c-2.93,1.048 -5.858,2.242 -9.018,2.869c-1.487,0.295 -3.024,0.464 -4.639,0.43c-1.698,-0.034 -3.174,-0.318 -4.498,-0.732c-2.484,-0.778 -4.44,-2.016 -6.299,-2.982c-2.175,-1.124 -3.868,-1.691 -5.455,-1.696c-1.737,-0.006 -3.354,0.651 -5.335,2.023c-0.388,0.27 -0.95,0.735 -1.356,1.238c-0.329,0.408 -0.553,0.844 -0.559,1.227c-0.006,0.427 0.206,0.778 0.543,1.021c0.412,0.296 1.012,0.427 1.526,0.336c0.475,-0.084 0.869,-0.258 1.227,-0.482c0.769,-0.479 1.354,-1.195 2.327,-1.554c0.221,-0.082 0.458,-0.082 0.687,-0.028c0.24,0.056 0.472,0.168 0.673,0.311c0.09,0.066 0.217,0.047 0.283,-0.044c0.066,-0.09 0.046,-0.216 -0.044,-0.282Z" style="fill:#1d1d1b;"/><path d="M340.071,30.037c0.334,0.411 0.743,0.911 1.202,1.231c0.373,0.259 0.778,0.402 1.202,0.328c0.665,-0.115 1.465,-0.519 1.991,-1.062c0.418,-0.431 0.659,-0.95 0.579,-1.481c-0.148,-0.969 -0.349,-1.961 -0.943,-2.703c-0.513,-0.641 -1.313,-1.108 -2.627,-1.214c-1.614,-0.13 -2.873,0.496 -3.781,1.377c-1.188,1.152 -1.762,2.749 -1.758,3.666c0.012,2.104 0.971,3.654 2.358,4.694c1.411,1.057 3.275,1.58 5.039,1.609c1.77,0.029 3.576,-0.397 5.212,-1.413c1.389,-0.864 2.656,-2.156 3.671,-3.963c0.812,-1.447 1.969,-2.61 3.137,-3.508c1.679,-1.291 3.383,-2.036 4.15,-2.275c1.888,-0.589 4.927,-0.673 8.208,-0.207c2.662,0.378 5.483,1.122 7.985,2.271c3.635,1.668 6.658,2.673 9.036,3.281c3.825,0.977 5.995,0.93 6.38,0.942c1.354,0.042 2.686,-0.109 4.003,-0.384c5.013,-1.045 9.813,-3.925 14.954,-4.346c1.433,-0.117 2.867,0.026 4.288,0.316c2.146,0.438 4.262,1.211 6.303,1.955c0.259,0.095 0.546,-0.039 0.64,-0.299c0.095,-0.259 -0.039,-0.546 -0.299,-0.64c-2.087,-0.758 -4.252,-1.542 -6.447,-1.987c-1.513,-0.306 -3.04,-0.452 -4.566,-0.325c-5.181,0.433 -10.018,3.326 -15.069,4.39c-1.243,0.261 -2.5,0.409 -3.779,0.372c-0.372,-0.01 -2.473,0.039 -6.178,-0.899c-2.338,-0.592 -5.31,-1.574 -8.886,-3.205c-2.584,-1.178 -5.495,-1.939 -8.241,-2.319c-3.436,-0.476 -6.615,-0.353 -8.587,0.272c-0.813,0.258 -2.624,1.053 -4.399,2.435c-1.243,0.967 -2.468,2.222 -3.326,3.774c-0.93,1.686 -2.095,2.897 -3.379,3.71c-1.503,0.951 -3.168,1.356 -4.803,1.344c-1.623,-0.012 -3.345,-0.472 -4.652,-1.433c-1.246,-0.916 -2.11,-2.292 -2.137,-4.168c-0.013,-0.811 0.504,-2.219 1.544,-3.249c0.797,-0.79 1.907,-1.356 3.338,-1.255c1.13,0.08 1.829,0.454 2.274,0.999c0.549,0.67 0.723,1.578 0.867,2.46c0.064,0.391 -0.136,0.766 -0.441,1.088c-0.456,0.482 -1.154,0.844 -1.736,0.951c-0.312,0.058 -0.608,-0.059 -0.885,-0.248c-0.431,-0.294 -0.814,-0.759 -1.129,-1.139c-0.071,-0.086 -0.199,-0.098 -0.285,-0.027c-0.087,0.07 -0.099,0.198 -0.028,0.284Z" style="fill:#1d1d1b;"/></g></g><g id="ICON_Warning"><g id="p"><path d="M297.435,11.342c-1.197,-1.522 -3.606,-2.038 -5.195,0.033c-3.475,4.529 -15.515,20.665 -17.459,23.537c-1.049,1.551 0.237,3.74 2.109,3.74c4.51,-0 32.03,0.095 37.784,-0.113c1.681,-0.06 2.753,-2.116 1.417,-3.746c-1.814,-2.212 -12.081,-15.098 -18.656,-23.451Z" style="fill:none;stroke:#1d1d1b;stroke-width:0.8px;"/><path d="M296.402,13.942c-0.961,-1.186 -1.82,-1.339 -3.068,0c-3.123,3.35 -12.904,16.955 -14.463,19.259c-0.032,0.047 -0.054,0.099 -0.087,0.142c-1.414,1.868 0.333,2.858 1.779,2.858c3.618,-0 25.695,0.076 30.311,-0.09c1.349,-0.049 2.859,-0.853 0.949,-3.167c-1.461,-1.769 -10.057,-12.372 -15.421,-19.002Z" style="fill:none;stroke:#1d1d1b;stroke-width:0.5px;"/><path d="M274.326,35.66c-0.116,1.148 -0.011,2.491 0.649,3.437c0.692,0.99 1.983,1.946 3.192,1.958c12.439,0.124 23.459,0.192 35.94,0.088c0.87,-0.008 1.58,-0.938 1.964,-1.719c0.41,-0.836 0.564,-2.094 0.485,-3.022" style="fill:none;stroke:#1d1d1b;stroke-width:0.75px;"/><path d="M293.361,27.698c0.101,0.838 0.497,1.493 1.257,1.497c0.744,0.004 1.302,-0.63 1.444,-1.455c0.336,-1.952 0.506,-8.101 0.64,-9.377c0.074,-0.71 -0.638,-1.942 -1.813,-1.947c-1.131,-0.004 -2.138,0.958 -2.084,1.749c0.108,1.591 0.313,7.51 0.556,9.533Z" style="fill:none;stroke:#1d1d1b;stroke-width:0.5px;"/><circle cx="294.639" cy="32.61" r="1.613" style="fill:none;stroke:#1d1d1b;stroke-width:0.5px;"/></g><g id="Ebene6"><path d="M294.626,29.115c0.103,-0.122 0.197,-0.249 0.297,-0.376c0.065,-0.083 0.129,-0.166 0.198,-0.246c0.068,-0.081 0.141,-0.158 0.212,-0.235c0.109,-0.119 0.217,-0.234 0.321,-0.356c0.063,-0.09 0.04,-0.215 -0.051,-0.278c-0.09,-0.063 -0.215,-0.04 -0.278,0.051c-0.074,0.134 -0.146,0.267 -0.231,0.395c-0.057,0.085 -0.115,0.169 -0.18,0.247c-0.066,0.078 -0.139,0.15 -0.213,0.219c-0.112,0.105 -0.232,0.198 -0.353,0.292c-0.079,0.076 -0.082,0.203 -0.005,0.282c0.077,0.08 0.203,0.082 0.283,0.005Z" style="fill:#1d1d1b;"/><path d="M294.053,28.38c0.145,-0.202 0.288,-0.403 0.44,-0.599c0.101,-0.131 0.204,-0.26 0.312,-0.385c0.108,-0.125 0.222,-0.244 0.337,-0.364c0.172,-0.18 0.349,-0.353 0.524,-0.531c0.072,-0.083 0.063,-0.21 -0.021,-0.282c-0.083,-0.072 -0.21,-0.063 -0.282,0.021c-0.15,0.198 -0.297,0.397 -0.451,0.593c-0.102,0.13 -0.205,0.26 -0.313,0.385c-0.108,0.126 -0.221,0.247 -0.335,0.367c-0.171,0.183 -0.347,0.358 -0.519,0.539c-0.07,0.085 -0.058,0.211 0.027,0.282c0.085,0.07 0.211,0.059 0.281,-0.026Z" style="fill:#1d1d1b;"/><path d="M294.08,27.544c0.07,-0.129 0.145,-0.259 0.229,-0.388c0.056,-0.085 0.114,-0.169 0.174,-0.253c0.036,-0.05 0.073,-0.1 0.111,-0.148c0.058,-0.074 0.118,-0.146 0.177,-0.217c0.161,-0.192 0.315,-0.378 0.438,-0.574c0.051,-0.098 0.013,-0.219 -0.084,-0.27c-0.098,-0.051 -0.219,-0.013 -0.27,0.084c-0.094,0.218 -0.215,0.437 -0.359,0.649c-0.034,0.051 -0.069,0.1 -0.107,0.149c-0.057,0.072 -0.116,0.143 -0.177,0.212c-0.16,0.183 -0.324,0.355 -0.465,0.535c-0.061,0.093 -0.036,0.217 0.056,0.278c0.092,0.06 0.216,0.035 0.277,-0.057Z" style="fill:#1d1d1b;"/><path d="M293.745,26.909c0.193,-0.235 0.38,-0.472 0.574,-0.705c0.128,-0.155 0.257,-0.31 0.391,-0.461c0.134,-0.15 0.273,-0.296 0.412,-0.443c0.208,-0.219 0.42,-0.433 0.631,-0.652c0.072,-0.084 0.063,-0.21 -0.021,-0.283c-0.084,-0.072 -0.21,-0.062 -0.282,0.021c-0.186,0.24 -0.368,0.479 -0.557,0.714c-0.126,0.157 -0.253,0.312 -0.386,0.463c-0.133,0.151 -0.272,0.296 -0.412,0.44c-0.21,0.216 -0.427,0.424 -0.644,0.635c-0.075,0.081 -0.07,0.208 0.011,0.283c0.081,0.074 0.208,0.069 0.283,-0.012Z" style="fill:#1d1d1b;"/><path d="M294.108,25.536c0.082,-0.131 0.164,-0.259 0.254,-0.383c0.06,-0.084 0.122,-0.166 0.186,-0.246c0.039,-0.049 0.078,-0.097 0.119,-0.144c0.062,-0.071 0.126,-0.14 0.19,-0.208c0.166,-0.176 0.332,-0.347 0.483,-0.532c0.063,-0.091 0.04,-0.215 -0.051,-0.278c-0.091,-0.063 -0.215,-0.04 -0.278,0.05c-0.095,0.165 -0.195,0.325 -0.307,0.48c-0.076,0.103 -0.153,0.206 -0.238,0.304c-0.084,0.098 -0.174,0.192 -0.265,0.286c-0.137,0.143 -0.278,0.281 -0.412,0.43c-0.066,0.088 -0.049,0.214 0.039,0.28c0.088,0.067 0.214,0.049 0.28,-0.039Z" style="fill:#1d1d1b;"/><path d="M295.382,22.508c-0.154,0.034 -0.309,0.581 -0.36,0.639c-0.1,0.111 -0.199,0.223 -0.301,0.332c-0.102,0.109 -0.206,0.216 -0.311,0.322c-0.127,0.127 -0.256,0.251 -0.386,0.374c-0.196,0.186 -0.394,0.366 -0.591,0.549c-0.077,0.08 -0.075,0.207 0.004,0.283c0.08,0.077 0.207,0.075 0.283,-0.005c0.177,-0.203 0.35,-0.408 0.529,-0.61c0.119,-0.134 0.238,-0.268 0.36,-0.399c0.102,-0.109 0.206,-0.216 0.311,-0.321c0.106,-0.106 0.215,-0.208 0.322,-0.312c0.073,-0.067 0.463,-0.533 0.542,-0.724c0.04,-0.097 0.018,-0.175 -0.003,-0.22c-0.033,-0.068 -0.095,-0.114 -0.196,-0.118c-0.11,-0.002 -0.201,0.086 -0.203,0.196c-0,0.005 -0,0.009 0,0.014Zm0.133,0.178c0.018,0.008 0.039,0.012 0.063,0.012c-0.022,-0.001 -0.043,-0.005 -0.063,-0.012Z" style="fill:#1d1d1b;"/><path d="M293.918,24.004c0.093,-0.143 0.272,-0.382 0.489,-0.655c0.11,-0.138 0.228,-0.284 0.351,-0.432c0.059,-0.071 0.12,-0.142 0.18,-0.212c0.149,-0.171 0.296,-0.338 0.426,-0.499c0.144,-0.177 0.268,-0.343 0.356,-0.489c0.051,-0.098 0.013,-0.219 -0.085,-0.27c-0.098,-0.051 -0.219,-0.013 -0.27,0.085c-0.12,0.262 -0.343,0.605 -0.599,0.942c-0.056,0.072 -0.113,0.145 -0.172,0.215c-0.09,0.107 -0.183,0.211 -0.274,0.309c-0.306,0.329 -0.59,0.606 -0.723,0.767c-0.066,0.089 -0.048,0.214 0.041,0.28c0.089,0.066 0.214,0.047 0.28,-0.041Z" style="fill:#1d1d1b;"/><path d="M293.588,23.414c0.205,-0.249 0.402,-0.504 0.607,-0.753c0.135,-0.166 0.271,-0.331 0.413,-0.49c0.142,-0.159 0.291,-0.312 0.442,-0.462c0.225,-0.226 0.459,-0.44 0.699,-0.649c0.079,-0.077 0.081,-0.204 0.004,-0.283c-0.076,-0.079 -0.203,-0.082 -0.282,-0.005c-0.267,0.284 -0.517,0.581 -0.77,0.877c-0.101,0.118 -0.202,0.235 -0.304,0.351c-0.068,0.077 -0.138,0.152 -0.208,0.228c-0.117,0.125 -0.234,0.249 -0.353,0.372c-0.179,0.185 -0.36,0.364 -0.543,0.544c-0.075,0.081 -0.069,0.208 0.012,0.282c0.082,0.075 0.208,0.069 0.283,-0.012Z" style="fill:#1d1d1b;"/><path d="M293.55,22.485c0.139,-0.171 0.316,-0.382 0.519,-0.614c0.113,-0.129 0.233,-0.264 0.358,-0.402c0.071,-0.078 0.144,-0.158 0.219,-0.237c0.111,-0.117 0.225,-0.233 0.339,-0.348c0.303,-0.306 0.603,-0.603 0.851,-0.876c0.071,-0.085 0.059,-0.211 -0.026,-0.281c-0.085,-0.071 -0.211,-0.059 -0.282,0.026c-0.183,0.244 -0.395,0.513 -0.625,0.781c-0.144,0.169 -0.292,0.339 -0.445,0.501c-0.158,0.168 -0.32,0.327 -0.474,0.477c-0.28,0.274 -0.539,0.514 -0.73,0.704c-0.074,0.082 -0.068,0.209 0.014,0.283c0.082,0.074 0.208,0.068 0.282,-0.014Z" style="fill:#1d1d1b;"/><path d="M293.794,21.71c0.183,-0.274 0.361,-0.55 0.547,-0.822c0.124,-0.18 0.249,-0.36 0.38,-0.536c0.13,-0.176 0.267,-0.347 0.404,-0.518c0.205,-0.257 0.416,-0.509 0.625,-0.764c0.066,-0.088 0.047,-0.214 -0.042,-0.279c-0.088,-0.066 -0.214,-0.047 -0.279,0.041c-0.183,0.274 -0.362,0.549 -0.549,0.821c-0.124,0.18 -0.247,0.361 -0.378,0.537c-0.13,0.176 -0.266,0.348 -0.402,0.519c-0.206,0.258 -0.418,0.508 -0.627,0.763c-0.066,0.088 -0.047,0.214 0.041,0.279c0.089,0.066 0.215,0.047 0.28,-0.041Z" style="fill:#1d1d1b;"/><path d="M293.918,20.412c0.149,-0.201 0.288,-0.408 0.436,-0.611c0.097,-0.133 0.195,-0.266 0.3,-0.393c0.105,-0.127 0.216,-0.247 0.33,-0.365c0.17,-0.176 0.349,-0.339 0.536,-0.497c0.079,-0.077 0.081,-0.203 0.005,-0.283c-0.077,-0.079 -0.204,-0.081 -0.283,-0.005c-0.206,0.225 -0.392,0.463 -0.58,0.703c-0.074,0.095 -0.148,0.189 -0.224,0.282c-0.051,0.062 -0.103,0.122 -0.155,0.183c-0.087,0.1 -0.174,0.199 -0.263,0.298c-0.133,0.147 -0.27,0.289 -0.407,0.431c-0.072,0.084 -0.061,0.21 0.024,0.282c0.084,0.071 0.21,0.06 0.281,-0.025Z" style="fill:#1d1d1b;"/><path d="M293.598,19.865c0.148,-0.191 0.304,-0.377 0.468,-0.558c0.112,-0.122 0.225,-0.242 0.339,-0.362c0.057,-0.06 0.115,-0.12 0.173,-0.179c0.139,-0.142 0.275,-0.285 0.4,-0.437c0.116,-0.139 0.223,-0.284 0.318,-0.439c0.051,-0.098 0.013,-0.219 -0.085,-0.27c-0.098,-0.051 -0.219,-0.013 -0.27,0.085c-0.135,0.3 -0.316,0.573 -0.528,0.826c-0.052,0.062 -0.105,0.122 -0.161,0.181c-0.085,0.088 -0.173,0.172 -0.263,0.255c-0.232,0.213 -0.472,0.413 -0.691,0.633c-0.073,0.083 -0.065,0.209 0.017,0.282c0.083,0.073 0.21,0.066 0.283,-0.017Z" style="fill:#1d1d1b;"/><path d="M293.786,18.876c0.094,-0.148 0.178,-0.299 0.27,-0.449c0.06,-0.097 0.121,-0.193 0.188,-0.285c0.068,-0.09 0.142,-0.175 0.218,-0.257c0.113,-0.122 0.236,-0.23 0.366,-0.333c0.079,-0.077 0.081,-0.204 0.005,-0.283c-0.077,-0.079 -0.204,-0.082 -0.283,-0.005c-0.142,0.163 -0.262,0.338 -0.384,0.517c-0.048,0.069 -0.095,0.138 -0.144,0.205c-0.033,0.045 -0.067,0.089 -0.102,0.132c-0.057,0.072 -0.115,0.143 -0.175,0.212c-0.088,0.104 -0.18,0.202 -0.274,0.301c-0.068,0.087 -0.052,0.213 0.035,0.28c0.087,0.068 0.213,0.052 0.28,-0.035Z" style="fill:#1d1d1b;"/><path d="M293.573,18.172c0.111,-0.151 0.216,-0.303 0.33,-0.452c0.076,-0.098 0.152,-0.195 0.234,-0.289c0.082,-0.093 0.17,-0.18 0.257,-0.268c0.133,-0.133 0.269,-0.258 0.404,-0.388c0.073,-0.083 0.064,-0.209 -0.019,-0.282c-0.083,-0.073 -0.209,-0.065 -0.282,0.018c-0.111,0.151 -0.217,0.303 -0.331,0.451c-0.076,0.099 -0.151,0.197 -0.233,0.29c-0.082,0.094 -0.168,0.182 -0.256,0.27c-0.132,0.133 -0.269,0.257 -0.405,0.387c-0.072,0.083 -0.064,0.209 0.019,0.282c0.083,0.073 0.209,0.064 0.282,-0.019Z" style="fill:#1d1d1b;"/><path d="M294.96,34.133c0.004,-0.017 0.009,-0.035 0.015,-0.052c0.051,-0.139 0.139,-0.337 0.252,-0.549c0.063,-0.118 0.133,-0.239 0.207,-0.357c0.076,-0.121 0.156,-0.236 0.231,-0.344c0.159,-0.23 0.298,-0.422 0.361,-0.524c0.051,-0.098 0.013,-0.219 -0.085,-0.27c-0.097,-0.051 -0.218,-0.013 -0.269,0.085c-0.046,0.106 -0.147,0.309 -0.273,0.546c-0.062,0.117 -0.129,0.241 -0.201,0.364c-0.07,0.122 -0.145,0.242 -0.217,0.356c-0.137,0.215 -0.263,0.407 -0.337,0.545c-0.059,0.11 -0.083,0.199 -0.087,0.248c-0.006,0.073 0.028,0.122 0.056,0.159c0.035,0.046 0.089,0.067 0.161,0.075c0.11,0.001 0.201,-0.087 0.203,-0.197c0.001,-0.03 -0.006,-0.059 -0.017,-0.085Zm-0.141,-0.114c-0.012,-0.003 -0.024,-0.005 -0.038,-0.004c0.013,-0 0.026,0.001 0.038,0.004Z" style="fill:#1d1d1b;"/><path d="M294.465,33.449c0.066,-0.116 0.144,-0.229 0.233,-0.339c0.061,-0.076 0.124,-0.15 0.188,-0.223c0.056,-0.063 0.113,-0.125 0.167,-0.187c0.059,-0.066 0.116,-0.132 0.167,-0.201c0.127,-0.169 0.21,-0.352 0.234,-0.564c0.002,-0.111 -0.087,-0.202 -0.197,-0.204c-0.11,-0.002 -0.201,0.086 -0.203,0.197c0.006,0.074 0.005,0.145 -0.014,0.214c-0.032,0.115 -0.087,0.224 -0.16,0.328c-0.03,0.043 -0.062,0.085 -0.098,0.124c-0.053,0.06 -0.112,0.118 -0.172,0.173c-0.164,0.151 -0.336,0.292 -0.472,0.451c-0.063,0.09 -0.042,0.215 0.048,0.279c0.09,0.063 0.215,0.042 0.279,-0.048Z" style="fill:#1d1d1b;"/><path d="M293.609,33.666c0.055,-0.181 0.104,-0.341 0.168,-0.489c0.046,-0.108 0.095,-0.211 0.154,-0.307c0.059,-0.097 0.128,-0.188 0.201,-0.279c0.103,-0.128 0.22,-0.251 0.349,-0.39c0.068,-0.087 0.052,-0.212 -0.035,-0.28c-0.087,-0.068 -0.213,-0.052 -0.28,0.035c-0.088,0.137 -0.164,0.264 -0.238,0.387c-0.054,0.089 -0.105,0.176 -0.156,0.262c-0.043,0.072 -0.086,0.145 -0.13,0.217c-0.044,0.072 -0.088,0.144 -0.133,0.218c-0.089,0.146 -0.178,0.299 -0.27,0.476c-0.042,0.102 0.008,0.219 0.11,0.26c0.102,0.042 0.219,-0.008 0.26,-0.11Z" style="fill:#1d1d1b;"/><path d="M315.756,38.834c-0.255,0.186 -0.484,0.404 -0.715,0.623c-0.089,0.085 -0.18,0.169 -0.272,0.252c-0.061,0.054 -0.123,0.107 -0.186,0.158c-0.26,0.213 -0.531,0.406 -0.819,0.569c-0.093,0.06 -0.12,0.183 -0.061,0.276c0.06,0.093 0.184,0.12 0.277,0.061c0.254,-0.186 0.484,-0.403 0.715,-0.623c0.089,-0.085 0.179,-0.17 0.271,-0.253c0.061,-0.054 0.123,-0.107 0.186,-0.159c0.104,-0.086 0.21,-0.17 0.318,-0.249c0.161,-0.118 0.328,-0.223 0.502,-0.319c0.093,-0.059 0.12,-0.183 0.06,-0.276c-0.059,-0.093 -0.183,-0.12 -0.276,-0.06Z" style="fill:#1d1d1b;"/><path d="M314.317,38.825c-0.166,0.157 -0.342,0.329 -0.524,0.509c-0.115,0.113 -0.23,0.228 -0.347,0.345c-0.096,0.096 -0.192,0.193 -0.288,0.29c-0.097,0.099 -0.193,0.197 -0.285,0.296c-0.215,0.233 -0.406,0.47 -0.551,0.714c-0.051,0.098 -0.013,0.219 0.085,0.27c0.098,0.051 0.219,0.013 0.27,-0.085c0.106,-0.236 0.251,-0.474 0.429,-0.702c0.113,-0.147 0.236,-0.291 0.369,-0.426c0.134,-0.135 0.277,-0.261 0.421,-0.381c0.231,-0.194 0.466,-0.366 0.679,-0.525c0.084,-0.071 0.095,-0.197 0.023,-0.282c-0.071,-0.084 -0.197,-0.095 -0.281,-0.023Z" style="fill:#1d1d1b;"/><path d="M313.378,39.409c-0.143,0.144 -0.281,0.29 -0.427,0.429c-0.097,0.093 -0.195,0.184 -0.298,0.27c-0.102,0.085 -0.21,0.164 -0.319,0.242c-0.162,0.117 -0.33,0.225 -0.498,0.335c-0.088,0.068 -0.104,0.193 -0.037,0.281c0.068,0.087 0.194,0.103 0.281,0.036c0.152,-0.138 0.297,-0.278 0.446,-0.416c0.1,-0.091 0.198,-0.183 0.302,-0.27c0.103,-0.086 0.21,-0.168 0.318,-0.249c0.161,-0.121 0.326,-0.235 0.492,-0.354c0.084,-0.071 0.094,-0.197 0.022,-0.281c-0.071,-0.085 -0.198,-0.095 -0.282,-0.023Z" style="fill:#1d1d1b;"/><path d="M312.561,39.018c-0.186,0.193 -0.367,0.388 -0.554,0.578c-0.125,0.127 -0.25,0.253 -0.38,0.374c-0.13,0.122 -0.265,0.238 -0.399,0.354c-0.203,0.175 -0.408,0.344 -0.612,0.518c-0.079,0.077 -0.082,0.204 -0.005,0.283c0.077,0.08 0.203,0.082 0.283,0.005c0.181,-0.197 0.358,-0.394 0.543,-0.585c0.123,-0.128 0.246,-0.255 0.376,-0.376c0.129,-0.122 0.263,-0.238 0.398,-0.352c0.204,-0.172 0.412,-0.336 0.621,-0.505c0.081,-0.074 0.086,-0.201 0.012,-0.282c-0.075,-0.081 -0.201,-0.087 -0.283,-0.012Z" style="fill:#1d1d1b;"/><path d="M311.399,39.336c-0.149,0.185 -0.292,0.373 -0.443,0.557c-0.099,0.121 -0.199,0.242 -0.306,0.357c-0.106,0.115 -0.218,0.224 -0.331,0.332c-0.17,0.162 -0.346,0.313 -0.525,0.464c-0.079,0.077 -0.082,0.204 -0.005,0.283c0.077,0.08 0.203,0.082 0.283,0.005c0.16,-0.177 0.312,-0.36 0.468,-0.542c0.102,-0.121 0.204,-0.242 0.31,-0.358c0.107,-0.116 0.217,-0.228 0.329,-0.339c0.167,-0.167 0.34,-0.325 0.512,-0.486c0.076,-0.081 0.071,-0.208 -0.009,-0.283c-0.081,-0.075 -0.208,-0.071 -0.283,0.01Z" style="fill:#1d1d1b;"/><path d="M310.439,39.406c-0.105,0.098 -0.23,0.192 -0.365,0.28c-0.091,0.06 -0.184,0.118 -0.276,0.175c-0.081,0.05 -0.161,0.099 -0.238,0.149c-0.085,0.055 -0.166,0.11 -0.239,0.17c-0.196,0.162 -0.32,0.358 -0.345,0.612c-0.002,0.11 0.086,0.201 0.196,0.203c0.111,0.002 0.202,-0.086 0.204,-0.196c-0.006,-0.078 0.001,-0.149 0.031,-0.214c0.052,-0.113 0.14,-0.213 0.251,-0.303c0.044,-0.036 0.092,-0.07 0.142,-0.102c0.076,-0.047 0.156,-0.09 0.238,-0.13c0.226,-0.111 0.459,-0.206 0.646,-0.327c0.087,-0.068 0.103,-0.193 0.036,-0.281c-0.068,-0.087 -0.193,-0.103 -0.281,-0.036Z" style="fill:#1d1d1b;"/><path d="M309.783,39.235c-0.219,0.204 -0.409,0.471 -0.611,0.73c-0.075,0.096 -0.151,0.191 -0.232,0.278c-0.054,0.059 -0.11,0.115 -0.168,0.166c-0.236,0.209 -0.493,0.351 -0.795,0.329c-0.111,-0.002 -0.202,0.086 -0.204,0.196c-0.002,0.111 0.086,0.202 0.197,0.204c0.307,-0.014 0.566,-0.141 0.8,-0.339c0.093,-0.08 0.182,-0.169 0.271,-0.263c0.082,-0.087 0.164,-0.179 0.247,-0.271c0.095,-0.106 0.192,-0.212 0.291,-0.315c0.147,-0.153 0.3,-0.293 0.458,-0.406c0.085,-0.07 0.097,-0.197 0.027,-0.282c-0.07,-0.085 -0.196,-0.097 -0.281,-0.027Z" style="fill:#1d1d1b;"/><path d="M308.757,39.262c-0.195,0.158 -0.386,0.318 -0.584,0.472c-0.132,0.102 -0.264,0.204 -0.401,0.299c-0.136,0.096 -0.277,0.185 -0.418,0.275c-0.212,0.134 -0.426,0.261 -0.64,0.392c-0.091,0.063 -0.113,0.188 -0.049,0.278c0.063,0.091 0.188,0.112 0.279,0.049c0.195,-0.157 0.387,-0.317 0.585,-0.471c0.132,-0.102 0.263,-0.204 0.4,-0.3c0.136,-0.097 0.276,-0.187 0.417,-0.276c0.212,-0.135 0.427,-0.26 0.642,-0.391c0.09,-0.063 0.112,-0.188 0.048,-0.278c-0.063,-0.091 -0.188,-0.112 -0.279,-0.049Z" style="fill:#1d1d1b;"/><path d="M307.758,39.205c-0.16,0.166 -0.311,0.34 -0.469,0.51c-0.104,0.11 -0.209,0.22 -0.319,0.323c-0.111,0.103 -0.227,0.197 -0.347,0.288c-0.176,0.134 -0.362,0.251 -0.557,0.357c-0.093,0.06 -0.12,0.184 -0.06,0.277c0.059,0.093 0.183,0.12 0.276,0.06c0.16,-0.12 0.309,-0.25 0.456,-0.386c0.096,-0.088 0.189,-0.179 0.283,-0.269c0.078,-0.075 0.156,-0.149 0.235,-0.221c0.079,-0.072 0.16,-0.143 0.241,-0.213c0.173,-0.148 0.349,-0.289 0.528,-0.428c0.082,-0.074 0.089,-0.2 0.016,-0.282c-0.074,-0.083 -0.201,-0.09 -0.283,-0.016Z" style="fill:#1d1d1b;"/><path d="M306.452,39.126c-0.167,0.168 -0.329,0.338 -0.499,0.503c-0.113,0.109 -0.227,0.218 -0.346,0.321c-0.118,0.103 -0.241,0.201 -0.365,0.298c-0.186,0.147 -0.375,0.286 -0.563,0.429c-0.083,0.073 -0.092,0.2 -0.019,0.283c0.073,0.083 0.199,0.091 0.282,0.019c0.167,-0.168 0.331,-0.337 0.5,-0.502c0.113,-0.109 0.226,-0.219 0.344,-0.322c0.118,-0.104 0.241,-0.202 0.365,-0.3c0.185,-0.147 0.375,-0.285 0.564,-0.428c0.083,-0.073 0.092,-0.199 0.019,-0.282c-0.073,-0.083 -0.199,-0.092 -0.282,-0.019Z" style="fill:#1d1d1b;"/><path d="M305.473,39.16c-0.15,0.142 -0.3,0.283 -0.455,0.42c-0.104,0.092 -0.208,0.183 -0.314,0.272c-0.064,0.054 -0.128,0.107 -0.193,0.159c-0.098,0.078 -0.197,0.154 -0.297,0.23c-0.253,0.191 -0.505,0.38 -0.745,0.586c-0.08,0.077 -0.082,0.203 -0.005,0.283c0.076,0.079 0.203,0.081 0.282,0.005c0.174,-0.189 0.351,-0.373 0.539,-0.547c0.126,-0.116 0.254,-0.231 0.388,-0.339c0.135,-0.108 0.274,-0.209 0.414,-0.31c0.213,-0.153 0.429,-0.297 0.641,-0.451c0.085,-0.07 0.097,-0.196 0.027,-0.281c-0.071,-0.085 -0.197,-0.097 -0.282,-0.027Z" style="fill:#1d1d1b;"/><path d="M304.659,39.196c-0.211,0.184 -0.418,0.371 -0.633,0.552c-0.143,0.12 -0.286,0.239 -0.434,0.352c-0.147,0.114 -0.3,0.222 -0.452,0.329c-0.229,0.162 -0.462,0.316 -0.693,0.474c-0.087,0.068 -0.104,0.194 -0.036,0.281c0.067,0.087 0.193,0.103 0.28,0.036c0.212,-0.184 0.421,-0.369 0.635,-0.55c0.142,-0.12 0.285,-0.24 0.432,-0.354c0.148,-0.115 0.299,-0.223 0.452,-0.33c0.229,-0.162 0.462,-0.315 0.694,-0.473c0.087,-0.068 0.103,-0.193 0.036,-0.281c-0.068,-0.087 -0.193,-0.103 -0.281,-0.036Z" style="fill:#1d1d1b;"/><path d="M303.112,39.347c-0.149,0.168 -0.295,0.338 -0.448,0.502c-0.102,0.11 -0.204,0.218 -0.312,0.322c-0.107,0.103 -0.22,0.201 -0.333,0.299c-0.17,0.147 -0.343,0.287 -0.516,0.432c-0.079,0.076 -0.082,0.203 -0.005,0.282c0.077,0.08 0.204,0.082 0.283,0.005c0.15,-0.167 0.296,-0.336 0.449,-0.5c0.102,-0.11 0.204,-0.219 0.311,-0.323c0.107,-0.104 0.219,-0.202 0.332,-0.3c0.17,-0.148 0.344,-0.287 0.517,-0.431c0.08,-0.077 0.082,-0.203 0.005,-0.283c-0.076,-0.079 -0.203,-0.081 -0.283,-0.005Z" style="fill:#1d1d1b;"/><path d="M302.195,39.43c-0.223,0.21 -0.385,0.367 -0.524,0.493c-0.139,0.126 -0.25,0.224 -0.362,0.318c-0.114,0.096 -0.23,0.187 -0.376,0.302c-0.148,0.117 -0.328,0.253 -0.571,0.442c-0.083,0.074 -0.09,0.2 -0.017,0.283c0.074,0.082 0.2,0.089 0.283,0.016c0.215,-0.219 0.371,-0.382 0.505,-0.512c0.132,-0.128 0.239,-0.228 0.351,-0.323c0.111,-0.094 0.228,-0.183 0.377,-0.293c0.151,-0.112 0.338,-0.239 0.588,-0.417c0.085,-0.07 0.098,-0.196 0.028,-0.282c-0.07,-0.085 -0.196,-0.097 -0.282,-0.027Z" style="fill:#1d1d1b;"/><path d="M301.005,39.401c-0.177,0.143 -0.384,0.308 -0.606,0.483c-0.133,0.105 -0.27,0.214 -0.409,0.325c-0.113,0.09 -0.228,0.182 -0.34,0.274c-0.115,0.094 -0.229,0.188 -0.336,0.284c-0.265,0.236 -0.491,0.482 -0.642,0.737c-0.051,0.098 -0.013,0.219 0.085,0.27c0.098,0.051 0.219,0.013 0.27,-0.084c0.145,-0.313 0.403,-0.627 0.712,-0.915c0.07,-0.066 0.143,-0.13 0.218,-0.191c0.114,-0.092 0.232,-0.179 0.351,-0.261c0.333,-0.231 0.667,-0.427 0.931,-0.598c0.09,-0.064 0.11,-0.189 0.045,-0.279c-0.064,-0.089 -0.19,-0.109 -0.279,-0.045Z" style="fill:#1d1d1b;"/><path d="M299.211,39.527c-0.124,0.101 -0.237,0.208 -0.354,0.314c-0.076,0.069 -0.151,0.138 -0.231,0.202c-0.078,0.062 -0.161,0.119 -0.246,0.174c-0.123,0.081 -0.251,0.149 -0.385,0.216c-0.093,0.06 -0.12,0.184 -0.06,0.277c0.059,0.093 0.183,0.12 0.276,0.06c0.15,-0.119 0.284,-0.248 0.424,-0.375c0.054,-0.049 0.109,-0.098 0.166,-0.144c0.038,-0.031 0.077,-0.059 0.116,-0.087c0.065,-0.047 0.132,-0.091 0.2,-0.133c0.1,-0.062 0.203,-0.115 0.31,-0.167c0.093,-0.06 0.12,-0.184 0.061,-0.277c-0.06,-0.092 -0.184,-0.119 -0.277,-0.06Z" style="fill:#1d1d1b;"/><path d="M298.594,39.368c-0.155,0.15 -0.309,0.301 -0.471,0.445c-0.108,0.096 -0.217,0.192 -0.33,0.282c-0.113,0.092 -0.231,0.178 -0.347,0.266c-0.177,0.133 -0.353,0.264 -0.524,0.406c-0.079,0.077 -0.081,0.204 -0.005,0.283c0.077,0.079 0.204,0.082 0.283,0.005c0.143,-0.16 0.287,-0.315 0.443,-0.462c0.104,-0.099 0.21,-0.196 0.321,-0.286c0.112,-0.091 0.229,-0.176 0.347,-0.259c0.178,-0.127 0.361,-0.246 0.539,-0.373c0.085,-0.07 0.097,-0.197 0.026,-0.282c-0.071,-0.084 -0.197,-0.096 -0.282,-0.025Z" style="fill:#1d1d1b;"/><path d="M297.282,39.616c-0.134,0.131 -0.263,0.264 -0.4,0.391c-0.091,0.085 -0.183,0.168 -0.279,0.247c-0.096,0.078 -0.197,0.15 -0.298,0.222c-0.153,0.109 -0.308,0.21 -0.462,0.316c-0.086,0.069 -0.098,0.196 -0.029,0.281c0.07,0.085 0.196,0.098 0.282,0.028c0.134,-0.13 0.264,-0.262 0.401,-0.389c0.091,-0.085 0.182,-0.169 0.278,-0.248c0.096,-0.079 0.196,-0.152 0.297,-0.224c0.152,-0.109 0.308,-0.209 0.463,-0.314c0.085,-0.07 0.098,-0.196 0.028,-0.281c-0.07,-0.086 -0.196,-0.098 -0.281,-0.029Z" style="fill:#1d1d1b;"/><path d="M296.627,39.444c-0.104,0.105 -0.23,0.204 -0.368,0.297c-0.093,0.062 -0.189,0.122 -0.285,0.181c-0.084,0.051 -0.167,0.101 -0.247,0.152c-0.089,0.056 -0.174,0.112 -0.249,0.173c-0.206,0.165 -0.337,0.367 -0.362,0.63c-0.002,0.11 0.086,0.202 0.196,0.203c0.111,0.002 0.202,-0.086 0.204,-0.196c-0.006,-0.081 0.002,-0.155 0.035,-0.223c0.056,-0.117 0.151,-0.22 0.268,-0.312c0.047,-0.037 0.097,-0.072 0.15,-0.105c0.079,-0.049 0.164,-0.093 0.249,-0.135c0.238,-0.118 0.48,-0.223 0.669,-0.361c0.084,-0.071 0.093,-0.198 0.022,-0.282c-0.072,-0.084 -0.198,-0.094 -0.282,-0.022Z" style="fill:#1d1d1b;"/><path d="M295.712,39.418c-0.191,0.158 -0.382,0.328 -0.579,0.497c-0.127,0.11 -0.255,0.221 -0.386,0.328c-0.131,0.108 -0.266,0.211 -0.398,0.316c-0.204,0.161 -0.406,0.319 -0.596,0.48c-0.08,0.077 -0.082,0.204 -0.005,0.283c0.077,0.079 0.203,0.082 0.283,0.005c0.164,-0.18 0.334,-0.363 0.518,-0.539c0.119,-0.115 0.242,-0.228 0.37,-0.335c0.129,-0.106 0.264,-0.205 0.399,-0.301c0.209,-0.147 0.422,-0.28 0.629,-0.41c0.089,-0.065 0.109,-0.19 0.044,-0.279c-0.064,-0.09 -0.189,-0.11 -0.279,-0.045Z" style="fill:#1d1d1b;"/><path d="M294.038,39.648c-0.149,0.105 -0.273,0.222 -0.399,0.338c-0.049,0.046 -0.099,0.09 -0.151,0.132c-0.033,0.027 -0.068,0.053 -0.104,0.078c-0.072,0.051 -0.146,0.098 -0.224,0.143c-0.074,0.042 -0.15,0.076 -0.231,0.11c-0.096,0.055 -0.129,0.178 -0.074,0.273c0.055,0.096 0.178,0.129 0.273,0.074c0.146,-0.107 0.268,-0.225 0.393,-0.343c0.049,-0.045 0.097,-0.09 0.148,-0.132c0.033,-0.027 0.068,-0.053 0.104,-0.078c0.057,-0.041 0.116,-0.079 0.178,-0.115c0.088,-0.051 0.18,-0.09 0.279,-0.129c0.097,-0.054 0.132,-0.175 0.079,-0.272c-0.053,-0.097 -0.175,-0.132 -0.271,-0.079Z" style="fill:#1d1d1b;"/><path d="M293.851,39.176c-0.152,0.149 -0.287,0.287 -0.424,0.414c-0.099,0.092 -0.196,0.18 -0.295,0.263c-0.103,0.085 -0.208,0.164 -0.313,0.246c-0.155,0.119 -0.311,0.236 -0.475,0.37c-0.079,0.077 -0.081,0.203 -0.005,0.283c0.077,0.079 0.204,0.081 0.283,0.005c0.136,-0.154 0.262,-0.296 0.397,-0.43c0.093,-0.092 0.186,-0.181 0.287,-0.266c0.098,-0.082 0.203,-0.16 0.312,-0.239c0.151,-0.11 0.314,-0.217 0.489,-0.339c0.085,-0.071 0.096,-0.197 0.025,-0.282c-0.07,-0.084 -0.197,-0.096 -0.281,-0.025Z" style="fill:#1d1d1b;"/><path d="M293.028,39.542c-0.168,0.157 -0.33,0.317 -0.5,0.471c-0.113,0.102 -0.227,0.204 -0.346,0.3c-0.118,0.096 -0.241,0.186 -0.364,0.276c-0.185,0.135 -0.374,0.263 -0.562,0.395c-0.085,0.07 -0.098,0.196 -0.028,0.282c0.069,0.085 0.195,0.098 0.281,0.028c0.167,-0.157 0.331,-0.315 0.501,-0.469c0.113,-0.103 0.226,-0.205 0.344,-0.302c0.118,-0.096 0.24,-0.187 0.363,-0.277c0.186,-0.135 0.375,-0.262 0.563,-0.394c0.086,-0.07 0.099,-0.196 0.029,-0.281c-0.07,-0.086 -0.196,-0.099 -0.281,-0.029Z" style="fill:#1d1d1b;"/><path d="M291.874,39.583c-0.145,0.152 -0.285,0.305 -0.433,0.454c-0.098,0.099 -0.196,0.197 -0.3,0.289c-0.104,0.093 -0.213,0.18 -0.322,0.266c-0.163,0.131 -0.331,0.255 -0.497,0.382c-0.082,0.074 -0.089,0.2 -0.016,0.283c0.074,0.082 0.201,0.089 0.283,0.015c0.145,-0.152 0.286,-0.304 0.434,-0.453c0.098,-0.099 0.196,-0.197 0.299,-0.291c0.103,-0.093 0.211,-0.18 0.32,-0.267c0.164,-0.131 0.332,-0.253 0.499,-0.381c0.082,-0.073 0.089,-0.2 0.015,-0.282c-0.073,-0.082 -0.2,-0.089 -0.282,-0.015Z" style="fill:#1d1d1b;"/><path d="M291.07,39.342c-0.168,0.152 -0.33,0.306 -0.501,0.455c-0.113,0.099 -0.227,0.197 -0.345,0.289c-0.118,0.092 -0.241,0.179 -0.364,0.265c-0.185,0.13 -0.373,0.252 -0.561,0.378c-0.086,0.068 -0.102,0.194 -0.034,0.281c0.069,0.087 0.194,0.102 0.281,0.034c0.168,-0.152 0.332,-0.305 0.502,-0.454c0.113,-0.099 0.226,-0.197 0.344,-0.29c0.118,-0.093 0.24,-0.18 0.363,-0.266c0.185,-0.13 0.374,-0.251 0.561,-0.378c0.087,-0.068 0.103,-0.193 0.034,-0.28c-0.068,-0.087 -0.193,-0.102 -0.28,-0.034Z" style="fill:#1d1d1b;"/><path d="M290.129,39.23c-0.125,0.139 -0.25,0.274 -0.383,0.405c-0.09,0.087 -0.181,0.172 -0.274,0.256c-0.056,0.05 -0.113,0.1 -0.171,0.148c-0.087,0.072 -0.176,0.142 -0.266,0.211c-0.229,0.176 -0.46,0.345 -0.679,0.531c-0.08,0.077 -0.082,0.204 -0.005,0.283c0.076,0.079 0.203,0.082 0.283,0.005c0.209,-0.23 0.427,-0.45 0.657,-0.66c0.056,-0.051 0.112,-0.101 0.17,-0.149c0.087,-0.073 0.176,-0.143 0.266,-0.212c0.228,-0.176 0.459,-0.344 0.68,-0.53c0.079,-0.077 0.081,-0.204 0.005,-0.283c-0.077,-0.08 -0.204,-0.082 -0.283,-0.005Z" style="fill:#1d1d1b;"/><path d="M289.178,38.783c-0.247,0.095 -0.484,0.272 -0.712,0.491c-0.09,0.087 -0.178,0.179 -0.268,0.273c-0.086,0.09 -0.172,0.183 -0.259,0.274c-0.104,0.111 -0.208,0.219 -0.309,0.324c-0.166,0.172 -0.326,0.328 -0.471,0.452c-0.08,0.076 -0.082,0.203 -0.005,0.282c0.076,0.08 0.203,0.082 0.282,0.005c0.187,-0.202 0.386,-0.478 0.61,-0.755c0.079,-0.097 0.161,-0.194 0.247,-0.286c0.057,-0.061 0.116,-0.119 0.177,-0.175c0.102,-0.095 0.208,-0.182 0.316,-0.258c0.168,-0.119 0.34,-0.203 0.512,-0.245c0.105,-0.033 0.164,-0.146 0.131,-0.251c-0.033,-0.105 -0.146,-0.164 -0.251,-0.131Z" style="fill:#1d1d1b;"/><path d="M287.559,39.366c-0.129,0.076 -0.249,0.165 -0.362,0.266c-0.086,0.076 -0.167,0.158 -0.248,0.242c-0.078,0.08 -0.154,0.164 -0.232,0.246c-0.092,0.096 -0.185,0.191 -0.279,0.284c-0.141,0.14 -0.284,0.271 -0.429,0.391c-0.079,0.077 -0.081,0.203 -0.005,0.283c0.077,0.079 0.204,0.081 0.283,0.005c0.162,-0.182 0.311,-0.389 0.472,-0.591c0.061,-0.076 0.124,-0.151 0.191,-0.222c0.044,-0.047 0.09,-0.092 0.137,-0.135c0.079,-0.072 0.16,-0.138 0.246,-0.198c0.125,-0.088 0.258,-0.157 0.399,-0.21c0.1,-0.048 0.142,-0.167 0.094,-0.267c-0.048,-0.1 -0.167,-0.142 -0.267,-0.094Z" style="fill:#1d1d1b;"/><path d="M286.554,39.362c-0.175,0.135 -0.338,0.271 -0.507,0.397c-0.114,0.086 -0.228,0.169 -0.347,0.245c-0.119,0.075 -0.242,0.142 -0.368,0.206c-0.184,0.095 -0.374,0.175 -0.574,0.253c-0.1,0.047 -0.142,0.167 -0.095,0.266c0.048,0.1 0.168,0.142 0.267,0.095c0.235,-0.134 0.449,-0.279 0.664,-0.424c0.086,-0.058 0.172,-0.116 0.259,-0.172c0.058,-0.037 0.117,-0.073 0.176,-0.108c0.098,-0.059 0.196,-0.117 0.296,-0.175c0.146,-0.084 0.295,-0.165 0.449,-0.249c0.092,-0.061 0.118,-0.185 0.057,-0.277c-0.061,-0.092 -0.185,-0.118 -0.277,-0.057Z" style="fill:#1d1d1b;"/><path d="M285.512,39.025c-0.119,0.111 -0.215,0.202 -0.301,0.276c-0.079,0.07 -0.147,0.125 -0.209,0.174c-0.047,0.037 -0.089,0.071 -0.131,0.102c-0.068,0.05 -0.133,0.096 -0.205,0.149c-0.127,0.092 -0.274,0.2 -0.5,0.382c-0.079,0.077 -0.081,0.203 -0.005,0.283c0.077,0.079 0.204,0.081 0.283,0.005c0.143,-0.167 0.244,-0.285 0.336,-0.377c0.088,-0.089 0.162,-0.156 0.248,-0.22c0.079,-0.06 0.168,-0.116 0.283,-0.188c0.115,-0.072 0.257,-0.153 0.443,-0.268c0.088,-0.067 0.105,-0.193 0.038,-0.28c-0.067,-0.088 -0.192,-0.105 -0.28,-0.038Z" style="fill:#1d1d1b;"/><path d="M284.097,39.806c-0.097,0.079 -0.189,0.159 -0.289,0.234c-0.065,0.049 -0.131,0.097 -0.202,0.139c-0.07,0.043 -0.144,0.078 -0.218,0.114c-0.112,0.054 -0.225,0.099 -0.339,0.15c-0.094,0.057 -0.124,0.18 -0.067,0.274c0.057,0.095 0.18,0.125 0.275,0.068c0.097,-0.078 0.19,-0.157 0.289,-0.232c0.066,-0.05 0.131,-0.099 0.201,-0.141c0.07,-0.043 0.144,-0.08 0.217,-0.115c0.113,-0.055 0.226,-0.099 0.341,-0.149c0.094,-0.057 0.124,-0.18 0.067,-0.275c-0.058,-0.094 -0.181,-0.124 -0.275,-0.067Z" style="fill:#1d1d1b;"/><path d="M283.367,39.593c-0.156,0.152 -0.307,0.307 -0.466,0.455c-0.106,0.099 -0.212,0.197 -0.323,0.289c-0.111,0.093 -0.227,0.179 -0.343,0.266c-0.174,0.13 -0.352,0.253 -0.529,0.38c-0.085,0.071 -0.096,0.197 -0.025,0.282c0.071,0.084 0.197,0.095 0.282,0.025c0.156,-0.152 0.308,-0.305 0.467,-0.454c0.106,-0.099 0.211,-0.197 0.322,-0.29c0.111,-0.093 0.226,-0.181 0.342,-0.267c0.174,-0.131 0.353,-0.252 0.53,-0.379c0.084,-0.071 0.096,-0.197 0.025,-0.282c-0.071,-0.084 -0.197,-0.096 -0.282,-0.025Z" style="fill:#1d1d1b;"/><path d="M282.348,39.616c-0.185,0.142 -0.365,0.286 -0.552,0.424c-0.125,0.092 -0.25,0.183 -0.379,0.268c-0.129,0.085 -0.262,0.163 -0.395,0.241c-0.201,0.118 -0.404,0.228 -0.606,0.343c-0.092,0.061 -0.118,0.185 -0.057,0.277c0.061,0.092 0.185,0.118 0.277,0.057c0.185,-0.141 0.366,-0.285 0.554,-0.423c0.124,-0.092 0.248,-0.183 0.377,-0.269c0.129,-0.085 0.261,-0.164 0.394,-0.243c0.201,-0.118 0.405,-0.227 0.607,-0.341c0.092,-0.061 0.118,-0.185 0.057,-0.277c-0.061,-0.092 -0.185,-0.118 -0.277,-0.057Z" style="fill:#1d1d1b;"/><path d="M280.967,39.767c-0.118,0.115 -0.23,0.231 -0.351,0.343c-0.08,0.074 -0.16,0.146 -0.245,0.214c-0.086,0.068 -0.175,0.129 -0.265,0.19c-0.136,0.093 -0.274,0.178 -0.412,0.267c-0.086,0.069 -0.1,0.195 -0.031,0.281c0.068,0.086 0.194,0.101 0.281,0.032c0.118,-0.115 0.231,-0.23 0.352,-0.342c0.079,-0.074 0.159,-0.148 0.244,-0.216c0.085,-0.068 0.174,-0.13 0.264,-0.191c0.135,-0.093 0.274,-0.177 0.412,-0.266c0.087,-0.068 0.101,-0.194 0.032,-0.281c-0.069,-0.086 -0.195,-0.1 -0.281,-0.031Z" style="fill:#1d1d1b;"/><path d="M279.78,39.79c-0.151,0.121 -0.298,0.243 -0.453,0.36c-0.102,0.078 -0.205,0.154 -0.312,0.225c-0.107,0.071 -0.218,0.135 -0.329,0.199c-0.168,0.097 -0.337,0.186 -0.507,0.279c-0.092,0.061 -0.117,0.186 -0.056,0.277c0.061,0.092 0.186,0.118 0.277,0.056c0.152,-0.12 0.3,-0.242 0.454,-0.358c0.103,-0.078 0.205,-0.155 0.311,-0.227c0.107,-0.071 0.218,-0.136 0.329,-0.2c0.167,-0.097 0.337,-0.185 0.507,-0.278c0.092,-0.061 0.117,-0.185 0.056,-0.277c-0.061,-0.092 -0.185,-0.117 -0.277,-0.056Z" style="fill:#1d1d1b;"/><path d="M279.295,39.131c-0.184,0.152 -0.364,0.307 -0.551,0.456c-0.125,0.098 -0.25,0.196 -0.379,0.288c-0.129,0.093 -0.262,0.178 -0.396,0.264c-0.201,0.129 -0.405,0.251 -0.608,0.377c-0.09,0.064 -0.111,0.189 -0.046,0.279c0.064,0.089 0.189,0.11 0.279,0.046c0.184,-0.152 0.365,-0.306 0.552,-0.455c0.124,-0.098 0.248,-0.197 0.377,-0.29c0.129,-0.092 0.262,-0.179 0.396,-0.265c0.201,-0.129 0.405,-0.25 0.609,-0.375c0.089,-0.064 0.11,-0.189 0.046,-0.279c-0.064,-0.09 -0.189,-0.11 -0.279,-0.046Z" style="fill:#1d1d1b;"/><path d="M277.94,39.209c-0.163,0.12 -0.321,0.244 -0.487,0.36c-0.109,0.078 -0.22,0.154 -0.334,0.225c-0.114,0.071 -0.232,0.135 -0.351,0.198c-0.178,0.097 -0.358,0.185 -0.538,0.278c-0.094,0.058 -0.122,0.182 -0.064,0.276c0.058,0.093 0.181,0.122 0.275,0.064c0.163,-0.12 0.323,-0.242 0.488,-0.359c0.11,-0.078 0.219,-0.155 0.333,-0.226c0.114,-0.071 0.232,-0.136 0.35,-0.2c0.178,-0.097 0.359,-0.184 0.539,-0.276c0.094,-0.059 0.123,-0.182 0.065,-0.276c-0.059,-0.094 -0.182,-0.122 -0.276,-0.064Z" style="fill:#1d1d1b;"/><path d="M276.988,39.157c-0.106,0.115 -0.207,0.231 -0.317,0.343c-0.072,0.073 -0.145,0.146 -0.223,0.214c-0.078,0.068 -0.16,0.129 -0.243,0.191c-0.125,0.093 -0.253,0.179 -0.381,0.269c-0.083,0.072 -0.091,0.199 -0.019,0.282c0.073,0.083 0.199,0.092 0.282,0.019c0.107,-0.114 0.209,-0.229 0.318,-0.341c0.072,-0.074 0.144,-0.147 0.222,-0.216c0.077,-0.068 0.159,-0.13 0.242,-0.192c0.125,-0.093 0.254,-0.178 0.382,-0.267c0.083,-0.073 0.092,-0.199 0.019,-0.283c-0.073,-0.083 -0.199,-0.091 -0.282,-0.019Z" style="fill:#1d1d1b;"/></g></g></svg>