<?xml version="1.0" encoding="UTF-8" standalone="no"?>
<!DOCTYPE svg PUBLIC "-//W3C//DTD SVG 1.1//EN" "http://www.w3.org/Graphics/SVG/1.1/DTD/svg11.dtd">
<svg width="80%" viewBox="0 0 196 94" version="1.1" xmlns="http://www.w3.org/2000/svg" xmlns:xlink="http://www.w3.org/1999/xlink" xml:space="preserve" xmlns:serif="http://www.serif.com/" style="fill-rule:evenodd;clip-rule:evenodd;stroke-linejoin:round;stroke-miterlimit:2;"><rect id="ArtBoard3" x="0" y="0" width="195.038" height="93.398" style="fill:none;"/><g id="XML"><g><path d="M47.642,39.077l-4.487,5.72c-0.237,0.317 -0.493,0.637 -0.767,0.959c-0.259,0.304 -0.535,0.61 -0.827,0.919l-1.796,1.825c-0.275,0.268 -0.544,0.52 -0.808,0.756c-0.286,0.255 -0.566,0.492 -0.839,0.709c-0.269,0.214 -0.512,0.393 -0.731,0.536c-0.177,0.116 -0.335,0.208 -0.476,0.272c-0.19,0.086 -0.326,0.26 -0.364,0.465l-0.7,3.931c-0.014,0.079 -0.013,0.16 0.003,0.238l0.148,0.68c0.062,0.292 0.324,0.497 0.622,0.485l2.453,-0.157c0,0 2.086,-0.106 2.086,-0.106c-0,-0 1.774,-0.057 1.774,-0.057l1.705,0.039c-0,-0 2.4,0.083 2.4,0.083c-0.016,-0.001 2.982,0.129 2.982,0.129c0.269,0.008 0.503,-0.181 0.55,-0.445l0.702,-3.976c0.019,-0.103 0.006,-0.21 -0.037,-0.306l-0.242,-0.539c-0.084,-0.188 -0.27,-0.309 -0.476,-0.309c-0.353,0.001 -0.631,-0.039 -0.828,-0.154c-0.174,-0.101 -0.244,-0.276 -0.246,-0.507c0,-0.107 0.021,-0.222 0.06,-0.345c0.039,-0.123 0.094,-0.251 0.165,-0.387c0,-0 0.648,-1.129 0.648,-1.129c0,-0 1.5,-2.293 1.5,-2.293l1.85,3.502c0.099,0.171 0.177,0.332 0.233,0.482c0.06,0.162 0.094,0.308 0.095,0.44c0.001,0.203 -0.067,0.36 -0.224,0.46c-0.177,0.113 -0.425,0.171 -0.74,0.194c-0.203,0.014 -0.371,0.161 -0.412,0.36l-0.8,4.036c-0.027,0.131 0.009,0.267 0.096,0.369l0.289,0.335c0.085,0.099 0.209,0.154 0.339,0.151l4.091,-0.16l3.256,-0.155c-0,-0 2.436,-0.055 2.436,-0.055l1.743,0.019l2.081,0.065l2.512,0.042c0.185,-0 0.344,-0.134 0.375,-0.317l0.755,-4.514c0.018,-0.105 -0.011,-0.213 -0.078,-0.295c-0.068,-0.083 -0.167,-0.132 -0.274,-0.135c-0.506,-0.013 -0.975,-0.092 -1.407,-0.239c-0.451,-0.153 -0.861,-0.38 -1.231,-0.681c-0.345,-0.28 -0.694,-0.643 -1.049,-1.085c-0.424,-0.529 -0.855,-1.172 -1.294,-1.927c-0.001,-0.002 -3.065,-5.654 -3.065,-5.654c0,-0 5.008,-6.722 5.008,-6.722c0.224,-0.297 0.446,-0.576 0.663,-0.838c0.24,-0.287 0.474,-0.553 0.705,-0.798c0.217,-0.23 0.439,-0.45 0.668,-0.661c0.231,-0.214 0.468,-0.418 0.712,-0.612c0.247,-0.197 0.508,-0.388 0.784,-0.573c0.263,-0.176 0.539,-0.347 0.828,-0.512c0.318,-0.181 0.662,-0.367 1.033,-0.557c0.331,-0.17 0.684,-0.343 1.057,-0.52c0.107,-0.051 0.183,-0.151 0.205,-0.268l0.778,-4.265c0.012,-0.066 0.006,-0.135 -0.018,-0.198l-0.143,-0.39c-0.058,-0.156 -0.21,-0.256 -0.375,-0.248l-2.018,0.092l-1.971,0.042l-9.432,-0.032c-0.202,0 -0.376,0.143 -0.414,0.341l-0.782,3.927c-0.014,0.072 -0.01,0.148 0.013,0.218l0.095,0.295c0.059,0.18 0.226,0.302 0.416,0.302c0.277,0.001 0.511,0.014 0.702,0.04c0.152,0.02 0.269,0.045 0.35,0.085c0.034,0.017 0.055,0.045 0.067,0.081c0.015,0.047 0.019,0.1 0.019,0.161c-0,0.087 -0.035,0.194 -0.088,0.324c-0.048,0.122 -0.115,0.257 -0.197,0.406c-0,0 -0.829,1.363 -0.829,1.363c-0,0 -1.085,1.648 -1.085,1.648l-0.664,1c0,-0 -1.151,-2.239 -1.151,-2.239c-0.173,-0.347 -0.307,-0.677 -0.402,-0.987c-0.107,-0.354 -0.161,-0.682 -0.159,-0.985c0.002,-0.295 0.108,-0.512 0.344,-0.639c0.248,-0.134 0.592,-0.185 1.029,-0.182c0.243,-0 0.453,-0.172 0.502,-0.41l0.836,-3.977c0.023,-0.11 0.01,-0.225 -0.036,-0.327l-0.237,-0.532c-0.091,-0.202 -0.297,-0.327 -0.518,-0.315l-3.371,0.127l-2.682,0.105c-0,-0 -2.078,0.013 -2.078,0.013c-0,0 -6.048,-0.031 -6.048,-0.031l-2.177,-0.059c-0.304,-0.016 -0.575,0.191 -0.639,0.489l-0.986,4.407c-0.037,0.171 -0.004,0.349 0.092,0.495l0.191,0.292c0.084,0.129 0.212,0.223 0.36,0.266l1.439,0.455c0.189,0.065 0.374,0.143 0.556,0.236c0.179,0.09 0.354,0.195 0.526,0.313c0.178,0.122 0.352,0.268 0.523,0.435c0.161,0.158 0.319,0.336 0.473,0.532c0.183,0.232 0.367,0.506 0.554,0.821c0.161,0.272 0.323,0.574 0.487,0.906l2.734,5.386Zm-6.59,-10.23l0.751,-3.552c0,-0 1.706,0.028 1.706,0.028c-0,-0 6.048,-0.031 6.048,-0.031l2.098,-0.035c0.459,-0.011 0.916,-0.027 1.371,-0.049c0.458,-0.023 0.915,-0.052 1.369,-0.086c-0.001,-0 2.985,-0.144 2.985,-0.144c-0,0 0.019,0.043 0.019,0.043c0,-0 -0.683,3.423 -0.683,3.423c-0.619,0.058 -1.08,0.238 -1.391,0.508c-0.361,0.313 -0.559,0.748 -0.556,1.319c0.002,0.323 0.049,0.667 0.145,1.032c0.113,0.429 0.293,0.889 0.543,1.379c-0,0 1.553,2.957 1.553,2.957c0.079,0.148 0.229,0.244 0.397,0.251c0.167,0.008 0.326,-0.073 0.418,-0.213l1.096,-1.684l1.075,-1.663c0,-0 0.851,-1.427 0.851,-1.427c0.127,-0.234 0.22,-0.44 0.282,-0.619c0.074,-0.212 0.106,-0.394 0.105,-0.543c-0.001,-0.279 -0.068,-0.504 -0.181,-0.679c-0.099,-0.152 -0.233,-0.273 -0.405,-0.357c-0.146,-0.071 -0.355,-0.13 -0.628,-0.165c-0.13,-0.016 -0.277,-0.027 -0.442,-0.034l0.647,-3.373l9.084,-0.031l2.012,-0.053c-0,0 1.737,-0.087 1.737,-0.087c-0,0 0.011,0.032 0.011,0.032c0,-0 -0.707,3.981 -0.707,3.981c-0.316,0.153 -0.618,0.304 -0.904,0.452c-0.38,0.198 -0.733,0.39 -1.058,0.578c-0.304,0.176 -0.594,0.357 -0.87,0.544c-0.292,0.197 -0.568,0.4 -0.83,0.61c-0.256,0.205 -0.506,0.421 -0.75,0.647c-0.24,0.223 -0.474,0.455 -0.702,0.698c-0.239,0.255 -0.483,0.532 -0.732,0.832c-0.224,0.27 -0.451,0.559 -0.683,0.865l-5.132,6.912c-0.081,0.109 -0.091,0.254 -0.027,0.374l3.168,5.867c0.457,0.794 0.907,1.469 1.35,2.025c0.389,0.489 0.774,0.887 1.152,1.198c0.436,0.357 0.92,0.626 1.452,0.81c0.376,0.129 0.776,0.216 1.2,0.258c0,0 -0.655,3.784 -0.655,3.784c0,-0 -2.161,-0.048 -2.161,-0.048c0.003,0 -2.095,-0.078 -2.095,-0.078c0,0 -1.76,-0.029 -1.76,-0.029l-2.46,0.041c-0,0 -3.277,0.133 -3.277,0.133c0.004,-0.001 -3.86,0.121 -3.86,0.121c-0,-0 -0.014,-0.016 -0.014,-0.016c-0,-0 0.722,-3.501 0.722,-3.501c0.467,-0.076 0.814,-0.24 1.05,-0.463c0.275,-0.262 0.424,-0.61 0.425,-1.052c0.001,-0.189 -0.031,-0.395 -0.1,-0.619c-0.071,-0.232 -0.183,-0.485 -0.337,-0.758c0.002,0.004 -2.184,-4.223 -2.184,-4.223c-0.08,-0.152 -0.234,-0.251 -0.405,-0.26c-0.171,-0.008 -0.334,0.074 -0.428,0.217l-1.989,2.98l-0.695,1.187c-0.127,0.237 -0.218,0.462 -0.275,0.671c-0.051,0.188 -0.076,0.367 -0.076,0.535c-0.003,0.514 0.168,0.907 0.473,1.194c0.28,0.263 0.701,0.441 1.274,0.493c0,-0 0.043,0.098 0.043,0.098c0,-0 -0.622,3.342 -0.622,3.342l-2.507,-0.135l-2.4,-0.108c0,0 -1.75,-0.057 -1.75,-0.057l-1.827,0.039l-2.109,0.087l-1.907,0.102c-0,-0 -0.01,-0.047 -0.01,-0.047c-0,-0 0.659,-3.495 0.659,-3.495c0.108,-0.06 0.222,-0.128 0.342,-0.205c0.249,-0.159 0.528,-0.358 0.834,-0.597c0.294,-0.229 0.595,-0.479 0.903,-0.748c0.28,-0.245 0.566,-0.508 0.858,-0.786c0,-0 1.852,-1.843 1.852,-1.843c0.312,-0.322 0.607,-0.643 0.885,-0.962c0.295,-0.339 0.571,-0.675 0.827,-1.01c-0.002,0.002 4.831,-6.016 4.831,-6.016c0.177,-0.224 0.207,-0.531 0.077,-0.785l-3.01,-5.762c-0.223,-0.438 -0.447,-0.834 -0.667,-1.18c-0.184,-0.288 -0.365,-0.543 -0.545,-0.766c-0.195,-0.242 -0.394,-0.46 -0.597,-0.654c-0.232,-0.222 -0.469,-0.414 -0.71,-0.575c-0.223,-0.149 -0.449,-0.281 -0.68,-0.394c-0.241,-0.119 -0.485,-0.219 -0.735,-0.3l-1.152,-0.35Z"/><path d="M67.743,55.977c0.063,-0.2 0.121,-0.397 0.207,-0.592c0.057,-0.128 0.117,-0.254 0.192,-0.372c0.076,-0.119 0.165,-0.227 0.255,-0.335c0.139,-0.167 0.286,-0.316 0.429,-0.473c0.077,-0.114 0.045,-0.27 -0.069,-0.346c-0.115,-0.077 -0.27,-0.046 -0.347,0.069c-0.09,0.194 -0.172,0.387 -0.27,0.582c-0.063,0.127 -0.125,0.255 -0.2,0.376c-0.076,0.121 -0.161,0.235 -0.246,0.348c-0.134,0.179 -0.271,0.342 -0.398,0.519c-0.062,0.123 -0.012,0.274 0.111,0.335c0.124,0.062 0.274,0.012 0.336,-0.111Z"/><path d="M66.135,55.594c0.111,-0.25 0.212,-0.5 0.34,-0.744c0.084,-0.159 0.172,-0.317 0.277,-0.464c0.103,-0.147 0.223,-0.281 0.347,-0.411c0.184,-0.196 0.387,-0.365 0.597,-0.531c0.098,-0.097 0.098,-0.256 -0,-0.353c-0.098,-0.098 -0.256,-0.098 -0.354,-0c-0.175,0.223 -0.328,0.455 -0.484,0.694c-0.101,0.154 -0.197,0.311 -0.302,0.463c-0.105,0.151 -0.218,0.296 -0.331,0.441c-0.171,0.221 -0.348,0.43 -0.518,0.648c-0.071,0.118 -0.033,0.272 0.085,0.343c0.119,0.071 0.272,0.032 0.343,-0.086Z"/><path d="M64.94,55.388c0.084,-0.213 0.158,-0.456 0.261,-0.711c0.06,-0.149 0.125,-0.301 0.207,-0.446c0.081,-0.141 0.179,-0.272 0.28,-0.398c0.155,-0.191 0.33,-0.35 0.51,-0.489c0.097,-0.097 0.097,-0.256 -0,-0.353c-0.098,-0.098 -0.256,-0.098 -0.354,-0c-0.185,0.237 -0.334,0.516 -0.481,0.81c-0.045,0.09 -0.09,0.18 -0.139,0.269c-0.048,0.088 -0.1,0.174 -0.152,0.259c-0.072,0.116 -0.145,0.227 -0.218,0.335c-0.12,0.177 -0.239,0.334 -0.35,0.479c-0.067,0.12 -0.025,0.273 0.096,0.34c0.12,0.068 0.272,0.025 0.34,-0.095Z"/><path d="M63.638,54.795c0.11,-0.265 0.19,-0.471 0.273,-0.637c0.085,-0.171 0.158,-0.297 0.227,-0.394c0.11,-0.154 0.203,-0.241 0.301,-0.341c0.122,-0.125 0.258,-0.255 0.491,-0.516c0.077,-0.115 0.046,-0.27 -0.069,-0.347c-0.115,-0.076 -0.27,-0.045 -0.347,0.069c-0.145,0.302 -0.227,0.463 -0.316,0.604c-0.077,0.123 -0.144,0.233 -0.255,0.393c-0.071,0.101 -0.161,0.219 -0.283,0.372c-0.117,0.148 -0.266,0.314 -0.451,0.539c-0.071,0.119 -0.032,0.272 0.086,0.343c0.118,0.071 0.272,0.033 0.343,-0.085Z"/><path d="M62.144,55.587c0.077,-0.189 0.206,-0.437 0.374,-0.701c0.096,-0.15 0.2,-0.304 0.309,-0.455c0.055,-0.075 0.112,-0.147 0.169,-0.218c0.149,-0.184 0.291,-0.358 0.405,-0.523c0.159,-0.229 0.251,-0.443 0.273,-0.622c-0,-0.138 -0.112,-0.25 -0.25,-0.25c-0.138,-0 -0.25,0.112 -0.25,0.25c0.017,0.144 -0.035,0.334 -0.134,0.547c-0.06,0.127 -0.131,0.259 -0.213,0.392c-0.047,0.076 -0.096,0.152 -0.151,0.225c-0.081,0.11 -0.171,0.215 -0.26,0.316c-0.095,0.108 -0.19,0.208 -0.281,0.305c-0.174,0.186 -0.325,0.35 -0.428,0.491c-0.067,0.12 -0.024,0.273 0.097,0.34c0.12,0.067 0.273,0.023 0.34,-0.097Z"/><path d="M60.036,55.204c0.103,-0.206 0.227,-0.46 0.382,-0.73c0.09,-0.154 0.184,-0.315 0.29,-0.469c0.105,-0.153 0.222,-0.298 0.333,-0.443c0.188,-0.242 0.368,-0.468 0.509,-0.682c0.061,-0.123 0.011,-0.274 -0.112,-0.335c-0.124,-0.062 -0.274,-0.012 -0.336,0.111c-0.082,0.229 -0.184,0.483 -0.319,0.741c-0.083,0.16 -0.17,0.322 -0.273,0.473c-0.104,0.155 -0.221,0.298 -0.335,0.434c-0.203,0.241 -0.403,0.445 -0.555,0.623c-0.077,0.115 -0.046,0.27 0.069,0.347c0.115,0.076 0.27,0.045 0.347,-0.07Z"/><path d="M57.86,55.664c0.1,-0.318 0.208,-0.633 0.355,-0.937c0.097,-0.2 0.204,-0.398 0.331,-0.583c0.126,-0.184 0.272,-0.355 0.423,-0.52c0.228,-0.247 0.478,-0.466 0.736,-0.679c0.097,-0.098 0.097,-0.256 -0,-0.354c-0.098,-0.097 -0.256,-0.097 -0.354,0c-0.223,0.27 -0.424,0.552 -0.621,0.843c-0.109,0.16 -0.214,0.323 -0.321,0.484c-0.071,0.107 -0.145,0.213 -0.218,0.319c-0.11,0.16 -0.22,0.319 -0.327,0.48c-0.164,0.248 -0.321,0.493 -0.464,0.75c-0.054,0.126 0.005,0.274 0.131,0.328c0.127,0.054 0.274,-0.005 0.329,-0.131Z"/><path d="M55.762,56.263c0.101,-0.322 0.192,-0.645 0.314,-0.963c0.08,-0.209 0.166,-0.415 0.273,-0.61c0.107,-0.195 0.234,-0.377 0.37,-0.552c0.201,-0.257 0.433,-0.483 0.688,-0.694c0.098,-0.097 0.098,-0.256 0,-0.353c-0.097,-0.098 -0.256,-0.098 -0.353,-0c-0.229,0.276 -0.416,0.57 -0.589,0.877c-0.095,0.169 -0.184,0.34 -0.274,0.511c-0.06,0.113 -0.122,0.224 -0.184,0.336c-0.094,0.168 -0.187,0.334 -0.281,0.502c-0.142,0.252 -0.284,0.498 -0.424,0.749c-0.054,0.127 0.005,0.274 0.132,0.328c0.127,0.055 0.274,-0.004 0.328,-0.131Z"/><path d="M54.662,55.966c0.078,-0.284 0.126,-0.487 0.181,-0.651c0.057,-0.171 0.104,-0.295 0.164,-0.411c0.061,-0.12 0.135,-0.23 0.237,-0.376c0.099,-0.141 0.229,-0.303 0.408,-0.541c0.066,-0.121 0.021,-0.273 -0.1,-0.34c-0.121,-0.066 -0.273,-0.021 -0.339,0.1c-0.104,0.279 -0.171,0.475 -0.237,0.634c-0.069,0.168 -0.121,0.292 -0.182,0.415c-0.061,0.12 -0.128,0.237 -0.222,0.395c-0.089,0.15 -0.207,0.322 -0.367,0.572c-0.056,0.126 0.001,0.274 0.127,0.33c0.126,0.056 0.274,-0.001 0.33,-0.127Z"/><path d="M53.654,55.085c0.042,-0.149 0.072,-0.289 0.124,-0.435c0.033,-0.094 0.069,-0.186 0.117,-0.273c0.049,-0.088 0.109,-0.165 0.17,-0.245c0.096,-0.124 0.194,-0.231 0.292,-0.353c0.062,-0.123 0.012,-0.274 -0.111,-0.335c-0.124,-0.062 -0.274,-0.012 -0.336,0.111c-0.037,0.148 -0.066,0.288 -0.115,0.433c-0.032,0.094 -0.063,0.187 -0.11,0.274c-0.047,0.088 -0.106,0.166 -0.167,0.244c-0.097,0.123 -0.2,0.224 -0.303,0.34c-0.066,0.121 -0.021,0.273 0.1,0.339c0.121,0.066 0.273,0.022 0.339,-0.1Z"/><path d="M48.835,56.321c0.06,-0.121 0.114,-0.234 0.184,-0.349c0.046,-0.076 0.093,-0.149 0.146,-0.222c0.039,-0.054 0.079,-0.107 0.123,-0.157c0.045,-0.051 0.092,-0.098 0.141,-0.146c0.154,-0.15 0.3,-0.293 0.433,-0.469c0.062,-0.124 0.012,-0.274 -0.112,-0.336c-0.123,-0.061 -0.273,-0.011 -0.335,0.112c-0.035,0.129 -0.069,0.249 -0.124,0.367c-0.029,0.062 -0.058,0.12 -0.094,0.177c-0.035,0.058 -0.07,0.115 -0.114,0.166c-0.071,0.083 -0.152,0.156 -0.235,0.227c-0.133,0.112 -0.268,0.205 -0.403,0.317c-0.087,0.108 -0.069,0.265 0.039,0.352c0.107,0.086 0.265,0.068 0.351,-0.039Z"/><path d="M46.335,55.825c0.117,-0.198 0.215,-0.381 0.329,-0.555c0.079,-0.121 0.159,-0.237 0.25,-0.343c0.092,-0.107 0.196,-0.201 0.303,-0.295c0.156,-0.138 0.322,-0.257 0.501,-0.388c0.097,-0.098 0.097,-0.256 -0,-0.354c-0.098,-0.098 -0.256,-0.098 -0.354,-0c-0.136,0.185 -0.251,0.362 -0.375,0.537c-0.084,0.118 -0.164,0.234 -0.257,0.345c-0.091,0.107 -0.192,0.206 -0.297,0.307c-0.15,0.144 -0.312,0.275 -0.485,0.426c-0.088,0.106 -0.074,0.264 0.032,0.352c0.106,0.088 0.264,0.074 0.353,-0.032Z"/><path d="M45.336,56.125c0.172,-0.26 0.334,-0.517 0.512,-0.767c0.12,-0.167 0.24,-0.333 0.37,-0.491c0.13,-0.159 0.27,-0.309 0.409,-0.462c0.209,-0.231 0.42,-0.456 0.623,-0.699c0.076,-0.115 0.045,-0.27 -0.07,-0.347c-0.115,-0.076 -0.27,-0.045 -0.347,0.07c-0.142,0.272 -0.284,0.535 -0.449,0.79c-0.111,0.17 -0.224,0.339 -0.352,0.497c-0.128,0.158 -0.268,0.305 -0.412,0.451c-0.216,0.219 -0.443,0.421 -0.668,0.638c-0.089,0.106 -0.074,0.263 0.032,0.352c0.106,0.088 0.263,0.074 0.352,-0.032Z"/><path d="M44.064,55.587c0.085,-0.217 0.195,-0.428 0.333,-0.633c0.093,-0.139 0.193,-0.274 0.294,-0.406c0.052,-0.068 0.106,-0.133 0.16,-0.198c0.136,-0.166 0.259,-0.331 0.356,-0.508c0.098,-0.179 0.159,-0.366 0.187,-0.574c-0,-0.138 -0.112,-0.25 -0.25,-0.25c-0.138,-0 -0.25,0.112 -0.25,0.25c0.02,0.151 0.018,0.294 -0.022,0.437c-0.043,0.153 -0.108,0.301 -0.195,0.444c-0.041,0.069 -0.085,0.137 -0.136,0.201c-0.075,0.097 -0.16,0.187 -0.246,0.277c-0.089,0.092 -0.179,0.18 -0.269,0.269c-0.146,0.146 -0.281,0.29 -0.4,0.448c-0.067,0.12 -0.023,0.273 0.098,0.34c0.12,0.067 0.273,0.023 0.34,-0.097Z"/><path d="M42.388,55.631c0.032,-0.245 0.058,-0.487 0.119,-0.728c0.04,-0.158 0.088,-0.314 0.155,-0.461c0.042,-0.092 0.095,-0.178 0.15,-0.262c0.055,-0.084 0.116,-0.162 0.181,-0.239c0.126,-0.149 0.27,-0.275 0.429,-0.397c0.098,-0.097 0.098,-0.256 0,-0.353c-0.097,-0.098 -0.256,-0.098 -0.353,-0c-0.167,0.216 -0.297,0.442 -0.413,0.682c-0.062,0.13 -0.119,0.262 -0.178,0.394c-0.038,0.087 -0.079,0.173 -0.12,0.259c-0.062,0.129 -0.123,0.257 -0.184,0.387c-0.092,0.197 -0.183,0.388 -0.268,0.586c-0.037,0.133 0.042,0.271 0.175,0.307c0.133,0.037 0.271,-0.042 0.307,-0.175Z"/><path d="M40.582,55.855c0.063,-0.266 0.115,-0.502 0.187,-0.727c0.053,-0.163 0.107,-0.319 0.175,-0.468c0.07,-0.152 0.153,-0.295 0.238,-0.442c0.122,-0.211 0.256,-0.417 0.395,-0.652c0.055,-0.127 -0.004,-0.274 -0.131,-0.328c-0.127,-0.055 -0.274,0.004 -0.328,0.131c-0.074,0.26 -0.137,0.494 -0.215,0.722c-0.054,0.161 -0.108,0.317 -0.177,0.47c-0.067,0.151 -0.146,0.297 -0.23,0.449c-0.116,0.212 -0.247,0.421 -0.381,0.665c-0.049,0.129 0.015,0.274 0.144,0.323c0.129,0.05 0.274,-0.015 0.323,-0.143Z"/><path d="M38.595,55.322c0.036,-0.34 0.051,-0.609 0.089,-0.848c0.032,-0.196 0.07,-0.368 0.139,-0.529c0.067,-0.157 0.165,-0.3 0.293,-0.449c0.148,-0.174 0.348,-0.342 0.61,-0.551c0.098,-0.098 0.098,-0.256 0,-0.354c-0.097,-0.097 -0.256,-0.097 -0.353,0c-0.171,0.218 -0.303,0.403 -0.413,0.575c-0.094,0.148 -0.171,0.282 -0.236,0.414c-0.043,0.088 -0.08,0.175 -0.117,0.261c-0.054,0.127 -0.104,0.256 -0.153,0.395c-0.044,0.123 -0.088,0.251 -0.137,0.394c-0.06,0.173 -0.129,0.359 -0.21,0.579c-0.031,0.135 0.053,0.269 0.188,0.3c0.134,0.031 0.269,-0.053 0.3,-0.187Z"/><path d="M36.873,55.983c0.024,-0.062 0.121,-0.294 0.262,-0.593c0.059,-0.124 0.125,-0.257 0.196,-0.395c0.038,-0.072 0.077,-0.145 0.119,-0.217c0.041,-0.071 0.085,-0.142 0.13,-0.21c0.079,-0.123 0.158,-0.239 0.232,-0.35c0.155,-0.232 0.279,-0.432 0.341,-0.569c0.033,-0.073 0.042,-0.135 0.048,-0.182c0,-0.138 -0.112,-0.25 -0.25,-0.25c-0.138,0 -0.25,0.112 -0.25,0.25c0.014,0.118 -0.096,0.439 -0.26,0.802c-0.055,0.121 -0.115,0.245 -0.184,0.364c-0.095,0.162 -0.202,0.314 -0.305,0.454c-0.25,0.34 -0.473,0.594 -0.519,0.659c-0.066,0.122 -0.02,0.273 0.101,0.339c0.122,0.065 0.274,0.02 0.339,-0.102Z"/><path d="M48.863,39.095c0.081,-0.237 0.15,-0.471 0.239,-0.705c0.059,-0.153 0.12,-0.305 0.194,-0.452c0.074,-0.147 0.162,-0.286 0.25,-0.425c0.133,-0.211 0.276,-0.409 0.416,-0.616c0.062,-0.123 0.012,-0.273 -0.112,-0.335c-0.123,-0.062 -0.273,-0.012 -0.335,0.112c-0.082,0.236 -0.154,0.469 -0.243,0.702c-0.059,0.154 -0.117,0.307 -0.19,0.455c-0.073,0.147 -0.158,0.287 -0.246,0.426c-0.133,0.212 -0.278,0.408 -0.42,0.614c-0.062,0.124 -0.011,0.274 0.112,0.336c0.123,0.061 0.274,0.011 0.335,-0.112Z"/><path d="M47.867,37.89c0.134,-0.362 0.267,-0.754 0.435,-1.15c0.105,-0.247 0.218,-0.495 0.351,-0.733c0.133,-0.237 0.287,-0.462 0.447,-0.675c0.248,-0.33 0.525,-0.619 0.815,-0.867c0.098,-0.098 0.098,-0.256 0,-0.354c-0.097,-0.097 -0.256,-0.097 -0.353,0c-0.265,0.311 -0.497,0.67 -0.717,1.052c-0.115,0.2 -0.224,0.405 -0.337,0.611c-0.074,0.136 -0.15,0.27 -0.226,0.404c-0.116,0.203 -0.232,0.404 -0.346,0.602c-0.181,0.314 -0.358,0.614 -0.522,0.899c-0.058,0.125 -0.004,0.274 0.121,0.332c0.125,0.058 0.274,0.004 0.332,-0.121Z"/><path d="M47.783,35.548c0.017,-0.205 0.034,-0.393 0.088,-0.577c0.037,-0.127 0.081,-0.251 0.144,-0.366c0.062,-0.117 0.143,-0.222 0.226,-0.327c0.124,-0.156 0.263,-0.295 0.407,-0.45c0.077,-0.115 0.045,-0.271 -0.069,-0.347c-0.115,-0.077 -0.27,-0.046 -0.347,0.069c-0.09,0.197 -0.167,0.382 -0.252,0.568c-0.058,0.127 -0.113,0.252 -0.177,0.374c-0.064,0.123 -0.136,0.241 -0.206,0.363c-0.105,0.184 -0.208,0.363 -0.299,0.571c-0.033,0.134 0.048,0.27 0.182,0.303c0.134,0.034 0.27,-0.048 0.303,-0.181Z"/><path d="M46.801,34.441c-0.076,0.021 -0.136,0.039 -0.187,0.035c-0.023,-0.002 -0.043,0.007 -0.057,-0.004c-0.052,-0.041 -0.058,-0.118 -0.048,-0.216c0.016,-0.161 0.07,-0.356 0.156,-0.565c0.053,-0.129 0.117,-0.263 0.19,-0.396c0.07,-0.128 0.149,-0.254 0.231,-0.377c0.299,-0.45 0.623,-0.859 0.778,-1.115c0.062,-0.124 0.012,-0.274 -0.111,-0.336c-0.124,-0.061 -0.274,-0.011 -0.336,0.112c-0.089,0.225 -0.257,0.577 -0.449,0.959c-0.107,0.211 -0.216,0.432 -0.326,0.643c-0.077,0.15 -0.155,0.293 -0.224,0.43c-0.141,0.279 -0.241,0.529 -0.266,0.726c-0.023,0.184 0.03,0.325 0.122,0.432c0.105,0.12 0.295,0.186 0.609,0.165c0.136,-0.022 0.228,-0.151 0.205,-0.287c-0.022,-0.136 -0.151,-0.228 -0.287,-0.206Z"/><path d="M46.274,32.785c0.083,-0.293 0.154,-0.576 0.246,-0.855c0.062,-0.187 0.127,-0.373 0.206,-0.552c0.08,-0.179 0.175,-0.351 0.272,-0.522c0.144,-0.256 0.304,-0.498 0.467,-0.751c0.062,-0.124 0.012,-0.274 -0.112,-0.336c-0.123,-0.061 -0.274,-0.011 -0.335,0.112c-0.107,0.287 -0.197,0.567 -0.299,0.847c-0.067,0.186 -0.133,0.372 -0.212,0.554c-0.078,0.181 -0.168,0.356 -0.261,0.532c-0.137,0.262 -0.287,0.513 -0.435,0.781c-0.052,0.127 0.009,0.274 0.136,0.326c0.128,0.053 0.274,-0.008 0.327,-0.136Z"/><path d="M45.285,31.456c0.026,-0.242 0.036,-0.453 0.061,-0.657c0.019,-0.15 0.038,-0.291 0.07,-0.429c0.033,-0.141 0.079,-0.276 0.127,-0.413c0.069,-0.197 0.153,-0.387 0.243,-0.603c0.033,-0.134 -0.048,-0.269 -0.182,-0.303c-0.134,-0.033 -0.27,0.048 -0.303,0.182c-0.023,0.236 -0.033,0.446 -0.056,0.656c-0.016,0.145 -0.031,0.286 -0.063,0.429c-0.03,0.136 -0.074,0.271 -0.125,0.412c-0.069,0.191 -0.158,0.378 -0.255,0.597c-0.035,0.133 0.044,0.27 0.177,0.306c0.134,0.036 0.271,-0.044 0.306,-0.177Z"/><path d="M44.495,30.193c-0.038,-0.242 -0.068,-0.441 -0.063,-0.63c0.004,-0.147 0.019,-0.284 0.055,-0.416c0.037,-0.133 0.096,-0.259 0.162,-0.392c0.089,-0.177 0.201,-0.351 0.327,-0.567c0.051,-0.128 -0.011,-0.274 -0.139,-0.325c-0.128,-0.051 -0.274,0.011 -0.325,0.139c-0.056,0.236 -0.098,0.434 -0.144,0.622c-0.035,0.146 -0.065,0.282 -0.1,0.417c-0.03,0.116 -0.064,0.229 -0.096,0.348c-0.03,0.113 -0.059,0.228 -0.088,0.354c-0.032,0.139 -0.062,0.282 -0.089,0.45c-0,0.138 0.112,0.25 0.25,0.25c0.138,-0 0.25,-0.112 0.25,-0.25Z"/><path d="M43.093,29.153c-0.064,-0.179 -0.116,-0.339 -0.117,-0.504c-0.001,-0.117 0.013,-0.233 0.054,-0.341c0.03,-0.081 0.078,-0.154 0.13,-0.226c0.034,-0.047 0.074,-0.09 0.116,-0.133c0.098,-0.101 0.215,-0.185 0.346,-0.277c0.098,-0.097 0.098,-0.256 0,-0.353c-0.097,-0.098 -0.256,-0.098 -0.353,-0c-0.091,0.13 -0.166,0.251 -0.233,0.376c-0.047,0.091 -0.09,0.176 -0.128,0.265c-0.032,0.076 -0.06,0.151 -0.089,0.226c-0.028,0.077 -0.057,0.152 -0.082,0.23c-0.034,0.103 -0.06,0.207 -0.084,0.319c-0.033,0.158 -0.05,0.317 -0.054,0.5c0.023,0.136 0.152,0.228 0.288,0.205c0.136,-0.022 0.228,-0.151 0.206,-0.287Z"/><path d="M41.498,29.094c-0.038,-0.182 -0.078,-0.33 -0.087,-0.477c-0.006,-0.108 -0.003,-0.21 0.023,-0.304c0.019,-0.072 0.056,-0.136 0.097,-0.199c0.027,-0.041 0.059,-0.076 0.095,-0.113c0.079,-0.084 0.177,-0.149 0.298,-0.229c0.098,-0.097 0.098,-0.256 0,-0.353c-0.098,-0.098 -0.256,-0.098 -0.354,-0c-0.092,0.14 -0.161,0.26 -0.216,0.383c-0.042,0.095 -0.077,0.183 -0.104,0.274c-0.016,0.056 -0.03,0.111 -0.045,0.166c-0.022,0.08 -0.044,0.161 -0.065,0.246c-0.019,0.078 -0.038,0.157 -0.058,0.244c-0.027,0.114 -0.055,0.227 -0.084,0.362c-0,0.138 0.112,0.25 0.25,0.25c0.138,-0 0.25,-0.112 0.25,-0.25Z"/><path d="M60.735,30.931c0.132,-0.243 0.331,-0.579 0.564,-0.946c0.129,-0.203 0.265,-0.414 0.404,-0.624c0.069,-0.104 0.14,-0.207 0.21,-0.308c0.178,-0.257 0.346,-0.507 0.477,-0.745c0.163,-0.296 0.263,-0.573 0.285,-0.812c-0,-0.138 -0.112,-0.25 -0.25,-0.25c-0.138,-0 -0.25,0.112 -0.25,0.25c0.016,0.187 -0.025,0.414 -0.115,0.662c-0.08,0.217 -0.187,0.448 -0.316,0.679c-0.059,0.105 -0.121,0.211 -0.189,0.313c-0.102,0.153 -0.214,0.3 -0.326,0.442c-0.119,0.15 -0.24,0.291 -0.356,0.424c-0.217,0.25 -0.415,0.465 -0.554,0.637c-0.077,0.115 -0.046,0.271 0.069,0.347c0.115,0.077 0.27,0.046 0.347,-0.069Z"/><path d="M60.348,29.51c0.082,-0.227 0.152,-0.451 0.243,-0.674c0.06,-0.147 0.122,-0.293 0.197,-0.432c0.075,-0.141 0.163,-0.272 0.25,-0.405c0.134,-0.202 0.275,-0.391 0.412,-0.591c0.061,-0.124 0.011,-0.274 -0.112,-0.336c-0.124,-0.061 -0.274,-0.011 -0.336,0.112c-0.077,0.227 -0.147,0.45 -0.235,0.674c-0.059,0.147 -0.117,0.293 -0.191,0.434c-0.073,0.14 -0.159,0.272 -0.247,0.404c-0.135,0.201 -0.281,0.385 -0.423,0.581c-0.064,0.122 -0.017,0.274 0.105,0.338c0.122,0.064 0.273,0.017 0.337,-0.105Z"/></g><g><path d="M90.887,52.031l0.61,4.414c0.053,0.381 0.394,0.655 0.777,0.625l6.142,-0.507c0.271,-0.021 0.505,-0.197 0.601,-0.45l2.557,-6.672c0,0 2.185,-5.503 2.185,-5.503l1.377,-3.385l-0.267,2.502l-0.206,1.887c-0,-0 -0.21,1.817 -0.21,1.817c0,-0 -0.162,1.57 -0.162,1.57l-0.114,1.073c-0.036,0.292 -0.095,0.55 -0.182,0.772c-0.091,0.231 -0.21,0.42 -0.368,0.56c-0.173,0.154 -0.404,0.271 -0.69,0.363c-0.258,0.082 -0.556,0.143 -0.893,0.182c-0.231,0.025 -0.421,0.191 -0.479,0.416l-1.086,4.324c-0.049,0.192 0.01,0.394 0.155,0.529c0.145,0.135 0.351,0.179 0.538,0.117l0.707,-0.073c-0,0 1.645,-0.101 1.645,-0.101c0,-0 2.025,-0.079 2.025,-0.079c0,0 2.042,-0.055 2.042,-0.055c-0,-0 1.684,-0.054 1.684,-0.054c-0,-0 0.943,-0.027 0.943,-0.027l-0.03,-0.001l5.166,0.127c0.229,-0 0.427,-0.159 0.477,-0.383l0.897,-4.086c0.031,-0.136 -0,-0.278 -0.084,-0.389l-0.289,-0.38c-0.11,-0.145 -0.292,-0.214 -0.47,-0.178l-0.339,0.04c-0.039,0 -0.077,0.005 -0.114,0.014l-0.342,0.036l-0.504,0.001c-0.243,0.001 -0.447,-0.04 -0.61,-0.141c-0.159,-0.1 -0.272,-0.257 -0.349,-0.463c-0.103,-0.277 -0.168,-0.666 -0.206,-1.164c-0.039,-0.527 -0.044,-1.167 -0.015,-1.922l0.132,-3.984c-0,0 0.178,-4.608 0.178,-4.608c-0,-0 0.202,-4.314 0.202,-4.314c0.04,-0.705 0.082,-1.326 0.127,-1.863c0.04,-0.477 0.082,-0.886 0.126,-1.229c0.027,-0.204 0.058,-0.392 0.094,-0.563c0.043,-0.199 0.091,-0.375 0.146,-0.526c0.041,-0.113 0.093,-0.214 0.158,-0.304c0.064,-0.089 0.141,-0.167 0.229,-0.232c0.103,-0.076 0.225,-0.14 0.365,-0.193c0.131,-0.051 0.276,-0.092 0.437,-0.124c0.172,-0.035 0.368,-0.065 0.588,-0.091c0.27,-0.031 0.574,-0.056 0.913,-0.073c0.179,-0.009 0.329,-0.137 0.366,-0.312l0.903,-4.274c0.035,-0.164 -0.04,-0.331 -0.185,-0.414l-0.337,-0.191c-0.067,-0.038 -0.143,-0.056 -0.22,-0.05l-1.343,0.099l-1.375,0.074l-1.644,0.077c-0.738,0.048 -1.469,0.082 -2.191,0.099c-0.739,0.018 -1.47,0.02 -2.193,0.006c-0,-0 -4.472,-0.042 -4.472,-0.042c-0.153,-0 -0.289,0.097 -0.339,0.241l-1.864,5.302l-1.772,4.82l-1.833,4.716c-0,-0 -0.073,-0 -0.073,-0c-0.084,-0.703 -0.165,-1.422 -0.242,-2.157c-0.085,-0.804 -0.167,-1.627 -0.244,-2.469l-0.476,-4.895c-0.079,-0.896 -0.146,-1.796 -0.201,-2.7c-0.054,-0.898 -0.096,-1.799 -0.126,-2.705c-0.003,-0.097 -0.045,-0.189 -0.116,-0.255c-0.072,-0.067 -0.166,-0.102 -0.263,-0.098l-2.691,0.091l-2.439,0.067c-0,-0 -2.249,0.02 -2.249,0.02l-1.912,-0.028l-2.25,-0.076l-2.724,-0.15c-0.193,-0.013 -0.366,0.116 -0.41,0.304l-0.971,4.082c-0.03,0.128 0.004,0.263 0.091,0.361l0.335,0.381c0.067,0.076 0.161,0.124 0.262,0.135c0.319,0.034 0.601,0.071 0.847,0.109c0.208,0.033 0.389,0.067 0.544,0.103c0.139,0.032 0.263,0.065 0.372,0.1c0.128,0.041 0.232,0.082 0.313,0.127c0.04,0.021 0.074,0.046 0.1,0.074c0.018,0.02 0.03,0.042 0.038,0.067l0.053,0.41c-0.001,0.113 -0.026,0.321 -0.071,0.625c-0.04,0.268 -0.096,0.605 -0.168,1.01c0,0 -0.63,3.258 -0.63,3.258c-0,0 -0.852,4.083 -0.852,4.083c-0,0 -0.878,4.109 -0.878,4.109c0,-0 -0.73,3.337 -0.73,3.337l-0.412,1.793c-0.106,0.433 -0.229,0.816 -0.37,1.146c-0.168,0.394 -0.358,0.711 -0.578,0.945c-0.196,0.209 -0.442,0.37 -0.734,0.488c-0.273,0.11 -0.585,0.182 -0.935,0.22c-0.21,0.023 -0.382,0.179 -0.426,0.386l-0.929,4.316c-0.031,0.15 0.006,0.306 0.103,0.425c0.096,0.118 0.241,0.187 0.394,0.187c-0,0 0.022,0.001 0.066,-0.004l0.595,-0.069c-0,0 1.446,-0.136 1.446,-0.136l1.807,-0.111c-0,-0 1.654,-0.041 1.654,-0.041l1.692,0.031l2.224,0.08l2.786,0.108c0.259,0.008 0.489,-0.163 0.556,-0.413l1.107,-4.074Zm26.67,-27.215l-0.797,3.696c-0.239,0.015 -0.46,0.034 -0.662,0.057c-0.244,0.027 -0.462,0.06 -0.654,0.098c-0.255,0.05 -0.48,0.119 -0.678,0.203c-0.166,0.071 -0.312,0.154 -0.441,0.248c-0.157,0.115 -0.292,0.251 -0.406,0.408c-0.107,0.146 -0.194,0.311 -0.263,0.496c-0.055,0.15 -0.106,0.32 -0.151,0.509l-0.137,0.753c-0.046,0.353 -0.091,0.774 -0.135,1.264c-0.048,0.543 -0.095,1.171 -0.14,1.884c0,0 -0.229,4.327 -0.229,4.327c-0,0 -0.206,4.608 -0.206,4.608c-0,-0 -0.156,3.989 -0.156,3.989c-0.035,0.789 -0.033,1.464 0.005,2.018c0.042,0.608 0.13,1.08 0.253,1.419c0.153,0.419 0.398,0.725 0.722,0.93c0.295,0.187 0.662,0.288 1.104,0.289l0.504,0.002l0.57,-0.06l-0.114,0.014l0.207,-0.022l-0.787,3.466c0,-0 -1.313,-0.041 -1.313,-0.041c0.004,-0 -1.707,-0.055 -1.707,-0.055l-1.728,-0.054l-0.977,0.021c-0,-0 -1.676,0.042 -1.676,0.042c-0,-0 -2.039,0.04 -2.039,0.04c0,0 -2.055,0.066 -2.055,0.066l-1.749,0.096l0.829,-3.191c0.358,-0.059 0.674,-0.141 0.948,-0.245c0.355,-0.133 0.646,-0.306 0.877,-0.509c0.234,-0.204 0.429,-0.462 0.583,-0.775c0.172,-0.347 0.292,-0.768 0.356,-1.263l0.126,-1.096l0.174,-1.561c-0,0 0.222,-1.796 0.222,-1.796c-0,0 0.225,-1.917 0.225,-1.917c-0,0.005 0.547,-4.76 0.547,-4.76c0.019,-0.175 -0.036,-0.35 -0.154,-0.481c-0.117,-0.132 -0.285,-0.207 -0.461,-0.207l-0.624,-0.002c-0.268,-0 -0.505,0.171 -0.59,0.424l-0.636,1.512c-0,-0 -1.58,3.795 -1.58,3.795c0,0 -2.231,5.49 -2.231,5.49c0,-0 -2.462,6.254 -2.462,6.254l-5.032,0.37l-0.892,-6.046c-0,0 -0.767,-5.105 -0.767,-5.105l-0.916,-6.164c-0.046,-0.318 -0.318,-0.554 -0.638,-0.554l-0.624,0.003c-0.317,0 -0.587,0.232 -0.635,0.546l-0.791,5.728l-0.279,2.158c-0,-0 -0.234,1.936 -0.234,1.936c-0,-0 -0.161,1.432 -0.161,1.432l-0.074,0.746c0.002,0.635 0.2,1.098 0.536,1.409c0.317,0.294 0.776,0.471 1.398,0.468l0.312,-0.001l0.548,-0.067l-0.14,0.017l0.212,-0.021l-0.878,3.336c-0,0 -2.338,-0.071 -2.338,-0.071c0.003,0 -2.241,-0.063 -2.241,-0.063c0,0 -1.715,-0.017 -1.715,-0.017l-1.706,0.055c-0,0 -1.841,0.129 -1.841,0.129l-1.381,0.141l0.682,-3.297c0.306,-0.056 0.585,-0.136 0.838,-0.24c0.43,-0.177 0.787,-0.422 1.073,-0.731c0.236,-0.255 0.451,-0.579 0.64,-0.976c0.204,-0.429 0.379,-0.945 0.524,-1.55c-0.001,0.003 0.404,-1.815 0.404,-1.815c-0,-0 0.709,-3.349 0.709,-3.349c0,-0 0.851,-4.117 0.851,-4.117c-0,-0 0.828,-4.094 0.828,-4.094c-0,0 0.617,-3.283 0.617,-3.283c0.088,-0.508 0.151,-0.911 0.191,-1.209c0.035,-0.268 0.051,-0.459 0.051,-0.571c-0,-0.112 -0.007,-0.219 -0.021,-0.321c-0.015,-0.115 -0.039,-0.224 -0.07,-0.327c-0.043,-0.144 -0.116,-0.273 -0.22,-0.386c-0.083,-0.091 -0.187,-0.173 -0.315,-0.243c-0.101,-0.054 -0.224,-0.108 -0.373,-0.158c-0.148,-0.051 -0.324,-0.099 -0.526,-0.145c-0.172,-0.038 -0.372,-0.075 -0.602,-0.11c-0.217,-0.033 -0.46,-0.064 -0.73,-0.093c0,-0 -0.092,-0.105 -0.092,-0.105c-0,0 0.826,-3.561 0.826,-3.561c0,0 2.411,0.121 2.411,0.121c0,0 2.264,0.069 2.264,0.069c-0,-0 1.928,0.02 1.928,0.02l2.263,-0.028c-0,-0 2.456,-0.077 2.456,-0.077c-0.002,0 2.321,-0.087 2.321,-0.087c0.032,0.788 0.073,1.574 0.122,2.356c0.058,0.911 0.127,1.817 0.209,2.72c0,-0 0.484,4.902 0.484,4.902c0.078,0.84 0.161,1.666 0.248,2.473c0.09,0.846 0.185,1.671 0.284,2.476c0.022,0.176 0.171,0.308 0.349,0.308l0.624,-0c0.143,-0 0.272,-0.088 0.325,-0.221l1.921,-4.951c0,0 1.781,-4.828 1.781,-4.828c-0,0 1.793,-5.062 1.793,-5.062c-0,-0 4.204,0.051 4.204,0.051c0.733,0.018 1.475,0.019 2.225,0.004c0.732,-0.014 1.472,-0.045 2.22,-0.091c-0,0 1.623,-0.068 1.623,-0.068c-0,0 1.409,-0.07 1.409,-0.07l1.214,-0.084Zm-28.254,15.881l-0.507,3.439c-0,0 -0.297,2.163 -0.297,2.163c-0,-0 -0.246,1.904 -0.246,1.904l-0.245,2.046c-0.001,0.242 0.029,0.434 0.156,0.554c0.132,0.124 0.337,0.159 0.598,0.16l0.312,0.002l0.267,-0.029c0.046,-0.012 0.093,-0.018 0.141,-0.018l0.385,-0.038c0.184,-0.03 0.371,0.03 0.502,0.161l0.445,0.459l-0.245,-1.773c-0,-0 -0.721,-5.119 -0.721,-5.119l-0.545,-3.911Z"/><path d="M113.843,55.581c0.028,-0.054 0.059,-0.112 0.097,-0.172c0.039,-0.06 0.082,-0.123 0.13,-0.182c0.02,-0.025 0.042,-0.049 0.064,-0.072c0.078,-0.08 0.159,-0.153 0.237,-0.22c0.207,-0.176 0.377,-0.291 0.379,-0.292c0.098,-0.098 0.098,-0.256 -0,-0.353c-0.098,-0.098 -0.256,-0.098 -0.354,-0c-0.001,0.002 -0.111,0.19 -0.267,0.434c-0.056,0.088 -0.117,0.181 -0.184,0.273c-0.019,0.026 -0.039,0.052 -0.06,0.077c-0.051,0.06 -0.103,0.118 -0.155,0.171c-0.173,0.176 -0.312,0.325 -0.364,0.411c-0.054,0.091 -0.022,0.168 -0.011,0.218c0.007,0.031 0.033,0.049 0.05,0.074c0.034,0.053 0.106,0.066 0.211,0.077c0.039,0.004 0.09,-0.016 0.17,-0.037c0.123,-0.061 0.173,-0.212 0.112,-0.335c-0.014,-0.028 -0.033,-0.052 -0.055,-0.072Z"/><path d="M111.367,55.928c0.175,-0.257 0.338,-0.511 0.52,-0.756c0.121,-0.164 0.244,-0.325 0.379,-0.477c0.134,-0.153 0.28,-0.294 0.426,-0.436c0.22,-0.215 0.446,-0.415 0.673,-0.629c0.089,-0.105 0.077,-0.263 -0.028,-0.352c-0.104,-0.09 -0.262,-0.078 -0.352,0.027c-0.176,0.255 -0.342,0.507 -0.524,0.752c-0.121,0.164 -0.242,0.327 -0.375,0.48c-0.133,0.154 -0.277,0.297 -0.423,0.44c-0.219,0.214 -0.448,0.412 -0.676,0.625c-0.09,0.105 -0.078,0.263 0.027,0.353c0.105,0.089 0.263,0.077 0.353,-0.027Z"/><path d="M109.924,55.914c0.024,-0.25 0.097,-0.499 0.22,-0.743c0.081,-0.159 0.177,-0.316 0.288,-0.467c0.082,-0.111 0.17,-0.22 0.265,-0.323c0.095,-0.104 0.196,-0.201 0.299,-0.296c0.337,-0.309 0.687,-0.582 0.968,-0.853c0.091,-0.103 0.081,-0.261 -0.023,-0.352c-0.104,-0.091 -0.262,-0.081 -0.353,0.023c-0.182,0.251 -0.395,0.52 -0.626,0.794c-0.146,0.173 -0.294,0.35 -0.445,0.523c-0.128,0.146 -0.258,0.289 -0.38,0.433c-0.131,0.155 -0.253,0.308 -0.361,0.467c-0.152,0.224 -0.268,0.454 -0.343,0.696c-0.027,0.135 0.061,0.267 0.196,0.294c0.136,0.027 0.268,-0.061 0.295,-0.196Z"/><path d="M109.191,55.198c0.105,-0.233 0.199,-0.46 0.318,-0.681c0.079,-0.147 0.161,-0.29 0.259,-0.424c0.098,-0.133 0.21,-0.253 0.327,-0.37c0.172,-0.175 0.361,-0.325 0.559,-0.478c0.098,-0.098 0.098,-0.256 0,-0.354c-0.097,-0.098 -0.256,-0.098 -0.353,0c-0.162,0.21 -0.301,0.423 -0.444,0.638c-0.094,0.143 -0.183,0.286 -0.283,0.424c-0.098,0.137 -0.205,0.267 -0.312,0.398c-0.162,0.198 -0.329,0.383 -0.495,0.582c-0.073,0.117 -0.037,0.272 0.08,0.345c0.117,0.073 0.271,0.037 0.344,-0.08Z"/><path d="M107.501,55.085c0.125,-0.297 0.243,-0.606 0.396,-0.907c0.099,-0.194 0.205,-0.385 0.331,-0.563c0.126,-0.177 0.272,-0.338 0.425,-0.487c0.23,-0.224 0.487,-0.403 0.765,-0.551c0.114,-0.077 0.146,-0.232 0.069,-0.347c-0.077,-0.115 -0.232,-0.146 -0.347,-0.069c-0.27,0.221 -0.501,0.48 -0.716,0.764c-0.114,0.15 -0.221,0.307 -0.33,0.464c-0.071,0.103 -0.145,0.205 -0.218,0.307c-0.109,0.154 -0.218,0.307 -0.327,0.46c-0.166,0.235 -0.33,0.463 -0.487,0.69c-0.066,0.121 -0.022,0.273 0.099,0.339c0.122,0.066 0.274,0.022 0.34,-0.1Z"/><path d="M105.313,55.664c0.109,-0.338 0.235,-0.661 0.406,-0.963c0.116,-0.205 0.244,-0.403 0.393,-0.585c0.149,-0.182 0.319,-0.347 0.494,-0.505c0.263,-0.238 0.547,-0.446 0.838,-0.653c0.105,-0.09 0.117,-0.248 0.027,-0.353c-0.09,-0.104 -0.248,-0.116 -0.353,-0.027c-0.153,0.16 -0.3,0.322 -0.446,0.487c-0.146,0.166 -0.287,0.332 -0.426,0.502c-0.092,0.114 -0.182,0.228 -0.274,0.342c-0.092,0.113 -0.185,0.226 -0.276,0.339c-0.122,0.154 -0.242,0.308 -0.358,0.467c-0.175,0.24 -0.338,0.486 -0.484,0.752c-0.055,0.126 0.004,0.274 0.131,0.328c0.127,0.054 0.274,-0.005 0.328,-0.131Z"/><path d="M104.135,55.765c-0.028,-0.276 -0.009,-0.524 0.064,-0.755c0.054,-0.17 0.129,-0.329 0.222,-0.48c0.072,-0.115 0.152,-0.225 0.241,-0.329c0.089,-0.104 0.187,-0.202 0.288,-0.297c0.31,-0.294 0.645,-0.565 0.933,-0.886c0.083,-0.11 0.06,-0.267 -0.05,-0.35c-0.111,-0.083 -0.267,-0.06 -0.35,0.05c-0.15,0.246 -0.318,0.477 -0.498,0.702c-0.124,0.156 -0.248,0.309 -0.373,0.46c-0.108,0.13 -0.213,0.259 -0.315,0.39c-0.105,0.136 -0.205,0.273 -0.294,0.418c-0.193,0.313 -0.328,0.657 -0.368,1.077c-0,0.138 0.112,0.25 0.25,0.25c0.138,-0 0.25,-0.112 0.25,-0.25Z"/><path d="M102.199,55.698c0.182,-0.355 0.351,-0.723 0.544,-1.087c0.126,-0.235 0.256,-0.47 0.402,-0.694c0.147,-0.223 0.311,-0.434 0.481,-0.637c0.257,-0.307 0.538,-0.581 0.835,-0.835c0.098,-0.097 0.098,-0.256 0,-0.353c-0.097,-0.098 -0.256,-0.098 -0.353,-0c-0.178,0.211 -0.342,0.433 -0.501,0.664c-0.123,0.18 -0.24,0.363 -0.359,0.549c-0.116,0.182 -0.229,0.367 -0.348,0.549c-0.142,0.217 -0.29,0.43 -0.438,0.642c-0.226,0.323 -0.459,0.632 -0.687,0.937c-0.073,0.117 -0.038,0.271 0.079,0.344c0.117,0.073 0.272,0.038 0.345,-0.079Z"/><path d="M95.207,56.795c0.142,-0.295 0.28,-0.589 0.439,-0.88c0.105,-0.192 0.211,-0.383 0.329,-0.567c0.119,-0.186 0.248,-0.363 0.374,-0.543c0.194,-0.276 0.389,-0.544 0.567,-0.826c0.062,-0.124 0.012,-0.274 -0.112,-0.336c-0.123,-0.061 -0.273,-0.011 -0.335,0.112c-0.116,0.303 -0.236,0.601 -0.382,0.893c-0.098,0.194 -0.198,0.387 -0.314,0.572c-0.116,0.185 -0.246,0.36 -0.377,0.534c-0.201,0.267 -0.413,0.517 -0.614,0.779c-0.073,0.117 -0.036,0.271 0.081,0.344c0.118,0.072 0.272,0.035 0.344,-0.082Z"/><path d="M93.936,55.334c0.051,-0.315 0.099,-0.567 0.183,-0.792c0.065,-0.176 0.141,-0.335 0.241,-0.485c0.096,-0.146 0.214,-0.281 0.347,-0.429c0.166,-0.183 0.361,-0.371 0.587,-0.61c0.083,-0.11 0.061,-0.267 -0.05,-0.35c-0.11,-0.083 -0.267,-0.06 -0.35,0.05c-0.134,0.233 -0.248,0.43 -0.359,0.61c-0.09,0.146 -0.172,0.279 -0.253,0.405c-0.074,0.116 -0.146,0.226 -0.217,0.337c-0.072,0.112 -0.143,0.224 -0.215,0.344c-0.132,0.223 -0.261,0.465 -0.394,0.783c-0.038,0.132 0.039,0.271 0.171,0.309c0.133,0.038 0.271,-0.039 0.309,-0.172Z"/><path d="M92.719,55.18c0.131,-0.326 0.251,-0.652 0.39,-0.975c0.092,-0.214 0.186,-0.426 0.294,-0.633c0.107,-0.206 0.228,-0.405 0.349,-0.604c0.183,-0.3 0.376,-0.588 0.566,-0.884c0.063,-0.123 0.015,-0.274 -0.108,-0.337c-0.122,-0.063 -0.273,-0.015 -0.337,0.107c-0.131,0.326 -0.254,0.651 -0.393,0.974c-0.092,0.214 -0.184,0.427 -0.29,0.634c-0.106,0.208 -0.225,0.408 -0.345,0.606c-0.183,0.301 -0.379,0.587 -0.57,0.883c-0.063,0.123 -0.015,0.274 0.108,0.337c0.122,0.063 0.273,0.015 0.336,-0.108Z"/><path d="M92.535,53.946c0.094,-0.393 0.19,-0.766 0.315,-1.128c0.086,-0.248 0.179,-0.491 0.289,-0.728c0.109,-0.236 0.237,-0.464 0.368,-0.694c0.19,-0.335 0.4,-0.663 0.612,-1.013c0.062,-0.124 0.012,-0.274 -0.111,-0.336c-0.124,-0.061 -0.274,-0.011 -0.336,0.112c-0.153,0.382 -0.293,0.746 -0.44,1.102c-0.103,0.247 -0.201,0.49 -0.311,0.729c-0.11,0.24 -0.228,0.475 -0.345,0.714c-0.173,0.353 -0.352,0.704 -0.516,1.084c-0.043,0.131 0.027,0.272 0.158,0.316c0.131,0.044 0.273,-0.027 0.317,-0.158Z"/><path d="M92.54,51.43c0.025,-0.281 0.032,-0.48 0.053,-0.645c0.021,-0.167 0.042,-0.291 0.08,-0.408c0.04,-0.118 0.098,-0.227 0.184,-0.368c0.084,-0.14 0.202,-0.296 0.363,-0.525c0.062,-0.124 0.012,-0.274 -0.112,-0.336c-0.123,-0.061 -0.273,-0.011 -0.335,0.112c-0.045,0.145 -0.08,0.265 -0.115,0.373c-0.048,0.152 -0.086,0.269 -0.12,0.374c-0.029,0.093 -0.053,0.174 -0.079,0.253c-0.026,0.082 -0.053,0.161 -0.083,0.251c-0.032,0.094 -0.069,0.196 -0.118,0.324c-0.052,0.132 -0.119,0.28 -0.203,0.474c-0.034,0.134 0.048,0.27 0.182,0.303c0.134,0.034 0.27,-0.048 0.303,-0.182Z"/><path d="M91.443,50.125c0.019,-0.258 0.032,-0.481 0.073,-0.693c0.029,-0.157 0.064,-0.305 0.117,-0.446c0.054,-0.144 0.126,-0.278 0.204,-0.415c0.108,-0.191 0.239,-0.373 0.384,-0.586c0.062,-0.123 0.012,-0.273 -0.111,-0.335c-0.124,-0.062 -0.274,-0.012 -0.336,0.112c-0.085,0.251 -0.149,0.471 -0.218,0.686c-0.049,0.156 -0.093,0.306 -0.147,0.455c-0.054,0.147 -0.116,0.291 -0.179,0.444c-0.085,0.208 -0.18,0.418 -0.275,0.67c-0.03,0.135 0.055,0.268 0.189,0.298c0.135,0.03 0.269,-0.055 0.299,-0.19Z"/><path d="M86.198,56.523c0.204,-0.302 0.4,-0.615 0.619,-0.923c0.141,-0.2 0.286,-0.398 0.444,-0.587c0.158,-0.188 0.33,-0.364 0.502,-0.536c0.264,-0.263 0.54,-0.502 0.815,-0.733c0.098,-0.098 0.098,-0.256 0,-0.354c-0.097,-0.097 -0.256,-0.097 -0.353,0c-0.236,0.282 -0.459,0.582 -0.692,0.885c-0.15,0.195 -0.297,0.394 -0.455,0.585c-0.158,0.19 -0.325,0.372 -0.492,0.552c-0.257,0.277 -0.52,0.535 -0.775,0.794c-0.088,0.107 -0.072,0.264 0.035,0.352c0.107,0.087 0.264,0.071 0.352,-0.035Z"/><path d="M84.53,56.176c0.099,-0.298 0.162,-0.504 0.235,-0.668c0.073,-0.162 0.139,-0.279 0.231,-0.391c0.085,-0.103 0.191,-0.198 0.336,-0.324c0.141,-0.122 0.32,-0.259 0.558,-0.458c0.092,-0.102 0.085,-0.261 -0.017,-0.353c-0.102,-0.093 -0.261,-0.086 -0.353,0.016c-0.105,0.155 -0.19,0.283 -0.27,0.394c-0.088,0.122 -0.161,0.221 -0.229,0.306c-0.093,0.119 -0.168,0.214 -0.242,0.306c-0.093,0.115 -0.179,0.227 -0.289,0.379c-0.104,0.146 -0.233,0.318 -0.407,0.57c-0.062,0.123 -0.012,0.273 0.111,0.335c0.124,0.062 0.274,0.012 0.336,-0.112Z"/><path d="M83.254,55.606c0.01,-0.269 0.021,-0.469 0.056,-0.633c0.032,-0.154 0.074,-0.273 0.135,-0.379c0.051,-0.087 0.111,-0.167 0.186,-0.249c0.067,-0.072 0.146,-0.144 0.236,-0.228c0.107,-0.098 0.228,-0.207 0.372,-0.342c0.11,-0.104 0.23,-0.218 0.366,-0.356c0.083,-0.109 0.063,-0.266 -0.047,-0.35c-0.11,-0.084 -0.267,-0.063 -0.351,0.047c-0.139,0.236 -0.254,0.423 -0.365,0.577c-0.105,0.146 -0.197,0.263 -0.282,0.363c-0.096,0.114 -0.181,0.208 -0.257,0.304c-0.085,0.106 -0.158,0.214 -0.231,0.349c-0.102,0.193 -0.199,0.435 -0.311,0.815c-0.023,0.136 0.069,0.265 0.205,0.288c0.137,0.022 0.265,-0.07 0.288,-0.206Z"/><path d="M82.117,55.404c0.144,-0.278 0.281,-0.554 0.437,-0.825c0.104,-0.18 0.209,-0.359 0.326,-0.531c0.116,-0.173 0.244,-0.336 0.371,-0.502c0.192,-0.252 0.388,-0.496 0.573,-0.754c0.068,-0.12 0.027,-0.272 -0.093,-0.341c-0.12,-0.068 -0.273,-0.027 -0.341,0.093c-0.125,0.284 -0.25,0.563 -0.397,0.836c-0.098,0.182 -0.197,0.363 -0.312,0.535c-0.115,0.172 -0.243,0.334 -0.372,0.496c-0.197,0.245 -0.406,0.474 -0.608,0.716c-0.077,0.115 -0.046,0.27 0.069,0.346c0.115,0.077 0.27,0.046 0.347,-0.069Z"/><path d="M80.511,55.116c0.173,-0.289 0.332,-0.572 0.51,-0.846c0.119,-0.184 0.24,-0.366 0.373,-0.538c0.134,-0.173 0.279,-0.335 0.426,-0.498c0.22,-0.242 0.45,-0.47 0.684,-0.709c0.086,-0.108 0.068,-0.265 -0.039,-0.352c-0.108,-0.086 -0.266,-0.068 -0.352,0.039c-0.183,0.282 -0.352,0.561 -0.534,0.834c-0.122,0.183 -0.242,0.366 -0.375,0.54c-0.132,0.174 -0.275,0.339 -0.421,0.505c-0.215,0.245 -0.443,0.477 -0.672,0.725c-0.083,0.11 -0.061,0.267 0.05,0.35c0.11,0.083 0.267,0.06 0.35,-0.05Z"/><path d="M79.429,55.589c0.114,-0.272 0.212,-0.527 0.326,-0.772c0.079,-0.171 0.16,-0.336 0.253,-0.494c0.094,-0.16 0.2,-0.31 0.309,-0.462c0.159,-0.222 0.33,-0.434 0.508,-0.665c0.071,-0.118 0.032,-0.272 -0.086,-0.343c-0.119,-0.071 -0.272,-0.032 -0.343,0.086c-0.121,0.266 -0.225,0.519 -0.343,0.767c-0.081,0.168 -0.159,0.335 -0.252,0.496c-0.092,0.159 -0.196,0.312 -0.304,0.467c-0.155,0.222 -0.326,0.435 -0.502,0.672c-0.069,0.12 -0.027,0.273 0.093,0.341c0.119,0.069 0.272,0.027 0.341,-0.093Z"/><path d="M78.032,55.986c0.182,-0.397 0.362,-0.784 0.569,-1.157c0.14,-0.252 0.286,-0.499 0.447,-0.737c0.162,-0.237 0.339,-0.463 0.52,-0.688c0.268,-0.335 0.554,-0.655 0.843,-0.985c0.082,-0.111 0.06,-0.268 -0.05,-0.35c-0.111,-0.083 -0.268,-0.061 -0.35,0.05c-0.239,0.372 -0.462,0.742 -0.692,1.107c-0.156,0.246 -0.307,0.492 -0.469,0.732c-0.161,0.241 -0.331,0.475 -0.5,0.712c-0.252,0.354 -0.51,0.702 -0.755,1.073c-0.067,0.121 -0.024,0.273 0.097,0.34c0.12,0.067 0.273,0.024 0.34,-0.097Z"/><path d="M85.129,30.904c0.074,-0.222 0.147,-0.435 0.249,-0.64c0.068,-0.14 0.141,-0.277 0.226,-0.406c0.087,-0.131 0.186,-0.252 0.283,-0.375c0.151,-0.192 0.302,-0.375 0.441,-0.577c0.062,-0.123 0.011,-0.274 -0.112,-0.335c-0.123,-0.062 -0.274,-0.012 -0.335,0.111c-0.075,0.22 -0.152,0.431 -0.254,0.638c-0.068,0.139 -0.138,0.276 -0.223,0.407c-0.085,0.131 -0.182,0.254 -0.279,0.379c-0.149,0.191 -0.302,0.371 -0.443,0.574c-0.062,0.124 -0.012,0.274 0.112,0.336c0.123,0.061 0.273,0.011 0.335,-0.112Z"/><path d="M84.44,29.583c0.077,-0.312 0.138,-0.564 0.217,-0.784c0.066,-0.184 0.133,-0.344 0.217,-0.492c0.087,-0.156 0.191,-0.295 0.307,-0.444c0.148,-0.191 0.322,-0.382 0.532,-0.628c0.076,-0.115 0.045,-0.27 -0.069,-0.347c-0.115,-0.076 -0.271,-0.045 -0.347,0.069c-0.148,0.291 -0.262,0.525 -0.374,0.74c-0.09,0.172 -0.17,0.332 -0.258,0.493c-0.086,0.155 -0.178,0.309 -0.278,0.484c-0.12,0.21 -0.258,0.437 -0.414,0.73c-0.05,0.129 0.015,0.273 0.144,0.323c0.128,0.049 0.273,-0.015 0.323,-0.144Z"/><path d="M83.831,28.806c0.021,-0.116 0.033,-0.206 0.058,-0.29c0.021,-0.072 0.042,-0.13 0.066,-0.181c0.024,-0.05 0.048,-0.091 0.073,-0.125c0.035,-0.048 0.07,-0.083 0.099,-0.117c0.041,-0.046 0.067,-0.088 0.098,-0.136c0.056,-0.084 0.082,-0.181 0.131,-0.361c0,-0.138 -0.112,-0.25 -0.25,-0.25c-0.138,-0 -0.25,0.112 -0.25,0.25c0.031,0.113 0.062,0.175 0.057,0.239c-0.005,0.053 -0.013,0.098 -0.039,0.154c-0.015,0.031 -0.032,0.066 -0.056,0.103c-0.03,0.043 -0.067,0.09 -0.112,0.144c-0.037,0.043 -0.077,0.087 -0.126,0.139c-0.059,0.063 -0.12,0.125 -0.197,0.208c-0.061,0.123 -0.011,0.273 0.112,0.335c0.124,0.062 0.274,0.012 0.336,-0.112Z"/><path d="M83.128,28.214c0.041,-0.15 0.07,-0.291 0.12,-0.438c0.033,-0.094 0.067,-0.187 0.115,-0.274c0.047,-0.087 0.108,-0.165 0.169,-0.243c0.095,-0.123 0.194,-0.227 0.295,-0.344c0.065,-0.122 0.02,-0.273 -0.102,-0.339c-0.121,-0.065 -0.273,-0.02 -0.338,0.102c-0.043,0.149 -0.075,0.289 -0.125,0.435c-0.032,0.095 -0.063,0.188 -0.11,0.276c-0.046,0.088 -0.105,0.167 -0.166,0.246c-0.094,0.123 -0.196,0.225 -0.298,0.341c-0.066,0.122 -0.02,0.274 0.101,0.339c0.122,0.066 0.273,0.02 0.339,-0.101Z"/></g><g><path d="M134.126,56.497l5.003,0.008l4.378,0.111l4.333,0.114c0.164,0.004 0.323,-0.057 0.443,-0.17l0.811,-0.773c0.094,-0.089 0.158,-0.206 0.183,-0.334l0.924,-4.822c0,-0 0.834,-4.105 0.834,-4.105c-0.001,0.008 0.839,-3.897 0.839,-3.897c0.029,-0.138 0.002,-0.283 -0.077,-0.4l-0.484,-0.718c-0.108,-0.16 -0.294,-0.248 -0.486,-0.229l-6.237,0.662c-0.214,0.022 -0.389,0.183 -0.427,0.396c-0.15,0.871 -0.3,1.656 -0.452,2.355c-0.124,0.572 -0.248,1.086 -0.373,1.542c-0.121,0.441 -0.25,0.839 -0.39,1.194c-0.167,0.425 -0.346,0.786 -0.54,1.084c-0.157,0.24 -0.329,0.445 -0.518,0.612c-0.198,0.176 -0.414,0.311 -0.649,0.403c-0.263,0.103 -0.559,0.178 -0.889,0.226c-0.293,0.043 -0.612,0.065 -0.955,0.067c-0.331,0.002 -0.584,-0.068 -0.743,-0.259c-0.161,-0.193 -0.224,-0.48 -0.226,-0.851l0.11,-1.59c-0,-0 0.323,-2.675 0.323,-2.675c0,-0 0.49,-3.306 0.49,-3.306c0,-0 0.539,-3.51 0.539,-3.51c0,0 0.518,-3.283 0.518,-3.283l0.451,-2.623c0.052,-0.343 0.149,-0.639 0.295,-0.886c0.155,-0.262 0.365,-0.466 0.63,-0.613c0.284,-0.157 0.689,-0.29 1.213,-0.406c0.547,-0.12 1.217,-0.219 2.012,-0.296c0.148,-0.015 0.271,-0.123 0.306,-0.268l1.109,-4.703c0.026,-0.108 -0.001,-0.222 -0.072,-0.308c-0.071,-0.086 -0.178,-0.133 -0.289,-0.128l-4.085,0.137l-3.34,0.061c-0,-0 -2.474,0.016 -2.474,0.016c0,-0 -7.651,-0.032 -7.651,-0.032c-0.193,-0 -0.36,0.133 -0.403,0.321l-0.835,3.596c-0.022,0.098 -0.01,0.199 0.035,0.288l0.332,0.674c0.074,0.147 0.224,0.24 0.388,0.24l0.432,0.002l0.768,-0.044c0.221,0.002 0.409,0.024 0.564,0.071c0.137,0.042 0.242,0.102 0.3,0.2c0.071,0.12 0.093,0.308 0.101,0.559c0.01,0.301 -0.017,0.674 -0.077,1.119l-2.125,16.22c-0.083,0.702 -0.207,1.296 -0.373,1.782c-0.137,0.397 -0.3,0.714 -0.499,0.949c-0.224,0.263 -0.538,0.468 -0.932,0.63c-0.351,0.143 -0.762,0.249 -1.232,0.322c-0.249,0.04 -0.447,0.228 -0.5,0.474l-0.995,4.408c-0.043,0.199 0.009,0.406 0.141,0.56c0.133,0.154 0.329,0.237 0.532,0.224l3.233,-0.215c-0.013,0.001 3.187,-0.141 3.187,-0.141c-0,0 3.571,-0.042 3.571,-0.042Zm0,-1.456c-0.608,0.005 -1.213,0.016 -1.814,0.033c-0.609,0.016 -1.213,0.039 -1.814,0.069l-3.245,0.195l-2.347,0.194c-0,0 0.664,-3.177 0.664,-3.177c0.532,-0.117 0.992,-0.277 1.38,-0.477c0.447,-0.23 0.806,-0.511 1.078,-0.841c0.276,-0.334 0.513,-0.778 0.696,-1.339c0.182,-0.554 0.317,-1.229 0.4,-2.026c-0.001,0.007 1.907,-16.23 1.907,-16.23c0.077,-0.621 0.093,-1.12 0.054,-1.496c-0.035,-0.332 -0.114,-0.583 -0.222,-0.76c-0.139,-0.229 -0.348,-0.409 -0.639,-0.528c-0.257,-0.105 -0.588,-0.164 -0.994,-0.162l-0.768,0.053c0,-0 -0.166,0.001 -0.166,0.001c0,-0 -0.148,-0.294 -0.148,-0.294c-0,-0 0.696,-3.132 0.696,-3.132c0,0 7.32,-0.03 7.32,-0.03l2.484,-0.032c0,-0 3.349,-0.083 3.349,-0.083c0,-0 3.63,-0.134 3.63,-0.134c-0,0 -0.936,4.01 -0.936,4.01c-0.719,0.077 -1.333,0.172 -1.844,0.285c-0.607,0.133 -1.073,0.293 -1.402,0.474c-0.377,0.208 -0.675,0.497 -0.895,0.867c-0.188,0.317 -0.318,0.694 -0.387,1.134c-0,-0 -0.462,2.614 -0.462,2.614c-0,0 -0.538,3.292 -0.538,3.292c-0,0 -0.565,3.499 -0.565,3.499c-0,-0 -0.518,3.318 -0.518,3.318c-0,-0 -0.349,2.701 -0.349,2.701c0,-0 -0.13,1.674 -0.13,1.674c-0.003,0.608 0.146,1.066 0.406,1.385c0.3,0.367 0.758,0.573 1.39,0.576c0.387,0.002 0.745,-0.02 1.075,-0.064c0.402,-0.055 0.762,-0.145 1.083,-0.266c0.33,-0.125 0.636,-0.31 0.917,-0.554c0.246,-0.214 0.473,-0.475 0.679,-0.783c0.188,-0.28 0.365,-0.609 0.532,-0.987c0.194,-0.442 0.375,-0.954 0.54,-1.535c0.163,-0.573 0.327,-1.234 0.491,-1.984c0.11,-0.503 0.221,-1.046 0.332,-1.629c0,-0 5.569,-0.522 5.569,-0.522c-0,-0 0.18,0.273 0.18,0.273l-0.842,3.669l-0.894,4.103c0,0 -0.953,4.624 -0.953,4.624c-0,-0 -0.486,0.45 -0.486,0.45c-0,0 -4.058,-0.163 -4.058,-0.163c0.004,-0 -4.406,-0.178 -4.406,-0.178c0,0 -5.03,-0.087 -5.03,-0.087Z"/><path d="M131.184,31.204c0.104,-0.274 0.221,-0.595 0.376,-0.923c0.093,-0.196 0.194,-0.396 0.311,-0.585c0.118,-0.191 0.253,-0.368 0.387,-0.535c0.227,-0.28 0.464,-0.513 0.677,-0.689c0.098,-0.098 0.098,-0.256 0,-0.354c-0.097,-0.098 -0.256,-0.098 -0.353,0c-0.132,0.162 -0.264,0.357 -0.4,0.576c-0.091,0.149 -0.182,0.307 -0.277,0.469c-0.09,0.153 -0.178,0.31 -0.274,0.464c-0.115,0.185 -0.235,0.366 -0.353,0.542c-0.196,0.296 -0.387,0.568 -0.541,0.811c-0.062,0.123 -0.012,0.274 0.112,0.335c0.123,0.062 0.273,0.012 0.335,-0.111Z"/><path d="M131.184,28.906c0.084,-0.243 0.163,-0.474 0.271,-0.696c0.074,-0.151 0.152,-0.298 0.247,-0.435c0.094,-0.138 0.204,-0.263 0.317,-0.388c0.168,-0.186 0.349,-0.355 0.535,-0.534c0.086,-0.108 0.069,-0.265 -0.039,-0.352c-0.108,-0.086 -0.265,-0.068 -0.351,0.039c-0.137,0.225 -0.26,0.446 -0.391,0.665c-0.089,0.147 -0.174,0.294 -0.269,0.435c-0.096,0.142 -0.199,0.277 -0.302,0.414c-0.156,0.207 -0.314,0.407 -0.465,0.628c-0.062,0.124 -0.012,0.274 0.112,0.336c0.123,0.062 0.273,0.011 0.335,-0.112Z"/><path d="M129.896,28.582c0.015,-0.15 0.016,-0.269 0.039,-0.387c0.017,-0.086 0.037,-0.165 0.07,-0.235c0.027,-0.055 0.064,-0.101 0.103,-0.146c0.025,-0.03 0.054,-0.055 0.084,-0.082c0.071,-0.062 0.151,-0.104 0.246,-0.159c0.098,-0.098 0.098,-0.256 0,-0.354c-0.097,-0.098 -0.256,-0.098 -0.353,-0c-0.059,0.101 -0.104,0.183 -0.144,0.276c-0.028,0.065 -0.054,0.123 -0.079,0.187c-0.02,0.05 -0.038,0.1 -0.061,0.15c-0.022,0.047 -0.047,0.093 -0.074,0.141c-0.034,0.058 -0.07,0.115 -0.112,0.178c-0.056,0.083 -0.116,0.159 -0.187,0.256c-0.049,0.129 0.017,0.273 0.146,0.322c0.129,0.048 0.274,-0.017 0.322,-0.147Z"/><path d="M128.68,28.319c0.012,-0.094 0.011,-0.168 0.032,-0.26c0.013,-0.054 0.027,-0.107 0.055,-0.154c0.028,-0.049 0.068,-0.085 0.109,-0.124c0.068,-0.064 0.131,-0.103 0.204,-0.161c0.068,-0.12 0.027,-0.273 -0.093,-0.341c-0.12,-0.069 -0.273,-0.027 -0.341,0.093c-0.013,0.092 -0.015,0.166 -0.036,0.257c-0.012,0.055 -0.024,0.108 -0.051,0.157c-0.027,0.048 -0.065,0.087 -0.105,0.125c-0.068,0.066 -0.133,0.102 -0.208,0.16c-0.068,0.12 -0.027,0.273 0.093,0.341c0.12,0.068 0.273,0.027 0.341,-0.093Z"/><path d="M145.748,56.11c0.1,-0.207 0.178,-0.373 0.275,-0.52c0.075,-0.114 0.15,-0.217 0.238,-0.31c0.089,-0.094 0.188,-0.176 0.296,-0.266c0.14,-0.117 0.294,-0.231 0.476,-0.385c0.09,-0.105 0.078,-0.263 -0.027,-0.353c-0.105,-0.089 -0.263,-0.077 -0.353,0.028c-0.12,0.197 -0.215,0.357 -0.319,0.5c-0.083,0.114 -0.161,0.217 -0.248,0.313c-0.09,0.097 -0.186,0.185 -0.29,0.281c-0.136,0.126 -0.283,0.251 -0.455,0.421c-0.08,0.113 -0.054,0.269 0.058,0.349c0.113,0.08 0.269,0.054 0.349,-0.058Z"/><path d="M142.615,55.551c0.168,-0.2 0.314,-0.385 0.469,-0.559c0.111,-0.123 0.218,-0.242 0.334,-0.353c0.117,-0.112 0.242,-0.215 0.366,-0.322c0.182,-0.157 0.366,-0.311 0.557,-0.494c0.087,-0.107 0.069,-0.265 -0.039,-0.351c-0.107,-0.086 -0.265,-0.069 -0.351,0.039c-0.13,0.217 -0.25,0.413 -0.389,0.595c-0.098,0.128 -0.197,0.25 -0.31,0.361c-0.113,0.11 -0.238,0.208 -0.369,0.305c-0.186,0.139 -0.386,0.262 -0.602,0.407c-0.103,0.093 -0.111,0.251 -0.019,0.354c0.093,0.102 0.251,0.11 0.353,0.018Z"/><path d="M141.666,55.689c0.089,-0.224 0.172,-0.442 0.28,-0.655c0.071,-0.142 0.146,-0.281 0.235,-0.413c0.089,-0.132 0.191,-0.253 0.293,-0.375c0.156,-0.186 0.32,-0.357 0.482,-0.54c0.076,-0.115 0.045,-0.27 -0.07,-0.347c-0.114,-0.076 -0.27,-0.045 -0.346,0.07c-0.107,0.218 -0.205,0.432 -0.319,0.645c-0.076,0.141 -0.151,0.281 -0.239,0.415c-0.089,0.134 -0.188,0.259 -0.287,0.385c-0.153,0.193 -0.311,0.371 -0.463,0.567c-0.068,0.12 -0.027,0.273 0.093,0.341c0.12,0.069 0.273,0.027 0.341,-0.093Z"/><path d="M138.629,55.642c0.211,-0.274 0.354,-0.469 0.485,-0.622c0.132,-0.156 0.237,-0.27 0.356,-0.38c0.113,-0.104 0.238,-0.2 0.407,-0.328c0.163,-0.123 0.367,-0.262 0.643,-0.462c0.102,-0.094 0.107,-0.252 0.014,-0.353c-0.094,-0.101 -0.253,-0.107 -0.354,-0.013c-0.219,0.26 -0.373,0.451 -0.51,0.602c-0.142,0.157 -0.25,0.274 -0.363,0.379c-0.119,0.112 -0.24,0.212 -0.401,0.342c-0.157,0.127 -0.355,0.269 -0.63,0.481c-0.098,0.098 -0.098,0.256 -0,0.354c0.097,0.098 0.256,0.098 0.353,-0Z"/><path d="M136.652,55.519c0.144,-0.242 0.274,-0.469 0.426,-0.682c0.104,-0.147 0.211,-0.289 0.331,-0.42c0.121,-0.131 0.253,-0.249 0.389,-0.368c0.199,-0.173 0.41,-0.331 0.631,-0.505c0.098,-0.097 0.098,-0.256 0,-0.353c-0.097,-0.098 -0.256,-0.098 -0.353,-0c-0.176,0.224 -0.333,0.439 -0.499,0.647c-0.114,0.143 -0.224,0.285 -0.345,0.418c-0.121,0.134 -0.249,0.26 -0.38,0.387c-0.192,0.187 -0.391,0.366 -0.595,0.569c-0.084,0.109 -0.065,0.266 0.044,0.351c0.109,0.084 0.266,0.065 0.351,-0.044Z"/><path d="M134.859,56.012c0.207,-0.342 0.41,-0.679 0.637,-1.005c0.152,-0.217 0.307,-0.431 0.476,-0.635c0.169,-0.205 0.35,-0.398 0.533,-0.59c0.275,-0.291 0.559,-0.567 0.841,-0.854c0.088,-0.106 0.074,-0.264 -0.032,-0.352c-0.106,-0.088 -0.264,-0.074 -0.352,0.032c-0.232,0.328 -0.455,0.656 -0.692,0.977c-0.158,0.215 -0.315,0.429 -0.483,0.635c-0.168,0.206 -0.346,0.404 -0.524,0.603c-0.268,0.299 -0.543,0.588 -0.809,0.895c-0.081,0.111 -0.056,0.268 0.056,0.349c0.111,0.081 0.268,0.056 0.349,-0.055Z"/><path d="M133.173,55.594c0.123,-0.272 0.233,-0.543 0.369,-0.807c0.089,-0.174 0.182,-0.346 0.291,-0.507c0.109,-0.161 0.235,-0.309 0.365,-0.453c0.193,-0.213 0.407,-0.399 0.635,-0.582c0.098,-0.098 0.098,-0.256 0,-0.354c-0.097,-0.098 -0.256,-0.098 -0.353,0c-0.116,0.147 -0.221,0.294 -0.325,0.447c-0.103,0.151 -0.199,0.302 -0.296,0.456c-0.064,0.101 -0.126,0.203 -0.192,0.302c-0.065,0.1 -0.134,0.197 -0.203,0.294c-0.093,0.129 -0.187,0.256 -0.282,0.383c-0.144,0.191 -0.291,0.374 -0.438,0.564c-0.071,0.118 -0.033,0.272 0.086,0.343c0.118,0.071 0.272,0.032 0.343,-0.086Z"/><path d="M131.251,55.527c0.255,-0.354 0.489,-0.694 0.736,-1.015c0.172,-0.223 0.344,-0.44 0.529,-0.645c0.185,-0.207 0.383,-0.4 0.585,-0.593c0.294,-0.282 0.606,-0.548 0.933,-0.829c0.098,-0.097 0.098,-0.256 0,-0.353c-0.097,-0.098 -0.256,-0.098 -0.353,-0c-0.284,0.331 -0.542,0.656 -0.805,0.974c-0.179,0.216 -0.353,0.433 -0.539,0.642c-0.184,0.207 -0.377,0.406 -0.574,0.609c-0.284,0.292 -0.583,0.577 -0.893,0.886c-0.089,0.106 -0.077,0.263 0.029,0.353c0.105,0.089 0.263,0.076 0.352,-0.029Z"/><path d="M130.262,54.217c0.12,-0.219 0.23,-0.426 0.363,-0.62c0.09,-0.133 0.184,-0.261 0.291,-0.379c0.107,-0.118 0.227,-0.223 0.349,-0.328c0.181,-0.154 0.372,-0.292 0.572,-0.445c0.097,-0.097 0.097,-0.256 -0,-0.353c-0.098,-0.098 -0.256,-0.098 -0.354,-0c-0.154,0.202 -0.292,0.397 -0.439,0.587c-0.101,0.13 -0.198,0.258 -0.306,0.379c-0.108,0.121 -0.223,0.233 -0.341,0.347c-0.174,0.17 -0.354,0.329 -0.535,0.512c-0.083,0.11 -0.061,0.267 0.05,0.35c0.11,0.083 0.267,0.06 0.35,-0.05Z"/><path d="M127.87,55.907c0.169,-0.306 0.326,-0.62 0.506,-0.929c0.116,-0.201 0.237,-0.401 0.372,-0.59c0.136,-0.189 0.287,-0.365 0.442,-0.536c0.233,-0.259 0.486,-0.489 0.749,-0.707c0.097,-0.098 0.097,-0.256 -0,-0.354c-0.098,-0.097 -0.256,-0.097 -0.354,0c-0.137,0.168 -0.265,0.34 -0.392,0.519c-0.124,0.174 -0.243,0.35 -0.362,0.53c-0.079,0.117 -0.156,0.235 -0.237,0.351c-0.081,0.116 -0.165,0.229 -0.25,0.341c-0.114,0.151 -0.229,0.298 -0.346,0.444c-0.178,0.223 -0.36,0.434 -0.54,0.647c-0.078,0.114 -0.049,0.27 0.065,0.348c0.113,0.078 0.269,0.049 0.347,-0.064Z"/><path d="M126.396,55.963c0.099,-0.318 0.21,-0.616 0.36,-0.896c0.103,-0.192 0.217,-0.378 0.348,-0.552c0.131,-0.174 0.28,-0.334 0.433,-0.493c0.227,-0.236 0.471,-0.456 0.717,-0.692c0.089,-0.104 0.077,-0.262 -0.028,-0.352c-0.104,-0.09 -0.262,-0.078 -0.352,0.027c-0.188,0.269 -0.366,0.531 -0.549,0.789c-0.125,0.176 -0.246,0.352 -0.373,0.524c-0.107,0.144 -0.217,0.284 -0.325,0.428c-0.109,0.144 -0.217,0.288 -0.322,0.438c-0.13,0.186 -0.253,0.376 -0.369,0.582c-0.054,0.127 0.004,0.274 0.131,0.329c0.127,0.054 0.274,-0.005 0.329,-0.132Z"/><path d="M125.395,55.367c0.136,-0.375 0.296,-0.729 0.489,-1.065c0.131,-0.23 0.274,-0.451 0.429,-0.666c0.116,-0.161 0.238,-0.318 0.366,-0.471c0.129,-0.152 0.265,-0.298 0.403,-0.443c0.207,-0.218 0.419,-0.43 0.633,-0.645c0.214,-0.214 0.429,-0.427 0.641,-0.647c0.088,-0.106 0.074,-0.264 -0.032,-0.352c-0.106,-0.089 -0.264,-0.074 -0.352,0.032c-0.249,0.342 -0.502,0.675 -0.761,1.004c-0.176,0.222 -0.35,0.443 -0.527,0.662c-0.149,0.183 -0.298,0.365 -0.447,0.547c-0.15,0.184 -0.299,0.367 -0.445,0.554c-0.314,0.404 -0.608,0.821 -0.854,1.287c-0.056,0.126 0.001,0.274 0.127,0.33c0.126,0.056 0.274,-0.001 0.33,-0.127Z"/></g><g><path d="M44.815,69.916l-0.727,-0l0,-4.09l-4.875,0l0,4.09l-0.721,-0l0,-8.531l0.721,-0l0,3.832l4.875,-0l0,-3.832l0.727,-0l-0,8.531Z" style="fill:#1d1d1b;fill-rule:nonzero;"/><path d="M50.803,68.094l-3.311,-0l-0.726,1.822l-0.727,-0l2.778,-6.826l0.673,-0l2.754,6.826l-0.72,-0l-0.721,-1.822Zm-3.076,-0.598l2.836,-0l-1.412,-3.568l-1.424,3.568Z" style="fill:#1d1d1b;fill-rule:nonzero;"/><path d="M58.801,69.916l-0.697,-0l-4.114,-5.725l0,5.725l-0.697,-0l0,-6.826l0.697,-0l4.114,5.724l-0,-5.724l0.697,-0l-0,6.826Z" style="fill:#1d1d1b;fill-rule:nonzero;"/><path d="M60.606,69.916l-0,-6.826l2.074,-0c0.601,-0 1.14,0.129 1.617,0.386c0.477,0.258 0.849,0.623 1.116,1.093c0.268,0.471 0.406,1.001 0.413,1.591l0,0.639c0,0.605 -0.13,1.143 -0.389,1.614c-0.26,0.471 -0.629,0.837 -1.108,1.099c-0.478,0.261 -1.024,0.396 -1.637,0.404l-2.086,-0Zm0.697,-6.217l-0,5.625l1.336,0c0.758,0 1.362,-0.228 1.813,-0.685c0.451,-0.456 0.677,-1.081 0.677,-1.873l0,-0.556c0,-0.761 -0.221,-1.37 -0.662,-1.826c-0.441,-0.457 -1.043,-0.685 -1.805,-0.685l-1.359,0Z" style="fill:#1d1d1b;fill-rule:nonzero;"/><path d="M71.481,68.223c-0,-0.348 -0.129,-0.627 -0.387,-0.838c-0.258,-0.211 -0.737,-0.406 -1.439,-0.583c-0.701,-0.178 -1.217,-0.357 -1.549,-0.536c-0.332,-0.18 -0.579,-0.39 -0.742,-0.63c-0.162,-0.241 -0.243,-0.525 -0.243,-0.853c0,-0.527 0.231,-0.957 0.692,-1.289c0.461,-0.332 1.06,-0.498 1.799,-0.498c0.742,-0 1.349,0.192 1.822,0.577c0.472,0.385 0.709,0.878 0.709,1.48l-0.703,-0c-0,-0.442 -0.168,-0.795 -0.504,-1.061c-0.336,-0.266 -0.78,-0.398 -1.33,-0.398c-0.543,-0 -0.977,0.109 -1.301,0.328c-0.324,0.219 -0.486,0.504 -0.486,0.855c-0,0.324 0.142,0.589 0.427,0.794c0.285,0.205 0.759,0.392 1.421,0.56c0.662,0.168 1.162,0.343 1.5,0.527c0.338,0.184 0.593,0.403 0.765,0.659c0.172,0.256 0.258,0.556 0.258,0.9c-0,0.547 -0.236,0.982 -0.706,1.306c-0.471,0.325 -1.083,0.487 -1.837,0.487c-0.516,-0 -0.985,-0.083 -1.407,-0.249c-0.421,-0.166 -0.753,-0.405 -0.993,-0.715c-0.24,-0.311 -0.36,-0.681 -0.36,-1.111l0.703,0c0,0.465 0.185,0.83 0.554,1.093c0.369,0.264 0.87,0.396 1.503,0.396c0.554,-0 0.999,-0.111 1.333,-0.331c0.334,-0.221 0.501,-0.511 0.501,-0.87Z" style="fill:#1d1d1b;fill-rule:nonzero;"/><rect x="72.881" y="65.855" width="2.807" height="0.592" style="fill:#1d1d1b;fill-rule:nonzero;"/><path d="M83.41,66.113c0,0.785 -0.135,1.475 -0.407,2.069c-0.271,0.593 -0.659,1.05 -1.163,1.371c-0.504,0.32 -1.086,0.48 -1.746,0.48c-0.996,0 -1.801,-0.356 -2.414,-1.069c-0.613,-0.713 -0.92,-1.675 -0.92,-2.886l-0,-0.879c-0,-0.777 0.138,-1.466 0.413,-2.065c0.275,-0.6 0.665,-1.061 1.169,-1.383c0.504,-0.322 1.084,-0.484 1.74,-0.484c0.656,0 1.236,0.159 1.738,0.475c0.501,0.316 0.889,0.764 1.163,1.342c0.273,0.578 0.416,1.248 0.427,2.01l0,1.019Zm-0.72,-0.926c-0,-1.027 -0.233,-1.832 -0.698,-2.414c-0.464,-0.582 -1.101,-0.873 -1.91,-0.873c-0.793,0 -1.425,0.292 -1.895,0.876c-0.471,0.584 -0.706,1.4 -0.706,2.447l-0,0.89c-0,1.012 0.234,1.814 0.703,2.405c0.469,0.592 1.105,0.888 1.91,0.888c0.816,0 1.453,-0.292 1.91,-0.876c0.457,-0.584 0.686,-1.397 0.686,-2.44l-0,-0.903Z" style="fill:#1d1d1b;fill-rule:nonzero;"/><path d="M90.559,69.916l-0.697,-0l-4.114,-5.725l0,5.725l-0.697,-0l-0,-6.826l0.697,-0l4.114,5.724l-0,-5.724l0.697,-0l-0,6.826Z" style="fill:#1d1d1b;fill-rule:nonzero;"/><path d="M98.053,64.994l2.402,-3.609l0.862,-0l-2.825,4.207l2.912,4.324l-0.867,-0l-2.484,-3.727l-2.496,3.727l-0.856,-0l2.918,-4.324l-2.83,-4.207l0.862,-0l2.402,3.609Z" style="fill:#1d1d1b;fill-rule:nonzero;"/><path d="M107.627,67.818c0,-0.472 -0.166,-0.846 -0.498,-1.122c-0.332,-0.275 -0.939,-0.537 -1.822,-0.785c-0.883,-0.248 -1.528,-0.519 -1.934,-0.812c-0.578,-0.414 -0.867,-0.957 -0.867,-1.628c0,-0.653 0.269,-1.183 0.806,-1.591c0.537,-0.408 1.223,-0.613 2.059,-0.613c0.567,0 1.074,0.11 1.521,0.329c0.447,0.218 0.794,0.523 1.04,0.914c0.246,0.39 0.369,0.826 0.369,1.306l-0.727,0c0,-0.584 -0.199,-1.053 -0.597,-1.407c-0.399,-0.355 -0.934,-0.532 -1.606,-0.532c-0.652,-0 -1.172,0.146 -1.558,0.437c-0.387,0.292 -0.58,0.672 -0.58,1.141c-0,0.435 0.173,0.789 0.521,1.063c0.348,0.274 0.904,0.515 1.67,0.725c0.766,0.209 1.346,0.426 1.74,0.65c0.395,0.225 0.692,0.494 0.891,0.806c0.199,0.313 0.299,0.682 0.299,1.108c-0,0.671 -0.269,1.21 -0.806,1.617c-0.537,0.406 -1.245,0.609 -2.124,0.609c-0.602,0 -1.153,-0.107 -1.655,-0.322c-0.502,-0.215 -0.883,-0.516 -1.143,-0.903c-0.26,-0.386 -0.389,-0.83 -0.389,-1.33l0.72,0c0,0.602 0.225,1.077 0.674,1.424c0.449,0.348 1.047,0.522 1.793,0.522c0.664,-0 1.197,-0.147 1.6,-0.44c0.402,-0.293 0.603,-0.681 0.603,-1.166Z" style="fill:#1d1d1b;fill-rule:nonzero;"/><path d="M110.633,69.307l4.213,-0l-0,0.609l-4.94,-0l0,-8.531l0.727,-0l-0,7.922Z" style="fill:#1d1d1b;fill-rule:nonzero;"/><path d="M120.406,61.994l-2.923,0l-0,7.922l-0.721,-0l-0,-7.922l-2.918,0l-0,-0.609l6.562,-0l0,0.609Z" style="fill:#1d1d1b;fill-rule:nonzero;"/><path d="M126.307,70.021c-0.664,0 -1.199,-0.155 -1.606,-0.465c-0.406,-0.311 -0.609,-0.728 -0.609,-1.251c-0,-0.325 0.079,-0.619 0.237,-0.882c0.158,-0.264 0.437,-0.542 0.835,-0.835l0.533,-0.387c-0.418,-0.418 -0.692,-0.747 -0.823,-0.987c-0.131,-0.24 -0.196,-0.486 -0.196,-0.736c-0,-0.441 0.155,-0.798 0.466,-1.072c0.31,-0.273 0.719,-0.41 1.227,-0.41c0.496,-0 0.898,0.137 1.204,0.41c0.307,0.274 0.46,0.613 0.46,1.02c0,0.523 -0.318,1.017 -0.955,1.482l-0.48,0.352l2.021,2.062c0.344,-0.492 0.516,-1.064 0.516,-1.717l0.656,0c0,0.797 -0.248,1.514 -0.744,2.151l1.137,1.16l-0.826,-0l-0.709,-0.721c-0.625,0.551 -1.407,0.826 -2.344,0.826Zm0.053,-0.597c0.73,-0 1.349,-0.221 1.857,-0.662l-2.109,-2.145l-0.534,0.387c-0.273,0.199 -0.472,0.392 -0.597,0.58c-0.125,0.187 -0.188,0.404 -0.188,0.65c0,0.352 0.138,0.638 0.413,0.859c0.276,0.22 0.661,0.331 1.158,0.331Zm-0.991,-4.916c0,0.175 0.057,0.359 0.17,0.55c0.114,0.192 0.33,0.454 0.651,0.786l0.521,-0.375c0.418,-0.301 0.627,-0.635 0.627,-1.002c0,-0.246 -0.089,-0.451 -0.267,-0.616c-0.177,-0.164 -0.418,-0.246 -0.723,-0.246c-0.289,0 -0.525,0.086 -0.706,0.258c-0.182,0.172 -0.273,0.387 -0.273,0.645Z" style="fill:#1d1d1b;fill-rule:nonzero;"/><path d="M139.731,67.766c-0.082,0.722 -0.361,1.277 -0.835,1.664c-0.475,0.386 -1.105,0.58 -1.89,0.58c-0.828,-0 -1.499,-0.28 -2.013,-0.838c-0.513,-0.559 -0.77,-1.328 -0.77,-2.309l-0,-0.75c-0,-0.617 0.116,-1.163 0.348,-1.638c0.233,-0.474 0.562,-0.839 0.988,-1.095c0.426,-0.256 0.92,-0.384 1.482,-0.384c0.781,-0 1.404,0.196 1.869,0.589c0.465,0.392 0.739,0.95 0.821,1.673l-0.703,-0c-0.071,-0.53 -0.264,-0.937 -0.581,-1.223c-0.316,-0.287 -0.785,-0.43 -1.406,-0.43c-0.656,0 -1.174,0.223 -1.553,0.668c-0.378,0.444 -0.568,1.065 -0.568,1.861l0,0.773c0,0.776 0.187,1.389 0.56,1.838c0.373,0.448 0.882,0.673 1.526,0.673c0.629,-0 1.105,-0.137 1.427,-0.41c0.322,-0.274 0.52,-0.688 0.595,-1.242l0.703,-0Z" style="fill:#1d1d1b;fill-rule:nonzero;"/><path d="M146.656,66.846c0,0.961 -0.259,1.728 -0.779,2.302c-0.519,0.575 -1.217,0.862 -2.092,0.862c-0.871,-0 -1.569,-0.289 -2.094,-0.868c-0.526,-0.578 -0.788,-1.353 -0.788,-2.326l-0,-0.644c-0,-0.629 0.117,-1.184 0.351,-1.664c0.234,-0.481 0.571,-0.853 1.011,-1.117c0.439,-0.263 0.942,-0.395 1.509,-0.395c0.847,-0 1.534,0.276 2.059,0.829c0.526,0.553 0.8,1.296 0.823,2.23l0,0.791Zm-0.691,-0.692c0,-0.797 -0.196,-1.421 -0.589,-1.872c-0.392,-0.451 -0.927,-0.677 -1.602,-0.677c-0.668,0 -1.199,0.226 -1.591,0.677c-0.393,0.451 -0.589,1.087 -0.589,1.907l-0,0.651c-0,0.793 0.197,1.418 0.592,1.875c0.394,0.457 0.927,0.685 1.599,0.685c0.68,0 1.213,-0.226 1.6,-0.679c0.387,-0.454 0.58,-1.088 0.58,-1.905l0,-0.662Z" style="fill:#1d1d1b;fill-rule:nonzero;"/><path d="M148.127,69.494c0,-0.137 0.044,-0.253 0.132,-0.349c0.088,-0.095 0.21,-0.143 0.366,-0.143c0.156,-0 0.279,0.048 0.369,0.143c0.09,0.096 0.135,0.212 0.135,0.349c0,0.137 -0.045,0.249 -0.135,0.337c-0.09,0.088 -0.213,0.132 -0.369,0.132c-0.156,-0 -0.278,-0.044 -0.366,-0.132c-0.088,-0.088 -0.132,-0.2 -0.132,-0.337Z" style="fill:#1d1d1b;fill-rule:nonzero;"/></g></g></svg>